<svg width="25" height="25" fill="none" xmlns="http://www.w3.org/2000/svg"><path fill-rule="evenodd" clip-rule="evenodd" d="M10.765 2.727a1.776 1.776 0 00-1.59 2.57l.197.392a1.288 1.288 0 01-1.154 1.865h-4.09A1.207 1.207 0 002.92 8.76v1.441c2.196-.131 4.224 1.606 4.224 3.99 0 2.383-2.028 4.12-4.224 3.99v2.647a1.207 1.207 0 001.207 1.206h2.647c-.131-2.196 1.606-4.223 3.99-4.223 2.383 0 4.12 2.027 3.99 4.223h1.44a1.207 1.207 0 001.207-1.206v-4.091a1.29 1.29 0 011.864-1.154l.39.197a1.777 1.777 0 100-3.178l-.39.196a1.289 1.289 0 01-1.864-1.153V8.76a1.207 1.207 0 00-1.207-1.206H13.31a1.29 1.29 0 01-1.154-1.865l.197-.392a1.776 1.776 0 00-1.59-2.57zM6.618 5.14C6.238 2.706 8.103.313 10.765.313c2.66 0 4.527 2.393 4.146 4.827h1.284a3.62 3.62 0 013.62 3.62v1.284c2.434-.38 4.827 1.485 4.827 4.147 0 2.66-2.393 4.527-4.827 4.146v2.49a3.62 3.62 0 01-3.62 3.62H13.29a1.28 1.28 0 01-1.177-1.785l.102-.238a1.576 1.576 0 00-1.45-2.2 1.578 1.578 0 00-1.45 2.2l.102.24a1.28 1.28 0 01-1.178 1.784H4.128a3.62 3.62 0 01-3.62-3.62v-4.112c0-.92.94-1.54 1.786-1.177l.237.102a1.58 1.58 0 100-2.9l-.239.102a1.28 1.28 0 01-1.784-1.178V8.76a3.62 3.62 0 013.62-3.62h2.49z" fill="#000"/></svg>