<svg width="106" height="139" viewBox="0 0 106 139" fill="none" xmlns="http://www.w3.org/2000/svg">
<g clip-path="url(#clip0_21_17404)">
<path d="M271.584 -542.864C142.083 -512.364 -132.915 -353.363 -223.916 -166.865C-263.984 -84.7487 -248.667 107.133 -185.667 120.134C-138.076 129.954 -85.9964 126.375 -31.1674 97.1327C-15.1677 88.5995 15.8323 69.1359 33.3325 52.633C49.4862 37.3999 62.8325 19.633 62.8325 19.633C62.8325 19.633 62.8325 64.6359 62.8325 87.136C62.8325 102.17 63.7524 127.898 61.3326 128.633C33.3325 137.136 6.33252 129.633 23.8331 124.634C50.6271 116.98 73.8327 141.133 101.833 128.633" stroke="black" stroke-width="1.5" stroke-dasharray="10 10"/>
</g>
<defs>
<clipPath id="clip0_21_17404">
<rect width="106" height="139" fill="white"/>
</clipPath>
</defs>
</svg>
