<svg width="95" height="132" viewBox="0 0 95 132" fill="none" xmlns="http://www.w3.org/2000/svg">
<path d="M43.8612 0.634281C40.5749 19.2086 37.6155 25.059 32.8962 32.3507C29.8932 36.9906 26.8667 39.7634 18.1932 45.3822C13.9977 48.1001 2.02047 51.5736 1.59692 46.5002C0.436334 32.5984 16.8094 24.4189 30.6086 23.9552C44.2191 23.4979 52.9087 24.6684 62.5746 28.7506C72.2405 32.8328 79.763 40.4113 79.9559 56.2673C80.1157 69.4073 74.178 84.3815 48.541 96.8389C40.2504 100.867 22.0223 108.68 14.6248 111.397C10.1018 113.058 3.05382 119.284 4.28807 124.042C5.26261 127.799 8.41473 129.576 12.2287 130.044C34.5538 132.78 66.2601 116.172 93.9667 130.164" stroke="black" stroke-width="1.5" stroke-dasharray="10 10"/>
</svg>
