<svg width="106" height="139" viewBox="0 0 106 139" fill="none" xmlns="http://www.w3.org/2000/svg">
<g clip-path="url(#clip0_21_17405)">
<path d="M5.84871 131.912C21.6441 134.698 46.0652 133.721 58.9973 130.886C76.4673 127.056 85.9872 120.527 92.067 111.609C99.4269 100.813 95.9412 86.7549 88.2893 80.6724C74.9483 70.0677 46.1724 69.4897 46.1724 69.4897C46.1724 69.4897 65.3927 63.5739 72.0538 53.9752C81.1058 40.9312 80.3937 27.1308 72.1219 13.6548C66.8633 5.08793 57.7768 2.89516 52.0312 2.90485C43.8909 2.91857 26.6461 7.16655 26.6338 14.668C26.6214 22.1695 44.9753 19.2994 61.1081 14.6109C111.407 -0.00666049 180.023 2.90485 226.523 8.58167C277.513 14.8066 359.523 40.5817 413.023 80.6724C483.102 133.187 538.023 218.082 538.023 218.082" stroke="black" stroke-width="1.5" stroke-dasharray="10 10"/>
</g>
<defs>
<clipPath id="clip0_21_17405">
<rect width="106" height="139" fill="white"/>
</clipPath>
</defs>
</svg>
