<svg width="96" height="95" viewBox="0 0 96 95" fill="none" xmlns="http://www.w3.org/2000/svg">
<path fill-rule="evenodd" clip-rule="evenodd" d="M47.6348 95C73.8683 95 95.1348 73.7335 95.1348 47.5C95.1348 21.2665 73.8683 0 47.6348 0C21.4012 0 0.134766 21.2665 0.134766 47.5C0.134766 73.7335 21.4012 95 47.6348 95ZM23.8848 36.862V41.0677L70.1478 41.0677V36.862C70.1478 34.5404 68.2636 32.6562 65.9421 32.6562L28.0905 32.6562C25.7689 32.6562 23.8848 34.5404 23.8848 36.862ZM64.8906 66.3021C70.1162 66.3021 74.3535 62.0648 74.3535 56.8392C74.3535 51.6136 70.1162 47.3763 64.8906 47.3763C59.665 47.3763 55.4277 51.6136 55.4277 56.8392C55.4277 62.0648 59.665 66.3021 64.8906 66.3021ZM68.3561 53.5209L69.8197 54.9845L63.9086 61.0134L60.359 57.571L61.8225 56.1053L63.9065 58.082L68.3561 53.5209ZM55.0492 66.3021C52.6856 63.8438 51.222 60.5129 51.222 56.8392C51.222 53.1655 52.6856 49.8346 55.0492 47.3763H23.8848V62.0964C23.8848 64.4179 25.7689 66.3021 28.0905 66.3021H55.0492ZM30.1934 57.8906H40.7077V59.9935H30.1934V57.8906ZM30.1934 53.6849H47.0163V55.7878H30.1934V53.6849Z" fill="#1E1E1E"/>
</svg>
