<svg width="206" height="206" viewBox="0 0 206 206" fill="none" xmlns="http://www.w3.org/2000/svg">
<g filter="url(#filter0_bii_3_1623)">
<path d="M137.1 43.7279C104.158 25.1001 62.3557 36.7016 43.7279 69.6435C25.1002 102.585 36.7016 144.388 69.6455 163.017C102.587 181.645 144.39 170.038 163.017 137.098C181.645 104.156 170.042 62.3557 137.1 43.7279ZM104.062 155.065C100.716 154.835 97.5437 153.881 94.5856 152.208C92.4171 150.982 89.2304 148.086 85.0644 143.529C80.8862 138.976 77.317 135.853 74.3491 134.175C71.5991 132.62 68.7291 131.617 65.7348 131.168C63.9623 130.933 61.5527 130.848 58.4942 130.944L57.4875 120.2C63.1903 119.65 68.2661 118.357 72.7078 116.324C77.1499 114.282 80.5175 111.237 82.8101 107.183C83.4643 106.026 83.9969 104.539 84.4052 102.716C84.6724 101.579 84.9425 99.9692 85.2102 97.873L73.2226 91.0943L76.4114 85.4551L84.9302 90.2722C84.8292 90.451 84.8617 88.9814 85.0315 85.8526C85.1932 82.7244 85.3992 80.4897 85.6347 79.1427C85.8706 77.8866 86.25 76.4913 86.783 74.9573C87.3202 73.4206 88.0353 71.8626 88.9361 70.2696C92.1272 64.6264 97.2781 60.8717 104.396 59.002C111.51 57.1269 119.36 58.6239 127.926 63.4677C135.991 68.0283 140.842 73.6849 142.488 80.4329C144.131 87.1867 142.726 94.6258 138.289 102.758L128.25 97.0809C131.336 91.6223 132.412 86.7533 131.463 82.468C130.518 78.188 127.449 74.5806 122.232 71.6306C117.166 68.766 112.587 67.9341 108.479 69.1158C104.374 70.3048 101.242 72.7903 99.0962 76.5852C98.0332 78.4649 97.3427 80.6305 97.0397 83.0825C96.7297 85.5332 96.4466 90.0497 96.2042 96.6396L114 106.703L110.811 112.342L95.4589 103.661C94.8828 105.523 94.4083 106.981 94.0329 108.021C93.6664 109.045 93.1949 110.067 92.6228 111.078C90.5747 114.7 87.4725 117.651 83.3089 119.957C79.1489 122.253 73.7685 123.833 67.1773 124.684C70.3832 124.827 73.4108 125.217 76.2543 125.85C79.1105 126.47 81.6893 127.438 84.0012 128.745C86.6018 130.216 89.6895 132.815 93.2434 136.515C96.8068 140.225 99.2575 142.456 100.593 143.211C102.29 144.171 104.026 144.727 105.804 144.87C106.894 144.96 108.698 144.886 111.178 144.613L111.538 154.484C108.606 154.98 106.112 155.167 104.062 155.065Z" fill="white" fill-opacity="0.7"/>
</g>
<defs>
<filter id="filter0_bii_3_1623" x="10.8395" y="10.8394" width="185.066" height="185.065" filterUnits="userSpaceOnUse" color-interpolation-filters="sRGB">
<feFlood flood-opacity="0" result="BackgroundImageFix"/>
<feGaussianBlur in="BackgroundImage" stdDeviation="12"/>
<feComposite in2="SourceAlpha" operator="in" result="effect1_backgroundBlur_3_1623"/>
<feBlend mode="normal" in="SourceGraphic" in2="effect1_backgroundBlur_3_1623" result="shape"/>
<feColorMatrix in="SourceAlpha" type="matrix" values="0 0 0 0 0 0 0 0 0 0 0 0 0 0 0 0 0 0 127 0" result="hardAlpha"/>
<feOffset dx="1" dy="1"/>
<feGaussianBlur stdDeviation="2"/>
<feComposite in2="hardAlpha" operator="arithmetic" k2="-1" k3="1"/>
<feColorMatrix type="matrix" values="0 0 0 0 1 0 0 0 0 1 0 0 0 0 1 0 0 0 0.28 0"/>
<feBlend mode="normal" in2="shape" result="effect2_innerShadow_3_1623"/>
<feColorMatrix in="SourceAlpha" type="matrix" values="0 0 0 0 0 0 0 0 0 0 0 0 0 0 0 0 0 0 127 0" result="hardAlpha"/>
<feOffset dx="-1" dy="-1"/>
<feGaussianBlur stdDeviation="2"/>
<feComposite in2="hardAlpha" operator="arithmetic" k2="-1" k3="1"/>
<feColorMatrix type="matrix" values="0 0 0 0 0.389085 0 0 0 0 0.315611 0 0 0 0 0.866667 0 0 0 0.25 0"/>
<feBlend mode="normal" in2="effect2_innerShadow_3_1623" result="effect3_innerShadow_3_1623"/>
</filter>
</defs>
</svg>
