<svg width="227" height="227" viewBox="0 0 227 227" fill="none" xmlns="http://www.w3.org/2000/svg">
<g filter="url(#filter0_f_3_1686)">
<path d="M118.14 77.7378C98.3361 75.2612 80.2725 89.3093 77.7959 109.113C75.3194 128.918 89.3675 146.981 109.172 149.458C128.976 151.934 147.04 137.886 149.516 118.082C151.993 98.278 137.945 80.2143 118.14 77.7378ZM122.189 129.023C120.386 130.731 118.189 131.761 115.732 132.113C114.664 132.264 114.124 132.751 114.048 133.836C113.959 134.904 113.784 135.946 113.636 137.007C113.518 137.951 112.969 138.392 112.035 138.305C111.428 138.244 110.821 138.183 110.216 138.108C109.685 138.041 109.154 137.975 108.624 137.894C107.623 137.753 107.222 137.119 107.344 136.145C107.425 135.376 107.523 134.594 107.619 133.826C107.819 132.112 107.767 132.046 106.162 131.576C104.109 130.974 102.102 130.244 100.3 129.074C98.8869 128.148 98.7707 127.759 99.398 126.218C99.8702 125.078 100.343 123.938 100.857 122.819C101.23 121.996 101.529 121.644 101.986 121.701C102.252 121.734 102.575 121.909 103.003 122.203C104.989 123.575 107.17 124.477 109.509 125.07C109.902 125.164 110.296 125.243 110.695 125.293C111.802 125.431 112.905 125.359 114.01 125.033C116.795 124.212 117.59 121.209 115.591 119.101C114.916 118.387 114.102 117.82 113.252 117.309C111.062 116.001 108.753 114.933 106.733 113.347C103.457 110.779 101.577 107.591 102.382 103.315C103.286 98.4821 106.426 95.7872 111.1 94.7231C113.028 94.2897 113.041 94.3063 113.281 92.3878C113.362 91.7385 113.428 91.0874 113.541 90.427C113.766 88.9863 114.034 88.765 115.485 88.9015C115.648 88.9218 115.825 88.944 115.987 88.9643C116.267 88.9993 116.548 89.0344 116.828 89.0695C116.946 89.0842 117.064 89.099 117.168 89.1119C119.912 89.4552 119.898 89.5732 119.542 92.5413C119.283 94.7272 119.283 94.7272 121.41 95.3379C123.044 95.812 124.563 96.4965 126.012 97.3672C126.807 97.8414 127.058 98.4722 126.68 99.3392C126.13 100.619 125.593 101.916 125.016 103.178C124.651 103.942 124.354 104.279 123.881 104.22C123.616 104.187 123.304 104.043 122.917 103.785C120.921 102.486 118.755 101.706 116.424 101.414C116.128 101.377 115.817 101.353 115.52 101.331C114.821 101.288 114.131 101.292 113.446 101.491C111.019 102.207 110.332 104.699 112.099 106.509C112.989 107.429 114.055 108.132 115.16 108.765C117.091 109.861 119.026 110.927 120.826 112.231C126.482 116.386 127.169 124.31 122.189 129.023Z" fill="#7C65FD" fill-opacity="0.13"/>
</g>
<g filter="url(#filter1_bii_3_1686)">
<path d="M112.335 54.0351C90.098 51.2544 69.8158 67.0278 67.0351 89.2643C64.2544 111.501 80.0278 131.783 102.264 134.564C124.501 137.344 144.783 121.571 147.564 99.3345C150.344 77.098 134.571 56.8158 112.335 54.0351ZM116.88 111.619C114.856 113.537 112.389 114.693 109.631 115.088C108.431 115.258 107.824 115.805 107.739 117.023C107.64 118.222 107.443 119.392 107.277 120.583C107.145 121.644 106.528 122.139 105.479 122.041C104.798 121.973 104.117 121.905 103.437 121.82C102.841 121.745 102.244 121.67 101.65 121.579C100.525 121.422 100.076 120.709 100.212 119.616C100.304 118.752 100.413 117.874 100.521 117.012C100.745 115.088 100.687 115.013 98.8851 114.485C96.5799 113.81 94.3264 112.989 92.3029 111.676C90.7164 110.636 90.5859 110.199 91.2902 108.47C91.8205 107.19 92.3508 105.91 92.9288 104.653C93.3472 103.729 93.6827 103.333 94.1964 103.398C94.4947 103.435 94.8571 103.632 95.3376 103.961C97.5683 105.502 100.016 106.515 102.643 107.18C103.084 107.286 103.527 107.375 103.974 107.431C105.217 107.586 106.456 107.505 107.696 107.139C110.824 106.217 111.717 102.846 109.472 100.478C108.714 99.6764 107.8 99.0405 106.846 98.4667C104.387 96.9981 101.794 95.7987 99.5261 94.0173C95.8478 91.134 93.7374 87.5548 94.6407 82.7538C95.6559 77.3272 99.1812 74.3014 104.43 73.1065C106.594 72.6199 106.609 72.6385 106.878 70.4845C106.969 69.7554 107.044 69.0243 107.17 68.2828C107.423 66.6652 107.723 66.4166 109.353 66.57C109.536 66.5928 109.735 66.6176 109.917 66.6404C110.232 66.6798 110.546 66.7192 110.861 66.7585C110.994 66.7751 111.126 66.7917 111.242 66.8062C114.324 67.1916 114.308 67.3242 113.908 70.6567C113.618 73.1111 113.618 73.1111 116.006 73.7968C117.841 74.3292 119.545 75.0977 121.173 76.0754C122.066 76.6078 122.348 77.3161 121.923 78.2896C121.306 79.727 120.703 81.183 120.055 82.5997C119.644 83.4572 119.311 83.8362 118.781 83.7699C118.482 83.7326 118.132 83.571 117.698 83.281C115.457 81.8228 113.025 80.9465 110.407 80.6191C110.076 80.5777 109.726 80.5508 109.392 80.5259C108.607 80.4782 107.832 80.4823 107.064 80.706C104.338 81.5095 103.568 84.3077 105.552 86.3396C106.55 87.3732 107.747 88.1624 108.988 88.8729C111.156 90.1033 113.329 91.3006 115.35 92.765C121.7 97.4298 122.473 106.328 116.88 111.619Z" fill="white" fill-opacity="0.7"/>
</g>
<defs>
<filter id="filter0_f_3_1686" x="0.642876" y="0.584587" width="226.026" height="226.026" filterUnits="userSpaceOnUse" color-interpolation-filters="sRGB">
<feFlood flood-opacity="0" result="BackgroundImageFix"/>
<feBlend mode="normal" in="SourceGraphic" in2="BackgroundImageFix" result="shape"/>
<feGaussianBlur stdDeviation="38.435" result="effect1_foregroundBlur_3_1686"/>
</filter>
<filter id="filter1_bii_3_1686" x="42.7173" y="29.7173" width="129.164" height="129.164" filterUnits="userSpaceOnUse" color-interpolation-filters="sRGB">
<feFlood flood-opacity="0" result="BackgroundImageFix"/>
<feGaussianBlur in="BackgroundImage" stdDeviation="12"/>
<feComposite in2="SourceAlpha" operator="in" result="effect1_backgroundBlur_3_1686"/>
<feBlend mode="normal" in="SourceGraphic" in2="effect1_backgroundBlur_3_1686" result="shape"/>
<feColorMatrix in="SourceAlpha" type="matrix" values="0 0 0 0 0 0 0 0 0 0 0 0 0 0 0 0 0 0 127 0" result="hardAlpha"/>
<feOffset dx="1" dy="1"/>
<feGaussianBlur stdDeviation="2"/>
<feComposite in2="hardAlpha" operator="arithmetic" k2="-1" k3="1"/>
<feColorMatrix type="matrix" values="0 0 0 0 1 0 0 0 0 1 0 0 0 0 1 0 0 0 0.25 0"/>
<feBlend mode="normal" in2="shape" result="effect2_innerShadow_3_1686"/>
<feColorMatrix in="SourceAlpha" type="matrix" values="0 0 0 0 0 0 0 0 0 0 0 0 0 0 0 0 0 0 127 0" result="hardAlpha"/>
<feOffset dx="-1" dy="-1"/>
<feGaussianBlur stdDeviation="2"/>
<feComposite in2="hardAlpha" operator="arithmetic" k2="-1" k3="1"/>
<feColorMatrix type="matrix" values="0 0 0 0 0.574416 0 0 0 0 0.530736 0 0 0 0 0.858333 0 0 0 0.25 0"/>
<feBlend mode="normal" in2="effect2_innerShadow_3_1686" result="effect3_innerShadow_3_1686"/>
</filter>
</defs>
</svg>
