<svg width="131" height="523" viewBox="0 0 131 523" fill="none" xmlns="http://www.w3.org/2000/svg">
<path d="M56.498 522.153L65.1572 522.018L60.7105 514.586L56.498 522.153ZM72.8688 512.726C76.3776 510.33 79.7021 507.921 82.8484 505.499L81.9335 504.311C78.8108 506.714 75.5094 509.107 72.0229 511.487L72.8688 512.726ZM92.3881 497.642C95.616 494.788 98.6115 491.916 101.384 489.028L100.302 487.989C97.5592 490.847 94.5935 493.69 91.3945 496.518L92.3881 497.642ZM109.39 479.878C112.087 476.472 114.497 473.043 116.633 469.593L115.358 468.803C113.253 472.202 110.877 475.584 108.214 478.946L109.39 479.878ZM122.48 458.647C124.216 454.806 125.641 450.942 126.776 447.054L125.336 446.633C124.221 450.453 122.82 454.252 121.114 458.029L122.48 458.647ZM129.392 434.922C129.976 430.808 130.267 426.673 130.29 422.516L128.79 422.508C128.768 426.6 128.481 430.668 127.907 434.711L129.392 434.922ZM129.595 410.145C129.127 406.088 128.432 402.013 127.53 397.922L126.065 398.245C126.957 402.29 127.644 406.314 128.105 410.317L129.595 410.145ZM124.327 385.905C123.119 382.019 121.748 378.118 120.231 374.204L118.833 374.746C120.338 378.631 121.698 382.499 122.894 386.35L124.327 385.905ZM115.453 362.834C113.776 359.119 111.986 355.392 110.098 351.654L108.759 352.331C110.638 356.051 112.419 359.758 114.086 363.451L115.453 362.834ZM104.302 340.674C102.348 337.114 100.319 333.545 98.229 329.967L96.9337 330.723C99.0178 334.291 101.04 337.849 102.988 341.396L104.302 340.674ZM91.872 319.341C89.7366 315.847 87.5556 312.346 85.3411 308.837L84.0726 309.637C86.284 313.141 88.4611 316.637 90.5922 320.123L91.872 319.341ZM78.7062 298.438C76.4817 294.984 74.2362 291.523 71.9811 288.056L70.7236 288.874C72.9782 292.34 75.2223 295.799 77.445 299.25L78.7062 298.438ZM65.2501 277.716C63.0061 274.267 60.7636 270.812 58.5335 267.351L57.2726 268.164C59.5045 271.627 61.7482 275.084 63.9927 278.534L65.2501 277.716ZM51.8954 256.962C49.6887 253.472 47.5058 249.978 45.3575 246.479L44.0792 247.264C46.2315 250.769 48.4181 254.269 50.6276 257.763L51.8954 256.962ZM38.9964 235.917C36.8998 232.361 34.8506 228.801 32.8601 225.237L31.5506 225.969C33.5473 229.543 35.6024 233.114 37.7042 236.679L38.9964 235.917ZM26.9896 214.37C25.0823 210.707 23.2495 207.042 21.5035 203.375L20.1492 204.02C21.9036 207.705 23.7444 211.386 25.6592 215.062L26.9896 214.37ZM16.4424 192.141C14.8233 188.32 13.312 184.497 11.9228 180.674L10.513 181.186C11.9119 185.036 13.4328 188.883 15.0613 192.726L16.4424 192.141ZM8.08422 169.031C6.91463 165.064 5.89162 161.096 5.0307 157.129L3.56482 157.447C4.434 161.452 5.46624 165.455 6.64543 169.455L8.08422 169.031ZM2.92295 145.024C2.39455 140.956 2.05334 136.89 1.91604 132.825L0.416894 132.876C0.555891 136.991 0.901222 141.105 1.43545 145.218L2.92295 145.024ZM2.13772 120.565C2.42632 116.522 2.93379 112.482 3.67678 108.444L2.20154 108.172C1.4483 112.266 0.933979 116.362 0.641525 120.458L2.13772 120.565ZM6.55356 96.5852C7.72203 92.724 9.12162 88.8647 10.7672 85.0081L9.38756 84.4194C7.72063 88.326 6.30229 92.2367 5.11786 96.1507L6.55356 96.5852ZM16.1092 74.0727C18.0227 70.6034 20.1476 67.1361 22.4948 63.6714L21.253 62.8301C18.8809 66.3315 16.732 69.8377 14.7957 73.3482L16.1092 74.0727ZM29.8975 53.6778C32.343 50.6404 34.9681 47.6053 37.7802 44.5729L36.6804 43.5529C33.8454 46.61 31.1974 49.6715 28.7292 52.7371L29.8975 53.6778ZM46.6559 35.6065C49.4582 32.9463 52.4105 30.2884 55.5181 27.633L54.5437 26.4926C51.417 29.1643 48.4451 31.8397 45.6232 34.5186L46.6559 35.6065ZM65.3059 19.6793C68.3824 17.2975 71.5883 14.918 74.9272 12.5411L74.0573 11.3191C70.7026 13.7072 67.4806 16.0987 64.3876 18.4932L65.3059 19.6793ZM85.1872 5.52289C86.963 4.35446 88.7719 3.1867 90.6144 2.01962L89.8117 0.752447C87.962 1.92408 86.1459 3.09654 84.3627 4.26982L85.1872 5.52289Z" fill="url(#paint0_linear_19_1198)"/>
<defs>
<linearGradient id="paint0_linear_19_1198" x1="11.7478" y1="386.996" x2="128.373" y2="-15.9066" gradientUnits="userSpaceOnUse">
<stop offset="0.436361" stop-color="#1E1E1E"/>
<stop offset="1" stop-color="#1E1E1E" stop-opacity="0"/>
</linearGradient>
</defs>
</svg>
