<svg width="1041" height="612" viewBox="0 0 1041 612" fill="none" xmlns="http://www.w3.org/2000/svg">
<path d="M463 539L466.07 552.589L477.849 545.151L470.411 556.93L484 560L470.411 563.07L477.849 574.849L466.07 567.411L463 581L459.93 567.411L448.151 574.849L455.589 563.07L442 560L455.589 556.93L448.151 545.151L459.93 552.589L463 539Z" fill="#FD8A95"/>
<path d="M44 23L49.7482 51.2071L72.2827 33.294L58.5549 58.5967L87.3315 59.3595L60.5512 69.9184L82.1051 89L54.803 79.8745L59.0489 108.346L44 83.8065L28.9511 108.346L33.197 79.8745L5.89488 89L27.4488 69.9184L0.668457 59.3595L29.4451 58.5967L15.7173 33.294L38.2518 51.2071L44 23Z" fill="#FD8A95"/>
<path d="M177.001 346.49L180.268 338.469L171.688 339.651L177.001 346.49ZM265.501 42.0001L265.761 42.7036L265.501 42.0001ZM430.001 81.0001L430.651 80.6262L430.001 81.0001ZM385.5 297.5L384.816 297.807L384.816 297.807L385.5 297.5ZM265.241 41.2967C206.724 62.9274 183.019 127.619 174.531 191.644C166.034 255.736 172.732 319.528 175.337 339.9L176.824 339.709C174.225 319.38 167.547 255.741 176.018 191.841C184.499 127.875 208.107 64.0153 265.761 42.7036L265.241 41.2967ZM430.651 80.6262C397.456 22.9115 327.292 18.3597 265.241 41.2967L265.761 42.7036C327.563 19.8587 396.712 24.6265 429.351 81.3741L430.651 80.6262ZM570.001 327C569.804 326.276 569.803 326.276 569.802 326.276C569.801 326.277 569.8 326.277 569.798 326.278C569.793 326.279 569.786 326.281 569.777 326.283C569.759 326.288 569.732 326.295 569.696 326.305C569.623 326.325 569.515 326.354 569.371 326.391C569.083 326.467 568.655 326.579 568.094 326.722C566.972 327.007 565.322 327.417 563.209 327.914C558.983 328.908 552.909 330.249 545.518 331.638C530.736 334.415 510.702 337.377 489.682 338.125C468.654 338.874 446.687 337.404 428.013 331.349C409.348 325.297 394.042 314.688 386.184 297.193L384.816 297.807C392.903 315.812 408.632 326.641 427.55 332.776C446.46 338.908 468.625 340.376 489.736 339.624C510.855 338.873 530.967 335.897 545.795 333.112C553.211 331.719 559.308 330.373 563.553 329.374C565.675 328.875 567.334 328.463 568.464 328.175C569.029 328.031 569.461 327.919 569.753 327.842C569.899 327.803 570.009 327.774 570.084 327.754C570.121 327.744 570.149 327.737 570.168 327.731C570.178 327.729 570.185 327.727 570.19 327.726C570.192 327.725 570.194 327.724 570.195 327.724C570.197 327.724 570.197 327.724 570.001 327ZM386.184 297.193C372.994 267.826 371.931 244.501 377.007 224.836C382.091 205.144 393.35 189.043 404.967 174.149C416.545 159.302 428.547 145.583 434.847 130.802C441.187 115.926 441.771 99.96 430.651 80.6262L429.351 81.3741C440.23 100.29 439.627 115.761 433.467 130.214C427.266 144.761 415.455 158.261 403.784 173.226C392.15 188.144 380.721 204.45 375.555 224.461C370.382 244.499 371.506 268.174 384.816 297.807L386.184 297.193Z" fill="#00C4E4"/>
<path d="M961.5 125L962.144 124.616L961.5 125ZM887.5 135L888.201 135.267L888.201 135.267L887.5 135ZM830 536L830.709 535.756L830.709 535.756L830 536ZM1039.5 508.5L1032.78 513.962L1040.87 517.051L1039.5 508.5ZM907.5 276.5L906.751 276.471L907.5 276.5ZM733.621 301.24C766.895 295.806 835.812 271.734 890.502 239.094C917.845 222.776 941.708 204.271 955.772 184.821C962.808 175.09 967.415 165.09 968.752 154.982C970.09 144.86 968.142 134.678 962.144 124.616L960.856 125.384C966.686 135.165 968.558 145.009 967.265 154.785C965.97 164.577 961.495 174.346 954.556 183.942C940.67 203.146 917.014 221.525 889.734 237.806C835.179 270.366 766.438 294.361 733.379 299.76L733.621 301.24ZM962.144 124.616C956.549 115.231 949.531 109.789 941.993 107.288C934.467 104.791 926.493 105.249 919.009 107.533C911.528 109.817 904.505 113.934 898.846 118.807C893.194 123.674 888.856 129.333 886.799 134.733L888.201 135.267C890.144 130.167 894.299 124.702 899.825 119.943C905.345 115.191 912.187 111.184 919.447 108.967C926.707 106.752 934.355 106.334 941.521 108.712C948.676 111.086 955.422 116.269 960.856 125.384L962.144 124.616ZM829.291 536.244C840.501 568.754 856.814 589.454 875.631 600.731C894.454 612.012 915.693 613.809 936.636 608.684C978.481 598.443 1019.25 560.556 1037.79 515.086L1036.4 514.52C1018.02 559.621 977.583 597.118 936.28 607.227C915.65 612.275 894.829 610.488 876.402 599.444C857.968 588.397 841.839 568.032 830.709 535.756L829.291 536.244ZM886.799 134.733C882.281 146.592 881.476 156.127 882.785 165.093C884.09 174.027 887.493 182.363 891.307 191.782C898.933 210.614 908.366 234.125 906.751 276.471L908.249 276.529C909.877 233.875 900.358 210.136 892.697 191.218C888.868 181.762 885.543 173.598 884.27 164.876C883.001 156.185 883.766 146.908 888.201 135.267L886.799 134.733ZM906.751 276.471C906.059 294.602 898.741 313.507 888.623 333.312C878.487 353.151 865.66 373.683 853.919 395.278C830.505 438.34 811.679 485.171 829.291 536.244L830.709 535.756C813.321 485.329 831.849 439.008 855.237 395.994C866.896 374.551 879.832 353.814 889.958 333.994C900.102 314.14 907.545 294.996 908.249 276.529L906.751 276.471Z" fill="#00C4E4"/>
<rect x="557" y="213" width="179.048" height="179.048" rx="52.7961" fill="#FDFF88"/>
<g filter="url(#filter0_f_55_19566)">
<rect x="565.952" y="221.057" width="179.048" height="179.048" rx="52.7961" fill="#FDFF88" fill-opacity="0.4"/>
</g>
<path fill-rule="evenodd" clip-rule="evenodd" d="M625.826 264.589C632.263 264.589 638.068 266.104 642.837 269.208C638.978 272.956 635.792 277.394 633.479 282.323C631.679 281.319 629.225 280.657 625.826 280.657C615.684 280.657 607.462 288.879 607.462 299.021C607.462 309.163 615.684 317.385 625.826 317.385C627.069 317.385 628.212 317.224 629.266 316.91V333.255C628.153 333.386 627.006 333.453 625.826 333.453C606.809 333.453 591.394 318.037 591.394 299.021C591.394 280.005 606.809 264.589 625.826 264.589ZM647.63 301.853C647.73 306.913 649.255 311.624 651.819 315.602C654.437 309.724 655.614 303.098 655.614 296.699C655.614 292.393 655.079 288.18 653.864 284.274C650.079 288.747 647.755 294.496 647.63 300.784V301.853Z" fill="#1E1E1E"/>
<path d="M647.738 299.666L647.738 352.798M700.421 301.318C700.421 315.898 688.602 327.716 674.023 327.716C659.444 327.716 647.625 315.898 647.625 301.318C647.625 286.739 659.444 274.92 674.023 274.92C688.602 274.92 700.421 286.739 700.421 301.318Z" stroke="#1E1E1E" stroke-width="16.0684"/>
<defs>
<filter id="filter0_f_55_19566" x="517.609" y="172.714" width="275.734" height="275.733" filterUnits="userSpaceOnUse" color-interpolation-filters="sRGB">
<feFlood flood-opacity="0" result="BackgroundImageFix"/>
<feBlend mode="normal" in="SourceGraphic" in2="BackgroundImageFix" result="shape"/>
<feGaussianBlur stdDeviation="24.1714" result="effect1_foregroundBlur_55_19566"/>
</filter>
</defs>
</svg>
