<svg width="674" height="88" viewBox="0 0 674 88" fill="none" xmlns="http://www.w3.org/2000/svg">
<rect width="674" height="88" rx="14.02" fill="#F5F5FF"/>
<path d="M52.14 25.0002C42.6742 25.0002 35 32.6744 35 42.1402C35 51.606 42.6742 59.2802 52.14 59.2802C61.6058 59.2802 69.28 51.606 69.28 42.1402C69.28 32.6744 61.6058 25.0002 52.14 25.0002ZM58.1214 50.8231C57.6065 51.0559 57.0704 51.2534 56.5202 51.4015C54.4324 51.9799 52.3445 52.001 50.2638 51.3239C47.7527 50.5127 46.0881 48.7987 45.0936 46.4006C44.9031 45.935 44.7761 45.4483 44.628 44.9616H42.6601C42.3286 44.9616 42.0676 44.6936 42.0676 44.3691V43.0431C42.0676 42.7116 42.3356 42.4506 42.6601 42.4506H44.2895C44.2895 42.0838 44.2895 41.7382 44.2895 41.3714H42.6601C42.3286 41.3714 42.0676 41.1034 42.0676 40.7789V39.4529C42.0676 39.1213 42.3356 38.8604 42.6601 38.8604H44.7338L44.8044 38.6558C45.3616 36.8854 46.3209 35.3689 47.795 34.2262C48.9659 33.3163 50.3202 32.8155 51.7732 32.5828C53.8399 32.2512 55.8431 32.5334 57.7828 33.2952C57.9098 33.3445 58.0297 33.401 58.1496 33.4715C58.6151 33.7466 58.735 34.0922 58.5305 34.593C58.3118 35.115 58.0932 35.644 57.8533 36.1589C57.6488 36.6032 57.3666 36.7443 56.887 36.6385C56.231 36.4904 55.5892 36.2858 54.9332 36.1518C53.5507 35.8697 52.1753 35.8556 50.828 36.3846C49.6713 36.8431 48.9659 37.7248 48.4863 38.8251C48.4792 38.8392 48.4792 38.8533 48.4792 38.8674H52.5068C52.8383 38.8674 53.0993 39.1355 53.0993 39.4599V40.786C53.0993 41.1175 52.8312 41.3785 52.5068 41.3785H47.9079C47.9008 41.7311 47.9079 42.0838 47.9079 42.4577H52.5138C52.8453 42.4577 53.1063 42.7257 53.1063 43.0501V44.3762C53.1063 44.7077 52.8383 44.9687 52.5138 44.9687H48.3099C48.8178 46.4217 49.6431 47.5432 51.1948 48.0299C52.4362 48.4179 53.6847 48.3967 54.9402 48.1357C55.5892 48.0017 56.224 47.8042 56.8729 47.6561C57.3807 47.5432 57.6558 47.6772 57.8674 48.1428C58.1073 48.6647 58.333 49.1937 58.5446 49.7298C58.7421 50.2094 58.6151 50.5974 58.1214 50.8231Z" fill="#1E1E1E"/>
<circle cx="83.86" cy="44.14" r="18.2131" fill="#F5F5F6" stroke="#F5F5F6" stroke-width="2.14706"/>
<path fill-rule="evenodd" clip-rule="evenodd" d="M88.3643 60.4983C79.2187 62.9426 69.8243 57.5106 67.38 48.365C64.9358 39.2193 70.3677 29.8249 79.5134 27.3807C88.659 24.9364 98.0534 30.3684 100.498 39.514C102.942 48.6597 97.51 58.0541 88.3643 60.4983ZM90.8313 39.9019C90.5765 37.6459 88.612 36.9212 86.1458 36.7465L86.093 33.6115L84.1857 33.6444L84.2364 36.6968C83.735 36.7044 83.2234 36.7236 82.7128 36.7425L82.6624 33.6701L80.7548 33.702L80.8073 36.836C80.3944 36.851 79.9882 36.8664 79.5928 36.8722L79.5924 36.8624L76.9606 36.906L76.9951 38.9437C76.9951 38.9437 78.4042 38.8931 78.3813 38.9192C79.1541 38.9067 79.4126 39.351 79.4926 39.7377L79.5533 43.3086C79.6063 43.3077 79.6754 43.3092 79.7553 43.3178L79.5535 43.3218L79.6375 48.3247C79.6072 48.5679 79.4708 48.958 78.9302 48.9683C78.9558 48.9892 77.5438 48.9918 77.5438 48.9918L77.2029 51.2762L79.6867 51.2345C80.1483 51.2275 80.6031 51.228 81.0486 51.2231L81.103 54.3932L83.0093 54.3605L82.9565 51.2255C83.4801 51.2264 83.9867 51.2218 84.4814 51.2138L84.5329 54.3358L86.4402 54.3029L86.3875 51.1391C89.5928 50.9011 91.8239 50.0554 92.0521 47.0382C92.2368 44.6092 91.0776 43.5452 89.2492 43.139C90.3467 42.5574 91.0209 41.5533 90.8313 39.9019V39.9019ZM88.2751 46.7259C88.3173 49.0953 84.2549 48.8936 82.9615 48.9166L82.8922 44.716C84.1862 44.695 88.2346 44.2551 88.2751 46.7259ZM87.2884 40.8144C87.3246 42.9703 83.9369 42.7746 82.8606 42.7928L82.7964 38.9844C83.8727 38.9663 87.2507 38.5657 87.2884 40.8144Z" fill="#1E1E1E"/>
<path d="M130.679 36.4911H139.17V37.9793H132.282V42.2152H138.712V43.7035H132.282V48.5117H139.513V50H130.679V36.4911ZM152.121 44.8483C152.121 45.5861 152.026 46.2857 151.835 46.9471C151.657 47.6086 151.364 48.1937 150.957 48.7025C150.563 49.1986 150.041 49.5993 149.393 49.9046C148.744 50.1972 147.955 50.3434 147.027 50.3434C146.098 50.3434 145.309 50.1972 144.661 49.9046C144.012 49.5993 143.484 49.1986 143.077 48.7025C142.683 48.1937 142.39 47.6086 142.199 46.9471C142.021 46.2857 141.932 45.5861 141.932 44.8483V36.4911H143.535V44.6193C143.535 45.1663 143.592 45.6942 143.707 46.203C143.821 46.7118 144.012 47.1634 144.279 47.5577C144.546 47.952 144.902 48.27 145.348 48.5117C145.793 48.7407 146.352 48.8552 147.027 48.8552C147.701 48.8552 148.261 48.7407 148.706 48.5117C149.151 48.27 149.507 47.952 149.774 47.5577C150.041 47.1634 150.232 46.7118 150.347 46.203C150.461 45.6942 150.518 45.1663 150.518 44.6193V36.4911H152.121V44.8483ZM155.424 36.4911H158.878C159.526 36.4911 160.169 36.5292 160.805 36.6055C161.453 36.6819 162.032 36.8472 162.541 37.1016C163.05 37.356 163.463 37.7313 163.781 38.2274C164.099 38.7108 164.258 39.3722 164.258 40.2117C164.258 41.2039 163.959 42.0053 163.361 42.6159C162.764 43.2265 161.937 43.6144 160.881 43.7798L164.716 50H162.751L159.087 43.9324H157.027V50H155.424V36.4911ZM157.027 42.4442H158.458C158.903 42.4442 159.361 42.4314 159.832 42.406C160.315 42.3806 160.754 42.2979 161.148 42.1579C161.555 42.018 161.886 41.8018 162.14 41.5092C162.407 41.2039 162.541 40.7714 162.541 40.2117C162.541 39.7284 162.446 39.3404 162.255 39.0478C162.064 38.7553 161.81 38.5327 161.492 38.38C161.186 38.2147 160.836 38.1065 160.442 38.0557C160.061 38.0048 159.673 37.9793 159.278 37.9793H157.027V42.4442ZM170.72 44.7338H189.8V46.1076H170.72V44.7338ZM196.79 36.4911H200.911C201.471 36.4911 202.018 36.5483 202.552 36.6628C203.086 36.7773 203.563 36.9681 203.983 37.2352C204.403 37.4896 204.74 37.8267 204.994 38.2465C205.261 38.6662 205.395 39.1878 205.395 39.8111C205.395 40.5997 205.179 41.2548 204.746 41.7763C204.326 42.2852 203.754 42.6477 203.029 42.8639V42.9021C203.462 42.9402 203.862 43.0547 204.231 43.2455C204.613 43.4236 204.937 43.6589 205.204 43.9515C205.484 44.2441 205.7 44.5875 205.853 44.9819C206.006 45.3635 206.082 45.7769 206.082 46.2221C206.082 46.9726 205.923 47.5895 205.605 48.0729C205.3 48.5562 204.893 48.9442 204.384 49.2368C203.888 49.5166 203.322 49.7138 202.686 49.8283C202.062 49.9428 201.439 50 200.816 50H196.79V36.4911ZM198.392 42.2152H200.606C200.987 42.2152 201.356 42.1897 201.712 42.1389C202.081 42.088 202.412 41.9862 202.705 41.8336C202.997 41.6682 203.233 41.4456 203.411 41.1658C203.589 40.8732 203.678 40.4916 203.678 40.0209C203.678 39.6012 203.595 39.2641 203.43 39.0097C203.264 38.7426 203.042 38.5327 202.762 38.38C202.495 38.2274 202.183 38.1256 201.827 38.0747C201.484 38.0111 201.134 37.9793 200.778 37.9793H198.392V42.2152ZM198.392 48.5117H201.102C201.496 48.5117 201.884 48.4736 202.266 48.3972C202.66 48.3082 203.01 48.1746 203.315 47.9966C203.633 47.8058 203.888 47.5641 204.078 47.2715C204.269 46.9662 204.365 46.5973 204.365 46.1648C204.365 45.6942 204.269 45.2999 204.078 44.9819C203.9 44.6638 203.659 44.4094 203.353 44.2186C203.061 44.0278 202.717 43.8943 202.323 43.8179C201.941 43.7416 201.547 43.7035 201.14 43.7035H198.392V48.5117ZM217.871 37.9793H213.407V50H211.804V37.9793H207.339V36.4911H217.871V37.9793ZM229.228 39.2768C228.821 38.7298 228.319 38.3228 227.721 38.0557C227.123 37.7758 226.5 37.6359 225.851 37.6359C225.101 37.6359 224.407 37.7885 223.771 38.0938C223.148 38.3991 222.607 38.8125 222.15 39.334C221.692 39.8429 221.335 40.4407 221.081 41.1276C220.827 41.8018 220.699 42.5078 220.699 43.2455C220.699 44.0342 220.827 44.772 221.081 45.4589C221.335 46.133 221.685 46.7245 222.13 47.2333C222.588 47.7294 223.129 48.1238 223.752 48.4163C224.388 48.7089 225.088 48.8552 225.851 48.8552C226.678 48.8552 227.416 48.6962 228.064 48.3782C228.713 48.0474 229.279 47.5768 229.763 46.9662L230.965 47.9775C230.354 48.7916 229.616 49.3894 228.751 49.771C227.899 50.1526 226.932 50.3434 225.851 50.3434C224.884 50.3434 223.981 50.1654 223.142 49.8092C222.302 49.453 221.571 48.9633 220.947 48.34C220.337 47.704 219.854 46.9535 219.497 46.0885C219.154 45.2235 218.982 44.2759 218.982 43.2455C218.982 42.2534 219.148 41.3248 219.478 40.4598C219.822 39.5948 220.299 38.8443 220.909 38.2083C221.52 37.5723 222.245 37.0698 223.084 36.7009C223.924 36.3321 224.846 36.1476 225.851 36.1476C226.767 36.1476 227.645 36.313 228.484 36.6437C229.337 36.9744 230.049 37.515 230.621 38.2655L229.228 39.2768Z" fill="#ACA7A7"/>
<path d="M374.551 38.8683H375.681L379.989 49H378.586L377.556 46.51H372.49L371.445 49H370.086L374.551 38.8683ZM375.094 40.4138H375.066L372.962 45.3938H377.098L375.094 40.4138ZM381.335 38.8683H383.925C384.412 38.8683 384.894 38.8969 385.371 38.9542C385.857 39.0114 386.291 39.1354 386.673 39.3262C387.055 39.517 387.365 39.7985 387.603 40.1705C387.842 40.5331 387.961 41.0292 387.961 41.6588C387.961 42.4029 387.737 43.004 387.288 43.4619C386.84 43.9198 386.22 44.2108 385.428 44.3348L388.304 49H386.83L384.083 44.4493H382.537V49H381.335V38.8683ZM382.537 43.3331H383.611C383.944 43.3331 384.288 43.3236 384.641 43.3045C385.003 43.2854 385.333 43.2234 385.628 43.1185C385.934 43.0135 386.182 42.8513 386.372 42.6319C386.573 42.4029 386.673 42.0786 386.673 41.6588C386.673 41.2963 386.601 41.0053 386.458 40.7859C386.315 40.5665 386.124 40.3995 385.886 40.285C385.657 40.161 385.395 40.0799 385.099 40.0417C384.813 40.0036 384.522 39.9845 384.226 39.9845H382.537V43.3331ZM390.084 38.8683H393.089C393.556 38.8683 394 38.916 394.42 39.0114C394.849 39.0973 395.226 39.2499 395.55 39.4693C395.884 39.6792 396.146 39.9654 396.337 40.328C396.537 40.6809 396.638 41.1198 396.638 41.6445C396.638 42.1978 396.533 42.6558 396.323 43.0183C396.113 43.3808 395.841 43.667 395.507 43.8769C395.183 44.0868 394.825 44.2347 394.434 44.3205C394.043 44.4064 393.671 44.4493 393.318 44.4493H391.286V49H390.084V38.8683ZM391.286 43.3331H393.318C393.919 43.3331 394.405 43.1996 394.777 42.9324C395.159 42.6558 395.35 42.2312 395.35 41.6588C395.35 41.0864 395.159 40.6666 394.777 40.3995C394.405 40.1228 393.919 39.9845 393.318 39.9845H391.286V43.3331ZM399.296 42.1311C399.535 42.1311 399.735 42.2169 399.897 42.3886C400.069 42.5508 400.155 42.7512 400.155 42.9897C400.155 43.2282 400.064 43.4333 399.883 43.605C399.711 43.7672 399.516 43.8483 399.296 43.8483C399.077 43.8483 398.876 43.7672 398.695 43.605C398.523 43.4333 398.437 43.2282 398.437 42.9897C398.437 42.7512 398.519 42.5508 398.681 42.3886C398.852 42.2169 399.058 42.1311 399.296 42.1311ZM399.296 47.3686C399.535 47.3686 399.735 47.4545 399.897 47.6262C400.069 47.7884 400.155 47.9887 400.155 48.2272C400.155 48.4657 400.064 48.6709 399.883 48.8426C399.711 49.0048 399.516 49.0859 399.296 49.0859C399.077 49.0859 398.876 49.0048 398.695 48.8426C398.523 48.6709 398.437 48.4657 398.437 48.2272C398.437 47.9887 398.519 47.7884 398.681 47.6262C398.852 47.4545 399.058 47.3686 399.296 47.3686ZM410.424 49H409.222V40.4138H409.194L407.376 41.945L406.661 41.0721L409.38 38.8683H410.424V49ZM420.007 39.9845H415.872L415.829 42.7178C416.02 42.6224 416.23 42.5604 416.459 42.5317C416.697 42.4936 416.921 42.4745 417.131 42.4745C417.618 42.4745 418.057 42.5604 418.448 42.7321C418.848 42.8943 419.192 43.128 419.478 43.4333C419.764 43.729 419.984 44.082 420.136 44.4923C420.289 44.8929 420.365 45.3318 420.365 45.8088C420.365 46.3144 420.275 46.7771 420.093 47.1969C419.922 47.6071 419.678 47.9601 419.364 48.2559C419.058 48.5421 418.691 48.7663 418.262 48.9284C417.842 49.0906 417.384 49.1717 416.888 49.1717C416.115 49.1717 415.49 49.0048 415.013 48.6709C414.546 48.337 414.174 47.8886 413.897 47.3257L415.099 46.8678C415.271 47.2494 415.519 47.5594 415.843 47.7979C416.177 48.0269 416.559 48.1414 416.988 48.1414C417.293 48.1414 417.575 48.0889 417.832 47.984C418.099 47.8695 418.328 47.7121 418.519 47.5117C418.72 47.3018 418.877 47.0538 418.991 46.7676C419.106 46.4814 419.163 46.1618 419.163 45.8088C419.163 45.4367 419.096 45.1076 418.963 44.8214C418.839 44.5352 418.662 44.2967 418.433 44.1059C418.214 43.9055 417.952 43.7577 417.646 43.6623C417.341 43.5573 417.012 43.5048 416.659 43.5048C416.315 43.5048 415.962 43.5669 415.6 43.6909C415.237 43.8054 414.903 43.9532 414.598 44.1345L414.698 38.8683H420.007V39.9845ZM428.045 39.9845L423.995 49H422.636L426.757 39.9845H421.863V38.8683H428.045V39.9845ZM431.117 47.3686C431.355 47.3686 431.556 47.4545 431.718 47.6262C431.89 47.7884 431.976 47.9887 431.976 48.2272C431.976 48.4657 431.885 48.6709 431.704 48.8426C431.532 49.0048 431.336 49.0859 431.117 49.0859C430.898 49.0859 430.697 49.0048 430.516 48.8426C430.344 48.6709 430.258 48.4657 430.258 48.2272C430.258 47.9887 430.339 47.7884 430.502 47.6262C430.673 47.4545 430.878 47.3686 431.117 47.3686ZM433.826 47.6262L437.647 43.9055C437.886 43.6766 438.095 43.4667 438.277 43.2759C438.458 43.0755 438.606 42.8847 438.72 42.7035C438.844 42.5127 438.935 42.3171 438.992 42.1167C439.049 41.9164 439.078 41.6922 439.078 41.4442C439.078 41.177 439.03 40.9385 438.935 40.7286C438.84 40.5188 438.706 40.3423 438.534 40.1992C438.372 40.0465 438.177 39.932 437.948 39.8557C437.728 39.7698 437.49 39.7269 437.232 39.7269C436.717 39.7269 436.292 39.8748 435.958 40.1705C435.625 40.4663 435.41 40.8574 435.314 41.344L434.012 41.2295C434.079 40.8193 434.203 40.4567 434.384 40.1419C434.575 39.8175 434.809 39.5504 435.086 39.3405C435.372 39.1307 435.691 38.9732 436.044 38.8683C436.397 38.7538 436.779 38.6966 437.189 38.6966C437.609 38.6966 438.005 38.7586 438.377 38.8826C438.749 38.9971 439.073 39.1688 439.35 39.3978C439.636 39.6267 439.86 39.913 440.023 40.2564C440.194 40.5998 440.28 40.9958 440.28 41.4442C440.28 41.8448 440.223 42.2074 440.108 42.5317C440.004 42.8561 439.856 43.1566 439.665 43.4333C439.484 43.7004 439.274 43.958 439.035 44.206C438.806 44.4446 438.563 44.6831 438.305 44.9216L435.186 47.8552V47.8838H440.352V49H433.826V47.6262ZM441.606 41.2009C441.606 40.8479 441.668 40.5188 441.792 40.2135C441.926 39.9082 442.102 39.6458 442.322 39.4264C442.551 39.1974 442.818 39.0209 443.123 38.8969C443.428 38.7634 443.758 38.6966 444.111 38.6966C444.464 38.6966 444.793 38.7634 445.098 38.8969C445.403 39.0209 445.666 39.1974 445.885 39.4264C446.114 39.6458 446.29 39.9082 446.414 40.2135C446.548 40.5188 446.615 40.8479 446.615 41.2009C446.615 41.5539 446.548 41.883 446.414 42.1883C446.29 42.4936 446.114 42.7607 445.885 42.9897C445.666 43.2091 445.403 43.3856 445.098 43.5192C444.793 43.6432 444.464 43.7052 444.111 43.7052C443.758 43.7052 443.428 43.6432 443.123 43.5192C442.818 43.3856 442.551 43.2091 442.322 42.9897C442.102 42.7607 441.926 42.4936 441.792 42.1883C441.668 41.883 441.606 41.5539 441.606 41.2009ZM442.637 41.2009C442.637 41.4012 442.675 41.592 442.751 41.7733C442.837 41.945 442.947 42.1024 443.08 42.2455C443.214 42.3791 443.366 42.484 443.538 42.5604C443.719 42.6367 443.91 42.6748 444.111 42.6748C444.311 42.6748 444.497 42.6367 444.669 42.5604C444.85 42.484 445.007 42.3791 445.141 42.2455C445.274 42.1024 445.379 41.945 445.456 41.7733C445.542 41.592 445.584 41.4012 445.584 41.2009C445.584 41.0005 445.542 40.8145 445.456 40.6428C445.379 40.4615 445.274 40.3041 445.141 40.1705C445.007 40.0274 444.85 39.9177 444.669 39.8414C444.497 39.7651 444.311 39.7269 444.111 39.7269C443.91 39.7269 443.719 39.7651 443.538 39.8414C443.366 39.9177 443.214 40.0274 443.08 40.1705C442.947 40.3041 442.837 40.4615 442.751 40.6428C442.675 40.8145 442.637 41.0005 442.637 41.2009ZM447.431 46.6674C447.431 46.3144 447.493 45.9853 447.617 45.68C447.75 45.3747 447.927 45.1124 448.146 44.8929C448.375 44.664 448.642 44.4875 448.947 44.3635C449.253 44.2299 449.582 44.1631 449.935 44.1631C450.288 44.1631 450.617 44.2299 450.922 44.3635C451.228 44.4875 451.49 44.664 451.709 44.8929C451.938 45.1124 452.115 45.3747 452.239 45.68C452.372 45.9853 452.439 46.3144 452.439 46.6674C452.439 47.0204 452.372 47.3495 452.239 47.6548C452.115 47.9601 451.938 48.2272 451.709 48.4562C451.49 48.6756 451.228 48.8521 450.922 48.9857C450.617 49.1097 450.288 49.1717 449.935 49.1717C449.582 49.1717 449.253 49.1097 448.947 48.9857C448.642 48.8521 448.375 48.6756 448.146 48.4562C447.927 48.2272 447.75 47.9601 447.617 47.6548C447.493 47.3495 447.431 47.0204 447.431 46.6674ZM448.461 46.6674C448.461 46.8678 448.499 47.0586 448.575 47.2398C448.661 47.4116 448.771 47.569 448.904 47.7121C449.038 47.8456 449.191 47.9506 449.362 48.0269C449.544 48.1032 449.734 48.1414 449.935 48.1414C450.135 48.1414 450.321 48.1032 450.493 48.0269C450.674 47.9506 450.832 47.8456 450.965 47.7121C451.099 47.569 451.204 47.4116 451.28 47.2398C451.366 47.0586 451.409 46.8678 451.409 46.6674C451.409 46.4671 451.366 46.281 451.28 46.1093C451.204 45.9281 451.099 45.7706 450.965 45.6371C450.832 45.494 450.674 45.3843 450.493 45.3079C450.321 45.2316 450.135 45.1935 449.935 45.1935C449.734 45.1935 449.544 45.2316 449.362 45.3079C449.191 45.3843 449.038 45.494 448.904 45.6371C448.771 45.7706 448.661 45.9281 448.575 46.1093C448.499 46.281 448.461 46.4671 448.461 46.6674ZM449.849 38.4104L450.636 38.8683L444.282 49.4579L443.495 49L449.849 38.4104Z" fill="#ACA7A7"/>
<rect x="618" y="30" width="28" height="28" rx="6" fill="#FAFAFA"/>
<circle cx="627" cy="44" r="1.5" fill="#929292"/>
<circle cx="632" cy="44" r="1.5" fill="#929292"/>
<circle cx="637" cy="44" r="1.5" fill="#929292"/>
</svg>
