<svg width="1432" height="738" viewBox="0 0 1432 738" fill="none" xmlns="http://www.w3.org/2000/svg">
<path d="M1438 359C1422.99 378.566 1400 571 1261 571C1141.12 571 1032.09 359.693 935 372.5C837.914 385.308 838.999 447.204 741.999 460C661.495 470.62 534.751 129.788 472.498 138C385.936 149.42 406.804 485.477 298 499.83C217.653 510.429 184.89 372.09 110.999 381.837C37.1082 391.585 -1.4989 553.375 -14.5011 571" stroke="#EBED7B" stroke-width="1.5" stroke-linecap="round"/>
<path d="M470 81L472.874 95.1035L484.141 86.147L477.277 98.7984L491.666 99.1797L478.276 104.459L489.053 114L475.402 109.437L477.524 123.673L470 111.403L462.476 123.673L464.598 109.437L450.947 114L461.724 104.459L448.334 99.1797L462.723 98.7984L455.859 86.147L467.126 95.1035L470 81Z" fill="#EBED7B"/>
<path d="M1215 594L1217.87 608.104L1229.14 599.147L1222.28 611.798L1236.67 612.18L1223.28 617.459L1234.05 627L1220.4 622.437L1222.52 636.673L1215 624.403L1207.48 636.673L1209.6 622.437L1195.95 627L1206.72 617.459L1193.33 612.18L1207.72 611.798L1200.86 599.147L1212.13 608.104L1215 594Z" fill="#EBED7B"/>
<path d="M124.5 0L128.746 20.8348L145.391 7.60356L135.251 26.2931L156.506 26.8564L136.725 34.6557L152.646 48.75L132.479 42.0096L135.616 63.04L124.5 44.9139L113.384 63.04L116.521 42.0096L96.3542 48.75L112.275 34.6557L92.4937 26.8564L113.749 26.2931L103.609 7.60356L120.254 20.8348L124.5 0Z" fill="#EBED7B"/>
<path d="M113 337L114.698 345.334L121.356 340.041L117.3 347.517L125.803 347.743L117.89 350.862L124.258 356.5L116.192 353.804L117.446 362.216L113 354.966L108.554 362.216L109.808 353.804L101.742 356.5L108.11 350.862L100.197 347.743L108.7 347.517L104.644 340.041L111.302 345.334L113 337Z" fill="#EBED7B"/>
</svg>
