<svg width="674" height="88" viewBox="0 0 674 88" fill="none" xmlns="http://www.w3.org/2000/svg">
<rect width="674" height="88" rx="14.02" fill="#F5F5FF"/>
<path fill-rule="evenodd" clip-rule="evenodd" d="M56.0161 59.5868C46.8212 61.8387 37.5428 56.211 35.2908 47.0161C33.0389 37.8212 38.6667 28.5428 47.8615 26.2908C57.0564 24.0389 66.3349 29.6667 68.5868 38.8615C70.8387 48.0564 65.211 57.3349 56.0161 59.5868ZM58.9144 39.0467C58.707 36.7858 56.7581 36.0201 54.2961 35.7937L54.3091 32.6582L52.4015 32.6512L52.3882 35.704C51.8868 35.7011 51.3749 35.7095 50.864 35.7177L50.878 32.6449L48.9702 32.6368L48.957 35.7712C48.5438 35.7775 48.1374 35.7844 47.742 35.782L47.7418 35.7721L45.1096 35.7605L45.1014 37.7985C45.1014 37.7985 46.5113 37.7775 46.4878 37.8031C47.2607 37.8068 47.5098 38.2564 47.5817 38.6447L47.5675 42.2161C47.6205 42.2163 47.6896 42.2193 47.7693 42.2295L47.5674 42.2293L47.5465 47.2328C47.5111 47.4753 47.3666 47.8626 46.8259 47.8615C46.851 47.883 45.4393 47.8559 45.4393 47.8559L45.0506 50.1327L47.5346 50.143C47.9963 50.1458 48.451 50.1557 48.8965 50.1602L48.8844 53.3307L50.791 53.338L50.8039 50.2026C51.3274 50.2145 51.834 50.2205 52.3287 50.2229L52.3148 53.3454L54.2223 53.3524L54.2359 50.1881C57.4455 50.0175 59.6939 49.2187 59.9853 46.207C60.2209 43.7824 59.0843 42.6943 57.2648 42.2499C58.3743 41.6914 59.0694 40.7017 58.9144 39.0467V39.0467ZM56.2157 45.8155C56.2082 48.1853 52.151 47.8985 50.8573 47.8944L50.8762 43.6932C52.1703 43.6994 56.227 43.3444 56.2157 45.8155ZM55.3532 39.8847C55.3442 42.0409 51.9613 41.7742 50.8849 41.7698L50.9006 37.9609C51.977 37.9653 55.3627 37.6357 55.3532 39.8847Z" fill="#1E1E1E"/>
<circle cx="83.8603" cy="45.2194" r="18.2131" fill="#F5F5F6" stroke="#F5F5F6" stroke-width="2.14706"/>
<path fill-rule="evenodd" clip-rule="evenodd" d="M79.9948 61.7671C70.8115 59.4775 65.2238 50.1779 67.5134 40.9947C69.8031 31.8115 79.1026 26.2237 88.2859 28.5134C97.4691 30.803 103.057 40.1026 100.767 49.2858C98.4776 58.469 89.178 64.0568 79.9948 61.7671ZM78.4788 48.5147C78.3583 48.3076 78.1975 48.1268 78.0061 47.9829C77.8146 47.839 77.5962 47.7348 77.3639 47.6766C77.1315 47.6183 76.8899 47.6072 76.6531 47.6438C76.4164 47.6804 76.1894 47.764 75.9855 47.8897C75.569 48.1435 75.2677 48.5551 75.1485 49.0332C75.0293 49.5112 75.1024 50.0151 75.3507 50.4357C75.8661 51.3081 76.9824 51.5854 77.8455 51.0544C78.7086 50.5234 78.9921 49.3866 78.4788 48.5147V48.5147ZM92.9833 39.3162C92.6946 39.1 92.3474 38.976 91.987 38.9602C91.6267 38.9444 91.27 39.0376 90.9634 39.2276C90.5465 39.4842 90.2468 39.8942 90.129 40.3695C90.0101 40.8464 90.0821 41.3501 90.3297 41.7694C90.7057 42.4084 91.427 42.7516 92.155 42.6384C92.883 42.5252 93.477 41.9757 93.6581 41.2493C93.8395 40.5219 93.5725 39.76 92.9831 39.3172L92.9833 39.3162ZM78.5924 47.0717L79.9818 49.4325L82.1192 48.1199C81.7396 47.8398 81.4207 47.4859 81.1815 47.0793C80.9424 46.6727 80.7881 46.2219 80.7278 45.7541L78.5924 47.0717ZM90.2594 43.2067L88.8711 40.8461L86.7326 42.1584C87.1107 42.4348 87.4278 42.7877 87.6676 43.194C87.9068 43.598 88.0614 44.0494 88.1209 44.519L90.2594 43.2067ZM87.4877 51.2818C87.2721 51.5768 87.1472 51.9282 87.1284 52.2931C87.1096 52.658 87.1976 53.0205 87.3818 53.336C87.6291 53.7564 88.0295 54.0583 88.4982 54.1751C88.9658 54.2917 89.4622 54.2135 89.8768 53.9581C90.1876 53.766 90.4356 53.4874 90.5905 53.1565C90.7453 52.8255 90.8003 52.4566 90.7487 52.0949C90.6995 51.7362 90.5443 51.4004 90.3031 51.1304C90.0619 50.8605 89.7456 50.6687 89.3947 50.5795C88.6808 50.4015 87.9284 50.6787 87.4877 51.2818ZM78.584 36.5914C78.3683 36.8863 78.2434 37.2378 78.2246 37.6027C78.2058 37.9675 78.2938 38.33 78.478 38.6456C78.7255 39.0649 79.126 39.3667 79.5947 39.4836C80.0623 39.6002 80.5586 39.522 80.973 39.2677C81.2837 39.0754 81.5317 38.7968 81.6865 38.4659C81.8413 38.135 81.8964 37.7661 81.8449 37.4044C81.7959 37.0456 81.6409 36.7096 81.3997 36.4394C81.1585 36.1693 80.8421 35.9773 80.4911 35.888C79.7772 35.71 79.0249 35.9872 78.584 36.5914ZM86.2132 50.9044L88.5482 49.4722L87.2761 47.3095C87.0032 47.6946 86.6551 48.0204 86.2529 48.2673C85.8506 48.5141 85.4025 48.6769 84.9356 48.7459L86.2132 50.9044ZM82.685 39.1967L80.3497 40.6299L81.6218 42.7926C81.8982 42.4057 82.2479 42.0789 82.6493 41.8324C83.0497 41.5857 83.4948 41.4251 83.9569 41.3604L82.685 39.1967ZM86.126 38.4199C87.1008 38.663 88.0934 38.055 88.3414 37.0605C88.4603 36.5836 88.3875 36.0786 88.141 35.6595C88.0198 35.4523 87.8584 35.2714 87.6662 35.1274C87.4741 34.9834 87.2552 34.8792 87.0222 34.821C86.0465 34.5777 85.0548 35.1859 84.8071 36.1793C84.5594 37.1728 85.1492 38.1764 86.125 38.4197L86.126 38.4199ZM84.0565 54.2465C84.1756 53.7685 84.1026 53.2646 83.8563 52.8445C83.7352 52.6374 83.5739 52.4566 83.382 52.3126C83.1901 52.1687 82.9713 52.0645 82.7386 52.0062C81.7628 51.7629 80.7712 52.3711 80.5232 53.3656C80.2753 54.3601 80.8656 55.3616 81.8413 55.6049C82.8171 55.8481 83.8088 55.24 84.0565 54.2465ZM86.5325 39.5213L85.4205 39.2441L84.865 41.4721C85.249 41.4988 85.6254 41.5926 85.977 41.7493L86.5325 39.5213ZM84.1457 49.0942C83.7617 49.0675 83.3853 48.9737 83.0337 48.817L82.478 51.046L83.5899 51.3233L84.1457 49.0942ZM90.5654 46.9508C90.6041 47.2497 90.717 47.534 90.8939 47.7779C91.0709 48.0219 91.3061 48.2175 91.5781 48.3471C91.8502 48.4766 92.1504 48.5359 92.4513 48.5194C92.7521 48.503 93.0441 48.4114 93.3004 48.2531C93.7172 47.9982 94.0164 47.5861 94.1353 47.1091C94.3167 46.3817 94.0502 45.6176 93.4587 45.1744C93.1698 44.9583 92.8224 44.8342 92.462 44.8184C92.1015 44.8025 91.7446 44.8956 91.4378 45.0855C91.1267 45.2778 90.8784 45.5567 90.7234 45.8881C90.5685 46.2194 90.5136 46.5887 90.5654 46.9508V46.9508ZM74.3147 42.4918C74.067 43.4852 74.6571 44.4878 75.6328 44.7311C76.1005 44.8477 76.5976 44.7707 77.0133 44.5156C77.4287 44.2616 77.728 43.8494 77.8469 43.3724C78.0949 42.3779 77.5048 41.3754 76.5288 41.1332C75.554 40.8901 74.5614 41.4981 74.3147 42.4918ZM89.8475 46.9661L90.1302 45.8323L87.9448 45.2875C87.9149 45.6774 87.8193 46.0608 87.6626 46.4191L89.8475 46.9661ZM80.8658 44.7267C80.8955 44.3359 80.991 43.953 81.1483 43.594L78.9608 43.0486L78.6784 44.1813L80.8658 44.7267ZM83.757 47.6959C85.1391 48.0405 86.5461 47.1783 86.8972 45.7702C87.2475 44.3608 86.4107 42.9403 85.0289 42.5946C83.6457 42.2498 82.2397 43.1122 81.8884 44.5214C81.537 45.9305 82.3738 47.3511 83.757 47.6959Z" fill="#1E1E1E"/>
<path d="M130.679 36.4911H134.8C135.36 36.4911 135.907 36.5483 136.441 36.6628C136.976 36.7773 137.453 36.9681 137.872 37.2352C138.292 37.4896 138.629 37.8267 138.884 38.2465C139.151 38.6662 139.284 39.1878 139.284 39.8111C139.284 40.5997 139.068 41.2548 138.636 41.7763C138.216 42.2852 137.643 42.6477 136.918 42.8639V42.9021C137.351 42.9402 137.752 43.0547 138.12 43.2455C138.502 43.4236 138.826 43.6589 139.094 43.9515C139.373 44.2441 139.59 44.5875 139.742 44.9819C139.895 45.3635 139.971 45.7769 139.971 46.2221C139.971 46.9726 139.812 47.5895 139.494 48.0729C139.189 48.5562 138.782 48.9442 138.273 49.2368C137.777 49.5166 137.211 49.7138 136.575 49.8283C135.952 49.9428 135.328 50 134.705 50H130.679V36.4911ZM132.282 42.2152H134.495C134.877 42.2152 135.246 42.1897 135.602 42.1389C135.971 42.088 136.301 41.9862 136.594 41.8336C136.887 41.6682 137.122 41.4456 137.3 41.1658C137.478 40.8732 137.567 40.4916 137.567 40.0209C137.567 39.6012 137.484 39.2641 137.319 39.0097C137.154 38.7426 136.931 38.5327 136.651 38.38C136.384 38.2274 136.072 38.1256 135.716 38.0747C135.373 38.0111 135.023 37.9793 134.667 37.9793H132.282V42.2152ZM132.282 48.5117H134.991C135.386 48.5117 135.774 48.4736 136.155 48.3972C136.549 48.3082 136.899 48.1746 137.205 47.9966C137.523 47.8058 137.777 47.5641 137.968 47.2715C138.159 46.9662 138.254 46.5973 138.254 46.1648C138.254 45.6942 138.159 45.2999 137.968 44.9819C137.79 44.6638 137.548 44.4094 137.243 44.2186C136.95 44.0278 136.607 43.8943 136.212 43.8179C135.831 43.7416 135.436 43.7035 135.029 43.7035H132.282V48.5117ZM151.761 37.9793H147.296V50H145.693V37.9793H141.228V36.4911H151.761V37.9793ZM163.118 39.2768C162.711 38.7298 162.208 38.3228 161.61 38.0557C161.013 37.7758 160.389 37.6359 159.74 37.6359C158.99 37.6359 158.297 37.7885 157.661 38.0938C157.037 38.3991 156.497 38.8125 156.039 39.334C155.581 39.8429 155.225 40.4407 154.97 41.1276C154.716 41.8018 154.589 42.5078 154.589 43.2455C154.589 44.0342 154.716 44.772 154.97 45.4589C155.225 46.133 155.575 46.7245 156.02 47.2333C156.478 47.7294 157.018 48.1238 157.642 48.4163C158.278 48.7089 158.977 48.8552 159.74 48.8552C160.567 48.8552 161.305 48.6962 161.954 48.3782C162.603 48.0474 163.169 47.5768 163.652 46.9662L164.854 47.9775C164.243 48.7916 163.506 49.3894 162.641 49.771C161.788 50.1526 160.822 50.3434 159.74 50.3434C158.774 50.3434 157.871 50.1654 157.031 49.8092C156.192 49.453 155.46 48.9633 154.837 48.34C154.226 47.704 153.743 46.9535 153.387 46.0885C153.043 45.2235 152.872 44.2759 152.872 43.2455C152.872 42.2534 153.037 41.3248 153.368 40.4598C153.711 39.5948 154.188 38.8443 154.799 38.2083C155.409 37.5723 156.134 37.0698 156.974 36.7009C157.813 36.3321 158.736 36.1476 159.74 36.1476C160.656 36.1476 161.534 36.313 162.374 36.6437C163.226 36.9744 163.938 37.515 164.511 38.2655L163.118 39.2768ZM170.72 44.7338H189.8V46.1076H170.72V44.7338ZM201.178 36.4911H202.686L208.429 50H206.559L205.185 46.68H198.431L197.038 50H195.225L201.178 36.4911ZM201.903 38.5518H201.865L199.06 45.1917H204.575L201.903 38.5518ZM209.976 36.4911H215.166C215.611 36.4911 216.082 36.5419 216.578 36.6437C217.074 36.7455 217.564 36.9108 218.047 37.1398C218.543 37.356 219.014 37.6423 219.459 37.9984C219.917 38.3546 220.318 38.7871 220.661 39.2959C221.005 39.792 221.278 40.3707 221.482 41.0322C221.685 41.6809 221.787 42.4187 221.787 43.2455C221.787 44.0724 221.685 44.8165 221.482 45.4779C221.278 46.1267 221.005 46.7054 220.661 47.2143C220.318 47.7103 219.917 48.1365 219.459 48.4926C219.014 48.8488 218.543 49.1414 218.047 49.3703C217.564 49.5866 217.074 49.7456 216.578 49.8474C216.082 49.9491 215.611 50 215.166 50H209.976V36.4911ZM211.579 48.5117H214.632C215.408 48.5117 216.126 48.41 216.788 48.2064C217.449 48.0029 218.022 47.6913 218.505 47.2715C218.989 46.839 219.37 46.292 219.65 45.6306C219.93 44.9691 220.07 44.1741 220.07 43.2455C220.07 42.317 219.93 41.5219 219.65 40.8605C219.37 40.199 218.989 39.6584 218.505 39.2386C218.022 38.8062 217.449 38.4881 216.788 38.2846C216.126 38.0811 215.408 37.9793 214.632 37.9793H211.579V48.5117ZM228.755 36.4911H230.263L236.006 50H234.136L232.762 46.68H226.008L224.615 50H222.802L228.755 36.4911ZM229.48 38.5518H229.442L226.637 45.1917H232.152L229.48 38.5518Z" fill="#ACA7A7"/>
<path d="M374.551 38.8683H375.681L379.989 49H378.586L377.556 46.51H372.49L371.445 49H370.086L374.551 38.8683ZM375.094 40.4138H375.066L372.962 45.3938H377.098L375.094 40.4138ZM381.335 38.8683H383.925C384.412 38.8683 384.894 38.8969 385.371 38.9542C385.857 39.0114 386.291 39.1354 386.673 39.3262C387.055 39.517 387.365 39.7985 387.603 40.1705C387.842 40.5331 387.961 41.0292 387.961 41.6588C387.961 42.4029 387.737 43.004 387.288 43.4619C386.84 43.9198 386.22 44.2108 385.428 44.3348L388.304 49H386.83L384.083 44.4493H382.537V49H381.335V38.8683ZM382.537 43.3331H383.611C383.944 43.3331 384.288 43.3236 384.641 43.3045C385.003 43.2854 385.333 43.2234 385.628 43.1185C385.934 43.0135 386.182 42.8513 386.372 42.6319C386.573 42.4029 386.673 42.0786 386.673 41.6588C386.673 41.2963 386.601 41.0053 386.458 40.7859C386.315 40.5665 386.124 40.3995 385.886 40.285C385.657 40.161 385.395 40.0799 385.099 40.0417C384.813 40.0036 384.522 39.9845 384.226 39.9845H382.537V43.3331ZM390.084 38.8683H393.089C393.556 38.8683 394 38.916 394.42 39.0114C394.849 39.0973 395.226 39.2499 395.55 39.4693C395.884 39.6792 396.146 39.9654 396.337 40.328C396.537 40.6809 396.638 41.1198 396.638 41.6445C396.638 42.1978 396.533 42.6558 396.323 43.0183C396.113 43.3808 395.841 43.667 395.507 43.8769C395.183 44.0868 394.825 44.2347 394.434 44.3205C394.043 44.4064 393.671 44.4493 393.318 44.4493H391.286V49H390.084V38.8683ZM391.286 43.3331H393.318C393.919 43.3331 394.405 43.1996 394.777 42.9324C395.159 42.6558 395.35 42.2312 395.35 41.6588C395.35 41.0864 395.159 40.6666 394.777 40.3995C394.405 40.1228 393.919 39.9845 393.318 39.9845H391.286V43.3331ZM399.296 42.1311C399.535 42.1311 399.735 42.2169 399.897 42.3886C400.069 42.5508 400.155 42.7512 400.155 42.9897C400.155 43.2282 400.064 43.4333 399.883 43.605C399.711 43.7672 399.516 43.8483 399.296 43.8483C399.077 43.8483 398.876 43.7672 398.695 43.605C398.523 43.4333 398.437 43.2282 398.437 42.9897C398.437 42.7512 398.519 42.5508 398.681 42.3886C398.852 42.2169 399.058 42.1311 399.296 42.1311ZM399.296 47.3686C399.535 47.3686 399.735 47.4545 399.897 47.6262C400.069 47.7884 400.155 47.9887 400.155 48.2272C400.155 48.4657 400.064 48.6709 399.883 48.8426C399.711 49.0048 399.516 49.0859 399.296 49.0859C399.077 49.0859 398.876 49.0048 398.695 48.8426C398.523 48.6709 398.437 48.4657 398.437 48.2272C398.437 47.9887 398.519 47.7884 398.681 47.6262C398.852 47.4545 399.058 47.3686 399.296 47.3686ZM410.424 49H409.222V40.4138H409.194L407.376 41.945L406.661 41.0721L409.38 38.8683H410.424V49ZM419.22 45.5655H420.68V46.6817H419.22V49H418.018V46.6817H413.725V45.3509L417.746 38.8683H419.22V45.5655ZM418.018 40.2707H417.99L414.756 45.5655H418.018V40.2707ZM426.213 44.7785L426.185 44.7498C425.994 44.8548 425.77 44.9311 425.512 44.9788C425.264 45.0265 425.035 45.0504 424.825 45.0504C424.386 45.0504 423.976 44.974 423.595 44.8214C423.223 44.6687 422.898 44.4541 422.621 44.1774C422.354 43.8912 422.144 43.5573 421.992 43.1757C421.839 42.7846 421.763 42.3505 421.763 41.8735C421.763 41.3774 421.849 40.9338 422.02 40.5426C422.192 40.1515 422.431 39.8223 422.736 39.5552C423.041 39.2785 423.399 39.0686 423.809 38.9255C424.229 38.7729 424.677 38.6966 425.154 38.6966C425.631 38.6966 426.075 38.7729 426.485 38.9255C426.905 39.0686 427.268 39.2785 427.573 39.5552C427.878 39.8223 428.117 40.1515 428.288 40.5426C428.46 40.9338 428.546 41.3774 428.546 41.8735C428.546 42.1692 428.522 42.4411 428.474 42.6892C428.427 42.9372 428.36 43.1757 428.274 43.4047C428.188 43.6336 428.083 43.8578 427.959 44.0773C427.845 44.2871 427.721 44.5018 427.587 44.7212L424.897 49H423.494L426.213 44.7785ZM425.154 44.02C425.46 44.02 425.746 43.9723 426.013 43.8769C426.28 43.772 426.509 43.6289 426.7 43.4476C426.9 43.2568 427.058 43.0326 427.172 42.775C427.287 42.5079 427.344 42.2074 427.344 41.8735C427.344 41.5491 427.287 41.2534 427.172 40.9862C427.058 40.7191 426.9 40.4949 426.7 40.3136C426.509 40.1228 426.28 39.9797 426.013 39.8843C425.746 39.7794 425.46 39.7269 425.154 39.7269C424.849 39.7269 424.563 39.7794 424.296 39.8843C424.029 39.9797 423.795 40.1228 423.595 40.3136C423.404 40.4949 423.251 40.7191 423.137 40.9862C423.022 41.2534 422.965 41.5491 422.965 41.8735C422.965 42.2074 423.022 42.5079 423.137 42.775C423.251 43.0326 423.404 43.2568 423.595 43.4476C423.795 43.6289 424.029 43.772 424.296 43.8769C424.563 43.9723 424.849 44.02 425.154 44.02ZM431.117 47.3686C431.355 47.3686 431.556 47.4545 431.718 47.6262C431.89 47.7884 431.976 47.9887 431.976 48.2272C431.976 48.4657 431.885 48.6709 431.704 48.8426C431.532 49.0048 431.336 49.0859 431.117 49.0859C430.898 49.0859 430.697 49.0048 430.516 48.8426C430.344 48.6709 430.258 48.4657 430.258 48.2272C430.258 47.9887 430.339 47.7884 430.502 47.6262C430.673 47.4545 430.878 47.3686 431.117 47.3686ZM438.148 44.7785L438.119 44.7498C437.929 44.8548 437.704 44.9311 437.447 44.9788C437.199 45.0265 436.97 45.0504 436.76 45.0504C436.321 45.0504 435.911 44.974 435.529 44.8214C435.157 44.6687 434.833 44.4541 434.556 44.1774C434.289 43.8912 434.079 43.5573 433.926 43.1757C433.774 42.7846 433.697 42.3505 433.697 41.8735C433.697 41.3774 433.783 40.9338 433.955 40.5426C434.127 40.1515 434.365 39.8223 434.671 39.5552C434.976 39.2785 435.334 39.0686 435.744 38.9255C436.164 38.7729 436.612 38.6966 437.089 38.6966C437.566 38.6966 438.01 38.7729 438.42 38.9255C438.84 39.0686 439.202 39.2785 439.507 39.5552C439.813 39.8223 440.051 40.1515 440.223 40.5426C440.395 40.9338 440.481 41.3774 440.481 41.8735C440.481 42.1692 440.457 42.4411 440.409 42.6892C440.361 42.9372 440.294 43.1757 440.209 43.4047C440.123 43.6336 440.018 43.8578 439.894 44.0773C439.779 44.2871 439.655 44.5018 439.522 44.7212L436.831 49H435.429L438.148 44.7785ZM437.089 44.02C437.394 44.02 437.68 43.9723 437.948 43.8769C438.215 43.772 438.444 43.6289 438.634 43.4476C438.835 43.2568 438.992 43.0326 439.107 42.775C439.221 42.5079 439.278 42.2074 439.278 41.8735C439.278 41.5491 439.221 41.2534 439.107 40.9862C438.992 40.7191 438.835 40.4949 438.634 40.3136C438.444 40.1228 438.215 39.9797 437.948 39.8843C437.68 39.7794 437.394 39.7269 437.089 39.7269C436.784 39.7269 436.497 39.7794 436.23 39.8843C435.963 39.9797 435.729 40.1228 435.529 40.3136C435.338 40.4949 435.186 40.7191 435.071 40.9862C434.957 41.2534 434.899 41.5491 434.899 41.8735C434.899 42.2074 434.957 42.5079 435.071 42.775C435.186 43.0326 435.338 43.2568 435.529 43.4476C435.729 43.6289 435.963 43.772 436.23 43.8769C436.497 43.9723 436.784 44.02 437.089 44.02ZM441.606 41.2009C441.606 40.8479 441.668 40.5188 441.792 40.2135C441.926 39.9082 442.102 39.6458 442.322 39.4264C442.551 39.1974 442.818 39.0209 443.123 38.8969C443.428 38.7634 443.758 38.6966 444.111 38.6966C444.464 38.6966 444.793 38.7634 445.098 38.8969C445.403 39.0209 445.666 39.1974 445.885 39.4264C446.114 39.6458 446.29 39.9082 446.414 40.2135C446.548 40.5188 446.615 40.8479 446.615 41.2009C446.615 41.5539 446.548 41.883 446.414 42.1883C446.29 42.4936 446.114 42.7607 445.885 42.9897C445.666 43.2091 445.403 43.3856 445.098 43.5192C444.793 43.6432 444.464 43.7052 444.111 43.7052C443.758 43.7052 443.428 43.6432 443.123 43.5192C442.818 43.3856 442.551 43.2091 442.322 42.9897C442.102 42.7607 441.926 42.4936 441.792 42.1883C441.668 41.883 441.606 41.5539 441.606 41.2009ZM442.637 41.2009C442.637 41.4012 442.675 41.592 442.751 41.7733C442.837 41.945 442.947 42.1024 443.08 42.2455C443.214 42.3791 443.366 42.484 443.538 42.5604C443.719 42.6367 443.91 42.6748 444.111 42.6748C444.311 42.6748 444.497 42.6367 444.669 42.5604C444.85 42.484 445.007 42.3791 445.141 42.2455C445.274 42.1024 445.379 41.945 445.456 41.7733C445.542 41.592 445.584 41.4012 445.584 41.2009C445.584 41.0005 445.542 40.8145 445.456 40.6428C445.379 40.4615 445.274 40.3041 445.141 40.1705C445.007 40.0274 444.85 39.9177 444.669 39.8414C444.497 39.7651 444.311 39.7269 444.111 39.7269C443.91 39.7269 443.719 39.7651 443.538 39.8414C443.366 39.9177 443.214 40.0274 443.08 40.1705C442.947 40.3041 442.837 40.4615 442.751 40.6428C442.675 40.8145 442.637 41.0005 442.637 41.2009ZM447.431 46.6674C447.431 46.3144 447.493 45.9853 447.617 45.68C447.75 45.3747 447.927 45.1124 448.146 44.8929C448.375 44.664 448.642 44.4875 448.947 44.3635C449.253 44.2299 449.582 44.1631 449.935 44.1631C450.288 44.1631 450.617 44.2299 450.922 44.3635C451.228 44.4875 451.49 44.664 451.709 44.8929C451.938 45.1124 452.115 45.3747 452.239 45.68C452.372 45.9853 452.439 46.3144 452.439 46.6674C452.439 47.0204 452.372 47.3495 452.239 47.6548C452.115 47.9601 451.938 48.2272 451.709 48.4562C451.49 48.6756 451.228 48.8521 450.922 48.9857C450.617 49.1097 450.288 49.1717 449.935 49.1717C449.582 49.1717 449.253 49.1097 448.947 48.9857C448.642 48.8521 448.375 48.6756 448.146 48.4562C447.927 48.2272 447.75 47.9601 447.617 47.6548C447.493 47.3495 447.431 47.0204 447.431 46.6674ZM448.461 46.6674C448.461 46.8678 448.499 47.0586 448.575 47.2398C448.661 47.4116 448.771 47.569 448.904 47.7121C449.038 47.8456 449.191 47.9506 449.362 48.0269C449.544 48.1032 449.734 48.1414 449.935 48.1414C450.135 48.1414 450.321 48.1032 450.493 48.0269C450.674 47.9506 450.832 47.8456 450.965 47.7121C451.099 47.569 451.204 47.4116 451.28 47.2398C451.366 47.0586 451.409 46.8678 451.409 46.6674C451.409 46.4671 451.366 46.281 451.28 46.1093C451.204 45.9281 451.099 45.7706 450.965 45.6371C450.832 45.494 450.674 45.3843 450.493 45.3079C450.321 45.2316 450.135 45.1935 449.935 45.1935C449.734 45.1935 449.544 45.2316 449.362 45.3079C449.191 45.3843 449.038 45.494 448.904 45.6371C448.771 45.7706 448.661 45.9281 448.575 46.1093C448.499 46.281 448.461 46.4671 448.461 46.6674ZM449.849 38.4104L450.636 38.8683L444.282 49.4579L443.495 49L449.849 38.4104Z" fill="#ACA7A7"/>
<rect x="618" y="30" width="28" height="28" rx="6" fill="#FAFAFA"/>
<circle cx="627" cy="44" r="1.5" fill="#929292"/>
<circle cx="632" cy="44" r="1.5" fill="#929292"/>
<circle cx="637" cy="44" r="1.5" fill="#929292"/>
</svg>
