<svg width="1563" height="791" viewBox="0 0 1563 791" fill="none" xmlns="http://www.w3.org/2000/svg">
<path d="M1505.22 127C1473.72 266.5 1313.78 228.632 1216.7 241.44C1119.61 254.248 1303.2 477.701 1216.7 504.94C1136.19 515.56 1009.99 311.938 806.219 417.5C645.217 500.906 613.221 671 706.721 671C859.22 671 605.22 226.427 350.721 260C96.2231 293.573 77.7227 414.875 64.7205 432.5" stroke="#ED7CA4" stroke-width="1.5" stroke-linecap="round"/>
<g filter="url(#filter0_f_55_19565)">
<path d="M285.905 204.645C261.454 237.181 268.009 283.382 300.545 307.833C333.081 332.285 379.282 325.73 403.733 293.194C428.185 260.658 421.63 214.457 389.094 190.005C356.558 165.554 310.357 172.109 285.905 204.645ZM380.763 249.452C381.959 254.372 381.554 259.303 379.688 264.008C378.873 266.051 379.187 267.501 381.03 268.734C382.83 269.973 384.497 271.34 386.224 272.676C387.776 273.842 387.999 275.261 386.899 276.825C386.176 277.837 385.454 278.85 384.707 279.844C384.051 280.716 383.395 281.589 382.715 282.444C381.451 284.074 379.923 284.139 378.323 282.937C377.044 282.014 375.759 281.048 374.498 280.101C371.668 278.011 371.498 278.035 369.039 280.399C365.894 283.422 362.567 286.233 358.671 288.237C355.601 289.799 354.794 289.61 352.704 286.94C351.166 284.949 349.627 282.958 348.167 280.912C347.089 279.419 346.768 278.533 347.333 277.782C347.661 277.345 348.298 276.952 349.251 276.491C353.693 274.367 357.499 271.423 360.917 267.884C361.482 267.284 362.022 266.666 362.514 266.011C363.881 264.193 364.871 262.168 365.413 259.882C366.784 254.121 362.275 249.67 356.518 251.072C354.57 251.543 352.744 252.409 350.978 253.396C346.444 255.945 342.214 258.949 337.359 260.916C329.495 264.111 321.95 264.207 315.198 258.45C307.562 251.953 305.975 243.666 308.829 234.315C310.015 230.465 310.058 230.459 306.906 228.09C305.839 227.288 304.754 226.511 303.7 225.643C301.378 223.784 301.258 223.087 302.97 220.656C303.171 220.389 303.39 220.098 303.59 219.832C303.936 219.371 304.282 218.911 304.628 218.45C304.774 218.256 304.92 218.062 305.048 217.892C308.436 213.383 308.63 213.529 313.522 217.167C317.128 219.839 317.128 219.839 320.364 216.694C322.859 214.282 325.609 212.289 328.619 210.606C330.264 209.68 331.634 209.875 332.785 211.423C334.494 213.693 336.244 215.957 337.892 218.258C338.873 219.678 339.17 220.546 338.587 221.321C338.259 221.758 337.688 222.164 336.838 222.587C332.518 224.803 328.942 227.845 326.063 231.675C325.699 232.16 325.341 232.687 325 233.191C324.217 234.385 323.524 235.609 323.183 237.022C321.989 242.043 325.704 245.783 330.697 244.49C333.227 243.85 335.551 242.675 337.791 241.361C341.687 239.054 345.535 236.71 349.667 234.846C362.75 229.048 377.471 235.862 380.763 249.452Z" fill="#FF8CAE"/>
</g>
<g filter="url(#filter1_bii_55_19565)">
<path d="M241.138 166.354C213.683 202.886 221.043 254.762 257.575 282.216C294.107 309.67 345.983 302.311 373.437 265.779C400.891 229.247 393.532 177.371 357 149.917C320.467 122.463 268.592 129.822 241.138 166.354ZM347.645 216.664C348.989 222.189 348.534 227.725 346.438 233.008C345.523 235.302 345.876 236.93 347.945 238.315C349.966 239.706 351.837 241.24 353.777 242.74C355.519 244.05 355.77 245.644 354.535 247.399C353.724 248.536 352.912 249.673 352.073 250.789C351.337 251.769 350.6 252.749 349.837 253.708C348.418 255.539 346.702 255.612 344.905 254.262C343.469 253.225 342.027 252.141 340.611 251.077C337.433 248.731 337.242 248.758 334.481 251.412C330.95 254.807 327.215 257.963 322.841 260.213C319.393 261.967 318.487 261.755 316.14 258.756C314.413 256.521 312.685 254.285 311.046 251.989C309.835 250.312 309.475 249.317 310.109 248.473C310.478 247.983 311.193 247.541 312.263 247.025C317.251 244.639 321.524 241.333 325.362 237.36C325.996 236.686 326.603 235.992 327.155 235.257C328.69 233.216 329.802 230.942 330.411 228.375C331.949 221.907 326.887 216.91 320.422 218.483C318.236 219.012 316.185 219.984 314.202 221.093C309.112 223.955 304.361 227.328 298.911 229.536C290.081 233.124 281.609 233.231 274.028 226.768C265.454 219.472 263.672 210.167 266.876 199.669C268.208 195.345 268.256 195.339 264.717 192.679C263.519 191.779 262.301 190.906 261.117 189.931C258.511 187.844 258.375 187.061 260.298 184.332C260.524 184.033 260.769 183.706 260.994 183.406C261.383 182.889 261.771 182.372 262.16 181.855C262.324 181.637 262.487 181.419 262.631 181.229C266.436 176.165 266.654 176.329 272.146 180.414C276.195 183.414 276.195 183.414 279.828 179.883C282.63 177.175 285.717 174.938 289.097 173.048C290.944 172.007 292.483 172.227 293.775 173.965C295.693 176.514 297.659 179.056 299.509 181.639C300.611 183.234 300.943 184.208 300.289 185.079C299.921 185.569 299.28 186.025 298.326 186.5C293.475 188.988 289.46 192.403 286.228 196.704C285.818 197.249 285.416 197.841 285.034 198.406C284.154 199.747 283.377 201.122 282.994 202.708C281.653 208.346 285.824 212.545 291.43 211.093C294.271 210.374 296.881 209.055 299.395 207.58C303.77 204.989 308.091 202.358 312.73 200.265C327.42 193.754 343.949 201.405 347.645 216.664Z" fill="white" fill-opacity="0.7"/>
</g>
<g filter="url(#filter2_f_55_19565)">
<path fill-rule="evenodd" clip-rule="evenodd" d="M626.091 602.178C601.899 602.69 581.87 583.238 581.351 558.728C580.832 534.218 600.021 513.936 624.213 513.424C648.404 512.913 668.434 532.365 668.952 556.875C669.471 581.385 650.282 601.667 626.091 602.178ZM630.284 551.569L630.145 545.007L644.966 544.693L644.754 534.686L604.4 535.54L604.612 545.547L619.433 545.233L619.572 551.793C607.538 552.608 598.531 555.218 598.592 558.114C598.654 561.009 607.763 563.233 619.82 563.542L620.265 584.571L630.977 584.344L630.532 563.309C642.546 562.495 651.532 559.888 651.471 556.995C651.409 554.102 642.322 551.877 630.284 551.569ZM630.494 561.526L630.494 561.52C630.194 561.549 628.643 561.676 625.18 561.749C622.416 561.808 620.467 561.766 619.782 561.747L619.782 561.755C609.129 561.506 601.145 559.797 601.097 557.55C601.05 555.306 608.954 553.26 619.588 552.553L619.743 559.886C620.439 559.921 622.435 559.998 625.189 559.94C628.493 559.87 630.146 559.696 630.455 559.662L630.3 552.332C640.932 552.587 648.897 554.297 648.944 556.538C648.992 558.784 641.106 560.824 630.494 561.526V561.526Z" fill="#FF8CAE" fill-opacity="0.9"/>
</g>
<g filter="url(#filter3_bii_55_19565)">
<path fill-rule="evenodd" clip-rule="evenodd" d="M637.702 583.572C613.51 584.084 593.481 564.631 592.962 540.121C592.444 515.611 611.632 495.33 635.824 494.818C660.016 494.306 680.045 513.758 680.564 538.268C681.082 562.778 661.894 583.06 637.702 583.572ZM641.895 532.962L641.756 526.4L656.577 526.086L656.366 516.079L616.011 516.933L616.223 526.94L631.044 526.627L631.183 533.186C619.15 534.001 610.142 536.611 610.204 539.507C610.265 542.403 619.374 544.627 631.432 544.935L631.877 565.964L642.589 565.737L642.143 544.703C654.158 543.888 663.143 541.281 663.082 538.388C663.021 535.495 653.933 533.271 641.895 532.962ZM642.106 542.919L642.106 542.914C641.805 542.942 640.255 543.069 636.792 543.143C634.027 543.201 632.079 543.159 631.394 543.14L631.394 543.149C620.74 542.9 612.756 541.19 612.709 538.943C612.661 536.7 620.566 534.654 631.199 533.946L631.354 541.279C632.051 541.314 634.046 541.392 636.8 541.333C640.104 541.263 641.758 541.09 642.066 541.055L641.911 533.725C652.543 533.98 660.508 535.69 660.555 537.931C660.603 540.178 652.717 542.217 642.106 542.919V542.919Z" fill="white" fill-opacity="0.7"/>
</g>
<g filter="url(#filter4_f_55_19565)">
<path fill-rule="evenodd" clip-rule="evenodd" d="M549.937 357.933C528.554 357.933 511.221 340.6 511.221 319.217C511.221 297.833 528.554 280.5 549.937 280.5C571.321 280.5 588.654 297.833 588.654 319.217C588.654 340.6 571.321 357.933 549.937 357.933ZM539.37 329.709C538.993 329.321 538.542 329.012 538.043 328.801C537.545 328.591 537.009 328.482 536.468 328.481C535.927 328.48 535.391 328.588 534.892 328.798C534.393 329.007 533.941 329.315 533.563 329.702C532.788 330.486 532.353 331.553 532.353 332.666C532.353 333.779 532.788 334.844 533.563 335.63C535.169 337.261 537.768 337.259 539.37 335.623C540.972 333.987 540.972 331.34 539.37 329.709V329.709ZM566.14 301.615C565.389 301.299 564.56 301.217 563.762 301.379C562.963 301.542 562.232 301.941 561.664 302.525C560.89 303.315 560.457 304.378 560.459 305.484C560.459 306.595 560.892 307.66 561.664 308.444C562.837 309.639 564.606 309.997 566.14 309.351C567.674 308.705 568.676 307.176 568.676 305.484C568.676 303.79 567.674 302.266 566.14 301.618V301.615ZM538.831 326.483L543.167 330.899L547.135 326.854C546.15 326.447 545.257 325.846 544.511 325.085C543.764 324.324 543.18 323.42 542.792 322.428L538.831 326.483ZM562.295 311.633L557.961 307.217L553.991 311.263C554.971 311.662 555.859 312.262 556.606 313.022C557.352 313.777 557.937 314.682 558.324 315.679L562.295 311.633ZM560.633 330.851C560.321 331.616 560.24 332.454 560.398 333.264C560.556 334.075 560.947 334.821 561.523 335.412C562.295 336.199 563.338 336.642 564.43 336.642C565.518 336.642 566.564 336.199 567.333 335.412C567.91 334.821 568.301 334.075 568.46 333.265C568.618 332.455 568.537 331.616 568.226 330.851C567.922 330.092 567.398 329.44 566.722 328.98C566.046 328.52 565.247 328.273 564.43 328.269C562.767 328.269 561.269 329.288 560.633 330.851ZM533.084 303.512C532.772 304.277 532.69 305.115 532.849 305.926C533.007 306.736 533.398 307.482 533.974 308.074C534.746 308.858 535.789 309.3 536.88 309.3C537.969 309.3 539.014 308.858 539.784 308.074C540.36 307.482 540.751 306.736 540.91 305.926C541.068 305.116 540.987 304.277 540.677 303.512C540.373 302.752 539.85 302.1 539.173 301.64C538.497 301.18 537.698 300.932 536.88 300.928C535.218 300.928 533.72 301.947 533.084 303.512ZM557.632 330.72L561.969 326.304L557.998 322.258C557.61 323.252 557.025 324.156 556.278 324.917C555.531 325.678 554.638 326.28 553.652 326.687L557.632 330.72ZM543.498 306.982L539.162 311.401L543.133 315.447C543.527 314.447 544.115 313.54 544.861 312.78C545.604 312.02 546.492 311.425 547.469 311.031L543.498 306.982ZM550.617 303.398C552.887 303.398 554.731 301.523 554.731 299.207C554.731 298.097 554.295 297.03 553.526 296.246C553.147 295.858 552.694 295.549 552.194 295.338C551.694 295.128 551.157 295.019 550.615 295.019C548.343 295.019 546.501 296.894 546.501 299.207C546.501 301.521 548.343 303.398 550.615 303.398H550.617ZM554.731 339.226C554.731 338.113 554.295 337.048 553.526 336.262C553.147 335.874 552.695 335.566 552.195 335.355C551.696 335.144 551.159 335.035 550.617 335.035C548.345 335.035 546.504 336.91 546.504 339.226C546.504 341.542 548.345 343.415 550.617 343.415C552.89 343.415 554.731 341.539 554.731 339.226ZM552.11 305.591H549.521V310.779C550.378 310.628 551.254 310.628 552.11 310.779V305.591ZM552.11 327.882C551.254 328.033 550.378 328.033 549.521 327.882V333.072H552.11V327.882ZM565.013 319.674C565.261 320.308 565.664 320.87 566.185 321.308C566.706 321.746 567.329 322.046 567.996 322.181C568.663 322.317 569.354 322.283 570.004 322.082C570.655 321.882 571.245 321.521 571.72 321.034C572.495 320.247 572.925 319.18 572.925 318.07C572.925 316.376 571.924 314.847 570.385 314.198C569.633 313.882 568.804 313.8 568.005 313.962C567.206 314.125 566.474 314.524 565.906 315.108C565.329 315.7 564.937 316.447 564.778 317.258C564.62 318.069 564.701 318.909 565.013 319.674V319.674ZM526.949 318.781C526.949 321.094 528.791 322.97 531.063 322.97C532.152 322.97 533.2 322.529 533.972 321.743C534.743 320.959 535.174 319.892 535.174 318.781C535.174 316.465 533.333 314.59 531.061 314.592C528.791 314.592 526.947 316.468 526.949 318.781ZM563.447 320.1V317.46H558.358C558.506 318.331 558.506 319.224 558.358 320.095L563.447 320.1ZM542.533 320.1C542.384 319.227 542.384 318.335 542.533 317.462H537.439V320.1H542.533ZM550.494 325.029C553.712 325.029 556.326 322.37 556.326 319.091C556.323 315.81 553.712 313.153 550.494 313.15C547.273 313.15 544.662 315.81 544.662 319.091C544.662 322.372 547.273 325.029 550.494 325.029Z" fill="#FF8CAE" fill-opacity="0.9"/>
</g>
<g filter="url(#filter5_bii_55_19565)">
<path fill-rule="evenodd" clip-rule="evenodd" d="M563.146 335.85C539.438 335.85 520.221 316.633 520.221 292.925C520.221 269.217 539.438 250 563.146 250C586.854 250 606.071 269.217 606.071 292.925C606.071 316.633 586.854 335.85 563.146 335.85ZM551.43 304.558C551.012 304.128 550.511 303.785 549.959 303.552C549.406 303.318 548.812 303.197 548.212 303.196C547.612 303.195 547.018 303.315 546.465 303.547C545.912 303.78 545.411 304.121 544.991 304.55C544.133 305.419 543.65 306.602 543.65 307.836C543.65 309.07 544.133 310.251 544.991 311.123C546.772 312.931 549.654 312.928 551.43 311.114C553.206 309.301 553.206 306.366 551.43 304.558V304.558ZM581.11 273.41C580.277 273.06 579.358 272.969 578.473 273.149C577.587 273.329 576.777 273.771 576.147 274.419C575.289 275.295 574.809 276.474 574.811 277.7C574.811 278.931 575.291 280.112 576.147 280.981C577.448 282.306 579.409 282.703 581.11 281.987C582.811 281.271 583.921 279.575 583.921 277.7C583.921 275.822 582.811 274.132 581.11 273.413V273.41ZM550.832 300.981L555.639 305.878L560.039 301.392C558.947 300.941 557.957 300.274 557.129 299.431C556.302 298.588 555.653 297.586 555.223 296.485L550.832 300.981ZM576.847 284.517L572.042 279.621L567.639 284.107C568.726 284.549 569.711 285.215 570.54 286.057C571.366 286.894 572.015 287.897 572.444 289.003L576.847 284.517ZM575.004 305.824C574.658 306.672 574.568 307.601 574.743 308.5C574.919 309.398 575.352 310.226 575.991 310.881C576.847 311.753 578.003 312.244 579.213 312.244C580.42 312.244 581.579 311.753 582.432 310.881C583.071 310.226 583.505 309.398 583.681 308.5C583.857 307.602 583.767 306.672 583.422 305.824C583.085 304.982 582.505 304.26 581.755 303.75C581.005 303.24 580.12 302.965 579.213 302.961C577.37 302.961 575.709 304.091 575.004 305.824ZM544.46 275.514C544.115 276.361 544.024 277.291 544.199 278.189C544.375 279.088 544.808 279.915 545.447 280.571C546.303 281.44 547.459 281.931 548.669 281.931C549.877 281.931 551.035 281.44 551.889 280.571C552.527 279.915 552.961 279.088 553.137 278.19C553.313 277.291 553.223 276.361 552.879 275.514C552.542 274.671 551.962 273.948 551.212 273.438C550.462 272.927 549.576 272.652 548.669 272.648C546.826 272.648 545.165 273.778 544.46 275.514ZM571.677 305.679L576.485 300.783L572.082 296.297C571.652 297.399 571.004 298.401 570.175 299.245C569.347 300.089 568.357 300.756 567.264 301.207L571.677 305.679ZM556.007 279.361L551.199 284.26L555.602 288.745C556.039 287.637 556.691 286.631 557.517 285.789C558.341 284.946 559.325 284.286 560.409 283.849L556.007 279.361ZM563.9 275.387C566.416 275.387 568.46 273.308 568.46 270.741C568.46 269.509 567.977 268.326 567.124 267.457C566.704 267.027 566.202 266.685 565.648 266.451C565.094 266.218 564.498 266.097 563.897 266.097C561.378 266.097 559.336 268.176 559.336 270.741C559.336 273.306 561.378 275.387 563.897 275.387H563.9ZM568.46 315.109C568.46 313.875 567.977 312.695 567.124 311.823C566.704 311.393 566.203 311.051 565.649 310.817C565.095 310.584 564.501 310.463 563.9 310.463C561.38 310.463 559.339 312.542 559.339 315.109C559.339 317.677 561.38 319.753 563.9 319.753C566.419 319.753 568.46 317.674 568.46 315.109ZM565.555 277.818H562.684V283.57C563.634 283.402 564.605 283.402 565.555 283.57V277.818ZM565.555 302.532C564.605 302.7 563.634 302.7 562.684 302.532V308.287H565.555V302.532ZM579.86 293.432C580.135 294.135 580.582 294.758 581.159 295.243C581.737 295.729 582.427 296.062 583.167 296.212C583.907 296.362 584.673 296.324 585.394 296.102C586.115 295.88 586.769 295.48 587.296 294.94C588.155 294.068 588.632 292.885 588.632 291.653C588.632 289.775 587.522 288.08 585.815 287.361C584.982 287.011 584.063 286.92 583.177 287.1C582.291 287.28 581.48 287.722 580.85 288.37C580.21 289.026 579.775 289.854 579.6 290.753C579.424 291.652 579.514 292.583 579.86 293.432V293.432ZM537.659 292.442C537.659 295.007 539.701 297.086 542.22 297.086C543.427 297.086 544.589 296.598 545.445 295.726C546.3 294.857 546.778 293.674 546.778 292.442C546.778 289.875 544.736 287.795 542.217 287.798C539.701 287.798 537.656 289.877 537.659 292.442ZM578.124 293.904V290.977H572.482C572.646 291.943 572.646 292.933 572.482 293.899L578.124 293.904ZM554.936 293.904C554.772 292.936 554.772 291.948 554.936 290.98H549.289V293.904H554.936ZM563.763 299.369C567.331 299.369 570.228 296.421 570.228 292.785C570.226 289.148 567.331 286.202 563.763 286.199C560.192 286.199 557.297 289.148 557.297 292.785C557.297 296.423 560.192 299.369 563.763 299.369Z" fill="white" fill-opacity="0.7"/>
</g>
<g filter="url(#filter6_f_55_19565)">
<path d="M788.265 411.838C776.744 404.523 761.474 407.932 754.159 419.453C746.844 430.975 750.254 446.244 761.776 453.56C773.298 460.875 788.567 457.464 795.881 445.943C803.197 434.421 799.787 419.153 788.265 411.838ZM774.318 451.329C773.117 451.184 771.992 450.782 770.957 450.125C770.199 449.644 769.104 448.542 767.688 446.825C766.267 445.108 765.039 443.918 764.001 443.258C763.039 442.648 762.024 442.234 760.954 442.017C760.319 441.9 759.453 441.825 758.35 441.803L758.185 437.915C760.249 437.822 762.101 437.45 763.738 436.799C765.375 436.145 766.644 435.111 767.545 433.693C767.802 433.288 768.021 432.762 768.201 432.113C768.318 431.709 768.445 431.134 768.58 430.384L764.388 427.722L765.64 425.749L768.619 427.641C768.58 427.704 768.618 427.175 768.737 426.051C768.853 424.928 768.968 424.126 769.078 423.646C769.186 423.198 769.348 422.702 769.568 422.159C769.79 421.616 770.076 421.068 770.43 420.511C771.683 418.537 773.607 417.279 776.206 416.737C778.802 416.193 781.602 416.876 784.598 418.778C787.419 420.569 789.062 422.696 789.53 425.156C789.998 427.619 789.355 430.272 787.607 433.12L784.096 430.89C785.308 428.981 785.785 427.247 785.522 425.686C785.261 424.128 784.222 422.772 782.397 421.613C780.625 420.489 778.991 420.105 777.49 420.455C775.99 420.807 774.816 421.645 773.973 422.972C773.556 423.63 773.267 424.397 773.113 425.274C772.956 426.151 772.771 427.773 772.563 430.142L778.787 434.094L777.535 436.066L772.165 432.657C771.923 433.317 771.726 433.833 771.571 434.201C771.42 434.563 771.232 434.922 771.007 435.276C770.203 436.543 769.031 437.549 767.489 438.303C765.949 439.053 763.982 439.523 761.592 439.708C762.744 439.819 763.828 440.015 764.84 440.295C765.857 440.571 766.768 440.967 767.577 441.481C768.486 442.058 769.551 443.051 770.763 444.449C771.978 445.851 772.819 446.699 773.287 446.996C773.88 447.373 774.495 447.605 775.133 447.689C775.524 447.741 776.175 447.748 777.073 447.696L777.021 451.257C775.956 451.382 775.054 451.403 774.318 451.329Z" fill="#FF8CAE" fill-opacity="0.9"/>
</g>
<g filter="url(#filter7_bii_55_19565)">
<path d="M807.48 378.293C793.677 369.53 775.385 373.614 766.622 387.417C757.858 401.22 761.943 419.512 775.746 428.276C789.549 437.039 807.841 432.953 816.604 419.151C825.368 405.348 821.283 387.056 807.48 378.293ZM790.771 425.603C789.333 425.43 787.985 424.949 786.745 424.162C785.837 423.585 784.526 422.265 782.829 420.207C781.126 418.151 779.655 416.725 778.411 415.935C777.259 415.204 776.043 414.707 774.761 414.448C774.001 414.307 772.963 414.218 771.642 414.191L771.444 409.534C773.917 409.422 776.135 408.976 778.097 408.197C780.058 407.413 781.578 406.174 782.657 404.475C782.965 403.991 783.227 403.361 783.444 402.583C783.584 402.099 783.736 401.41 783.898 400.511L778.875 397.322L780.375 394.959L783.944 397.226C783.897 397.301 783.943 396.667 784.086 395.321C784.224 393.975 784.362 393.015 784.494 392.439C784.623 391.902 784.818 391.309 785.081 390.659C785.347 390.007 785.69 389.351 786.114 388.683C787.615 386.319 789.92 384.812 793.033 384.163C796.143 383.51 799.497 384.329 803.087 386.608C806.466 388.754 808.434 391.301 808.996 394.249C809.556 397.199 808.786 400.378 806.692 403.789L802.485 401.118C803.937 398.831 804.509 396.754 804.194 394.884C803.881 393.017 802.636 391.392 800.45 390.005C798.327 388.657 796.37 388.197 794.571 388.616C792.774 389.039 791.368 390.042 790.358 391.632C789.858 392.42 789.513 393.339 789.328 394.39C789.14 395.441 788.918 397.383 788.668 400.221L796.125 404.956L794.625 407.318L788.192 403.234C787.903 404.025 787.666 404.644 787.481 405.084C787.3 405.518 787.074 405.948 786.805 406.372C785.841 407.89 784.438 409.095 782.591 409.998C780.745 410.897 778.389 411.46 775.526 411.682C776.906 411.814 778.204 412.049 779.417 412.385C780.636 412.715 781.727 413.19 782.696 413.805C783.785 414.497 785.06 415.686 786.512 417.361C787.968 419.04 788.976 420.057 789.536 420.412C790.247 420.864 790.983 421.142 791.748 421.243C792.216 421.306 792.996 421.314 794.072 421.251L794.01 425.517C792.733 425.667 791.654 425.692 790.771 425.603Z" fill="white" fill-opacity="0.7"/>
</g>
<path d="M329.221 558L334.969 586.207L357.503 568.294L343.776 593.597L372.552 594.359L345.772 604.918L367.326 624L340.024 614.875L344.27 643.346L329.221 618.807L314.172 643.346L318.418 614.875L291.116 624L312.67 604.918L285.889 594.359L314.666 593.597L300.938 568.294L323.473 586.207L329.221 558Z" fill="#FD8AB3"/>
<path d="M165.221 12L167.311 22.2571L175.505 15.7433L170.513 24.9443L180.978 25.2216L171.239 29.0612L179.077 36L169.149 32.6816L170.693 43.0351L165.221 34.1115L159.748 43.0351L161.292 32.6816L151.364 36L159.202 29.0612L149.464 25.2216L159.928 24.9443L154.936 15.7433L163.13 22.2571L165.221 12Z" fill="#FD8AB3"/>
<path d="M637.221 162L639.311 172.257L647.505 165.743L642.513 174.944L652.978 175.222L643.239 179.061L651.077 186L641.149 182.682L642.693 193.035L637.221 184.111L631.748 193.035L633.292 182.682L623.364 186L631.202 179.061L621.464 175.222L631.928 174.944L626.936 165.743L635.13 172.257L637.221 162Z" fill="#FD8AB3"/>
<path d="M1172.6 62.1088L1176.3 283.8L1372.21 179.976L1232.55 352.184L1449.37 398.579L1231.69 440.727L1367.96 615.633L1174.11 507.998L1166.07 729.575L1086.76 522.521L938.177 687.09L1010.52 477.5L790.909 508.057L981.045 394.001L793.175 276.249L1012.14 311.094L943.915 100.13L1089.26 267.572L1172.6 62.1088Z" fill="#FD8AB3"/>
<g filter="url(#filter8_f_55_19565)">
<circle cx="108.931" cy="430.71" r="54.5" transform="rotate(66.7242 108.931 430.71)" fill="#FF8CAE"/>
</g>
<g filter="url(#filter9_bii_55_19565)">
<path fill-rule="evenodd" clip-rule="evenodd" d="M77.842 461.677C46.2799 447.592 31.9857 410.879 45.9128 379.672C59.84 348.464 96.7121 334.586 128.274 348.671C159.836 362.757 174.13 399.469 160.203 430.677C146.276 461.884 109.404 475.763 77.842 461.677ZM131.855 409.641C136.279 402.739 132.352 396.214 125.744 390.08L132.748 381.179L127.254 376.907L120.432 385.571C118.99 384.445 117.493 383.328 115.999 382.212L122.868 373.492L117.375 369.216L110.372 378.113C109.165 377.21 107.976 376.324 106.839 375.435L106.86 375.407L99.2834 369.506L94.7311 375.291C94.7311 375.291 98.8501 378.375 98.7253 378.395C100.95 380.129 100.67 381.965 100.015 383.231L92.0379 393.37C92.1904 393.489 92.3835 393.652 92.591 393.859L92.0083 393.408L80.83 407.611C80.1887 408.223 78.9109 409.004 77.3515 407.795C77.3764 407.912 73.3589 404.688 73.3589 404.688L67.1772 410.306L74.3291 415.873C75.6565 416.91 76.9475 417.952 78.2245 418.958L71.1446 427.961L76.635 432.232L83.6395 423.331C85.1251 424.532 86.575 425.679 87.9985 426.788L81.02 435.65L86.514 439.923L93.5845 430.941C103.234 437.611 111.503 440.348 119.037 432.421C125.105 426.041 124.24 420.408 119.972 415.086C124.418 415.969 128.625 414.7 131.855 409.641V409.641ZM109.019 422.902C103.732 429.634 92.6501 419.772 88.9228 416.876L98.3125 404.954C102.037 407.856 114.543 415.889 109.019 422.902ZM119.706 404.088C114.889 410.209 105.711 401.907 102.612 399.495L111.12 388.682C114.22 391.095 124.731 397.704 119.706 404.088Z" fill="white" fill-opacity="0.7"/>
</g>
<defs>
<filter id="filter0_f_55_19565" x="234.25" y="138.35" width="221.139" height="221.139" filterUnits="userSpaceOnUse" color-interpolation-filters="sRGB">
<feFlood flood-opacity="0" result="BackgroundImageFix"/>
<feBlend mode="normal" in="SourceGraphic" in2="BackgroundImageFix" result="shape"/>
<feGaussianBlur stdDeviation="18.435" result="effect1_foregroundBlur_55_19565"/>
</filter>
<filter id="filter1_bii_55_19565" x="200.536" y="109.315" width="213.502" height="213.502" filterUnits="userSpaceOnUse" color-interpolation-filters="sRGB">
<feFlood flood-opacity="0" result="BackgroundImageFix"/>
<feGaussianBlur in="BackgroundImage" stdDeviation="12"/>
<feComposite in2="SourceAlpha" operator="in" result="effect1_backgroundBlur_55_19565"/>
<feBlend mode="normal" in="SourceGraphic" in2="effect1_backgroundBlur_55_19565" result="shape"/>
<feColorMatrix in="SourceAlpha" type="matrix" values="0 0 0 0 0 0 0 0 0 0 0 0 0 0 0 0 0 0 127 0" result="hardAlpha"/>
<feOffset dx="1" dy="1"/>
<feGaussianBlur stdDeviation="2"/>
<feComposite in2="hardAlpha" operator="arithmetic" k2="-1" k3="1"/>
<feColorMatrix type="matrix" values="0 0 0 0 1 0 0 0 0 1 0 0 0 0 1 0 0 0 0.25 0"/>
<feBlend mode="normal" in2="shape" result="effect2_innerShadow_55_19565"/>
<feColorMatrix in="SourceAlpha" type="matrix" values="0 0 0 0 0 0 0 0 0 0 0 0 0 0 0 0 0 0 127 0" result="hardAlpha"/>
<feOffset dx="-1" dy="-1"/>
<feGaussianBlur stdDeviation="2"/>
<feComposite in2="hardAlpha" operator="arithmetic" k2="-1" k3="1"/>
<feColorMatrix type="matrix" values="0 0 0 0 0.635567 0 0 0 0 0.530736 0 0 0 0 0.858333 0 0 0 0.25 0"/>
<feBlend mode="normal" in2="effect2_innerShadow_55_19565" result="effect3_innerShadow_55_19565"/>
</filter>
<filter id="filter2_f_55_19565" x="561.341" y="493.415" width="127.622" height="128.774" filterUnits="userSpaceOnUse" color-interpolation-filters="sRGB">
<feFlood flood-opacity="0" result="BackgroundImageFix"/>
<feBlend mode="normal" in="SourceGraphic" in2="BackgroundImageFix" result="shape"/>
<feGaussianBlur stdDeviation="10" result="effect1_foregroundBlur_55_19565"/>
</filter>
<filter id="filter3_bii_55_19565" x="568.952" y="470.808" width="135.622" height="136.774" filterUnits="userSpaceOnUse" color-interpolation-filters="sRGB">
<feFlood flood-opacity="0" result="BackgroundImageFix"/>
<feGaussianBlur in="BackgroundImage" stdDeviation="12"/>
<feComposite in2="SourceAlpha" operator="in" result="effect1_backgroundBlur_55_19565"/>
<feBlend mode="normal" in="SourceGraphic" in2="effect1_backgroundBlur_55_19565" result="shape"/>
<feColorMatrix in="SourceAlpha" type="matrix" values="0 0 0 0 0 0 0 0 0 0 0 0 0 0 0 0 0 0 127 0" result="hardAlpha"/>
<feOffset dx="1" dy="1"/>
<feGaussianBlur stdDeviation="2"/>
<feComposite in2="hardAlpha" operator="arithmetic" k2="-1" k3="1"/>
<feColorMatrix type="matrix" values="0 0 0 0 1 0 0 0 0 1 0 0 0 0 1 0 0 0 0.25 0"/>
<feBlend mode="normal" in2="shape" result="effect2_innerShadow_55_19565"/>
<feColorMatrix in="SourceAlpha" type="matrix" values="0 0 0 0 0 0 0 0 0 0 0 0 0 0 0 0 0 0 127 0" result="hardAlpha"/>
<feOffset dx="-1" dy="-1"/>
<feGaussianBlur stdDeviation="2"/>
<feComposite in2="hardAlpha" operator="arithmetic" k2="-1" k3="1"/>
<feColorMatrix type="matrix" values="0 0 0 0 0.739514 0 0 0 0 0.332222 0 0 0 0 0.766667 0 0 0 0.25 0"/>
<feBlend mode="normal" in2="effect2_innerShadow_55_19565" result="effect3_innerShadow_55_19565"/>
</filter>
<filter id="filter4_f_55_19565" x="491.221" y="260.5" width="117.433" height="117.433" filterUnits="userSpaceOnUse" color-interpolation-filters="sRGB">
<feFlood flood-opacity="0" result="BackgroundImageFix"/>
<feBlend mode="normal" in="SourceGraphic" in2="BackgroundImageFix" result="shape"/>
<feGaussianBlur stdDeviation="10" result="effect1_foregroundBlur_55_19565"/>
</filter>
<filter id="filter5_bii_55_19565" x="496.221" y="226" width="133.85" height="133.85" filterUnits="userSpaceOnUse" color-interpolation-filters="sRGB">
<feFlood flood-opacity="0" result="BackgroundImageFix"/>
<feGaussianBlur in="BackgroundImage" stdDeviation="12"/>
<feComposite in2="SourceAlpha" operator="in" result="effect1_backgroundBlur_55_19565"/>
<feBlend mode="normal" in="SourceGraphic" in2="effect1_backgroundBlur_55_19565" result="shape"/>
<feColorMatrix in="SourceAlpha" type="matrix" values="0 0 0 0 0 0 0 0 0 0 0 0 0 0 0 0 0 0 127 0" result="hardAlpha"/>
<feOffset dx="1" dy="1"/>
<feGaussianBlur stdDeviation="2"/>
<feComposite in2="hardAlpha" operator="arithmetic" k2="-1" k3="1"/>
<feColorMatrix type="matrix" values="0 0 0 0 1 0 0 0 0 1 0 0 0 0 1 0 0 0 0.25 0"/>
<feBlend mode="normal" in2="shape" result="effect2_innerShadow_55_19565"/>
<feColorMatrix in="SourceAlpha" type="matrix" values="0 0 0 0 0 0 0 0 0 0 0 0 0 0 0 0 0 0 127 0" result="hardAlpha"/>
<feOffset dx="-1" dy="-1"/>
<feGaussianBlur stdDeviation="2"/>
<feComposite in2="hardAlpha" operator="arithmetic" k2="-1" k3="1"/>
<feColorMatrix type="matrix" values="0 0 0 0 0.908957 0 0 0 0 0.668313 0 0 0 0 0.925 0 0 0 0.25 0"/>
<feBlend mode="normal" in2="effect2_innerShadow_55_19565" result="effect3_innerShadow_55_19565"/>
</filter>
<filter id="filter6_f_55_19565" x="711.307" y="368.985" width="127.428" height="127.427" filterUnits="userSpaceOnUse" color-interpolation-filters="sRGB">
<feFlood flood-opacity="0" result="BackgroundImageFix"/>
<feBlend mode="normal" in="SourceGraphic" in2="BackgroundImageFix" result="shape"/>
<feGaussianBlur stdDeviation="19.5" result="effect1_foregroundBlur_55_19565"/>
</filter>
<filter id="filter7_bii_55_19565" x="738.006" y="349.677" width="107.214" height="107.213" filterUnits="userSpaceOnUse" color-interpolation-filters="sRGB">
<feFlood flood-opacity="0" result="BackgroundImageFix"/>
<feGaussianBlur in="BackgroundImage" stdDeviation="12"/>
<feComposite in2="SourceAlpha" operator="in" result="effect1_backgroundBlur_55_19565"/>
<feBlend mode="normal" in="SourceGraphic" in2="effect1_backgroundBlur_55_19565" result="shape"/>
<feColorMatrix in="SourceAlpha" type="matrix" values="0 0 0 0 0 0 0 0 0 0 0 0 0 0 0 0 0 0 127 0" result="hardAlpha"/>
<feOffset dx="1" dy="1"/>
<feGaussianBlur stdDeviation="2"/>
<feComposite in2="hardAlpha" operator="arithmetic" k2="-1" k3="1"/>
<feColorMatrix type="matrix" values="0 0 0 0 1 0 0 0 0 1 0 0 0 0 1 0 0 0 0.28 0"/>
<feBlend mode="normal" in2="shape" result="effect2_innerShadow_55_19565"/>
<feColorMatrix in="SourceAlpha" type="matrix" values="0 0 0 0 0 0 0 0 0 0 0 0 0 0 0 0 0 0 127 0" result="hardAlpha"/>
<feOffset dx="-1" dy="-1"/>
<feGaussianBlur stdDeviation="2"/>
<feComposite in2="hardAlpha" operator="arithmetic" k2="-1" k3="1"/>
<feColorMatrix type="matrix" values="0 0 0 0 0.315611 0 0 0 0 0.436843 0 0 0 0 0.866667 0 0 0 0.25 0"/>
<feBlend mode="normal" in2="effect2_innerShadow_55_19565" result="effect3_innerShadow_55_19565"/>
</filter>
<filter id="filter8_f_55_19565" x="0.416504" y="322.197" width="217.028" height="217.028" filterUnits="userSpaceOnUse" color-interpolation-filters="sRGB">
<feFlood flood-opacity="0" result="BackgroundImageFix"/>
<feBlend mode="normal" in="SourceGraphic" in2="BackgroundImageFix" result="shape"/>
<feGaussianBlur stdDeviation="27" result="effect1_foregroundBlur_55_19565"/>
</filter>
<filter id="filter9_bii_55_19565" x="25.5806" y="328.167" width="154.955" height="154.015" filterUnits="userSpaceOnUse" color-interpolation-filters="sRGB">
<feFlood flood-opacity="0" result="BackgroundImageFix"/>
<feGaussianBlur in="BackgroundImage" stdDeviation="7.5"/>
<feComposite in2="SourceAlpha" operator="in" result="effect1_backgroundBlur_55_19565"/>
<feBlend mode="normal" in="SourceGraphic" in2="effect1_backgroundBlur_55_19565" result="shape"/>
<feColorMatrix in="SourceAlpha" type="matrix" values="0 0 0 0 0 0 0 0 0 0 0 0 0 0 0 0 0 0 127 0" result="hardAlpha"/>
<feOffset dx="-1" dy="-1"/>
<feGaussianBlur stdDeviation="2"/>
<feComposite in2="hardAlpha" operator="arithmetic" k2="-1" k3="1"/>
<feColorMatrix type="matrix" values="0 0 0 0 0.930905 0 0 0 0 0.753333 0 0 0 0 0.941667 0 0 0 0.2 0"/>
<feBlend mode="normal" in2="shape" result="effect2_innerShadow_55_19565"/>
<feColorMatrix in="SourceAlpha" type="matrix" values="0 0 0 0 0 0 0 0 0 0 0 0 0 0 0 0 0 0 127 0" result="hardAlpha"/>
<feOffset dx="1" dy="1"/>
<feGaussianBlur stdDeviation="2"/>
<feComposite in2="hardAlpha" operator="arithmetic" k2="-1" k3="1"/>
<feColorMatrix type="matrix" values="0 0 0 0 1 0 0 0 0 1 0 0 0 0 1 0 0 0 0.25 0"/>
<feBlend mode="normal" in2="effect2_innerShadow_55_19565" result="effect3_innerShadow_55_19565"/>
</filter>
</defs>
</svg>
