<svg width="674" height="88" viewBox="0 0 674 88" fill="none" xmlns="http://www.w3.org/2000/svg">
<rect width="674" height="88" rx="14.02" fill="#F5F5FF"/>
<path d="M52.0599 24.9209C42.5941 24.9209 34.9199 32.5951 34.9199 42.0609C34.9199 51.5267 42.5941 59.2009 52.0599 59.2009C61.5257 59.2009 69.1999 51.5267 69.1999 42.0609C69.1999 32.5951 61.5257 24.9209 52.0599 24.9209ZM56.9833 48.8181C56.2356 49.728 55.2622 50.3417 54.1266 50.6521C53.6328 50.7861 53.4071 51.0471 53.4354 51.562C53.4565 52.0698 53.4354 52.5706 53.4283 53.0785C53.4283 53.5299 53.1955 53.7697 52.7512 53.7838C52.462 53.7909 52.1728 53.7979 51.8836 53.7979C51.6297 53.7979 51.3757 53.7979 51.1218 53.7909C50.6422 53.7838 50.4165 53.5087 50.4165 53.0432C50.4094 52.6764 50.4094 52.3026 50.4094 51.9358C50.4023 51.1176 50.3741 51.0894 49.5912 50.9624C48.5896 50.8002 47.6021 50.5745 46.6852 50.1301C45.9657 49.7774 45.8881 49.6011 46.0927 48.8393C46.2478 48.275 46.403 47.7107 46.5794 47.1535C46.7063 46.7444 46.8262 46.561 47.0449 46.561C47.1718 46.561 47.3341 46.6245 47.5527 46.7374C48.5684 47.2664 49.6476 47.5626 50.7832 47.7037C50.9737 47.7249 51.1641 47.739 51.3546 47.739C51.8836 47.739 52.3985 47.6402 52.8993 47.4216C54.1619 46.8714 54.3594 45.4113 53.2943 44.5367C52.9346 44.2404 52.5184 44.0218 52.0881 43.8313C50.9807 43.3446 49.831 42.9779 48.7871 42.3501C47.0943 41.3344 46.0221 39.9448 46.1491 37.8852C46.2902 35.5576 47.6092 34.1046 49.7464 33.3287C50.6281 33.0113 50.6351 33.0183 50.6351 32.1014C50.6351 31.791 50.6281 31.4807 50.6422 31.1632C50.6633 30.472 50.7762 30.3521 51.4674 30.3309C51.545 30.3309 51.6297 30.3309 51.7072 30.3309C51.8413 30.3309 51.9753 30.3309 52.1093 30.3309C52.1657 30.3309 52.2222 30.3309 52.2715 30.3309C53.5835 30.3309 53.5835 30.3874 53.5905 31.8051C53.5976 32.849 53.5976 32.849 54.6344 33.0113C55.4315 33.1382 56.1862 33.371 56.9198 33.6954C57.3218 33.8718 57.477 34.1539 57.35 34.5842C57.1667 35.219 56.9903 35.8609 56.7928 36.4886C56.6659 36.8695 56.5459 37.0459 56.3202 37.0459C56.1933 37.0459 56.0381 36.9965 55.8406 36.8977C54.8249 36.404 53.7598 36.1642 52.6454 36.1642C52.5043 36.1642 52.3562 36.1712 52.2151 36.1783C51.8836 36.1994 51.5591 36.2418 51.2488 36.3758C50.1484 36.8554 49.9721 38.0686 50.9102 38.8163C51.3828 39.1972 51.9259 39.4652 52.4831 39.698C53.4565 40.1 54.4299 40.488 55.3539 40.9958C58.2599 42.6181 59.0499 46.3071 56.9833 48.8181Z" fill="#1E1E1E"/>
<circle cx="83.86" cy="44.1398" r="18.2131" fill="#F5F5F6" stroke="#F5F5F6" stroke-width="2.14706"/>
<path fill-rule="evenodd" clip-rule="evenodd" d="M83.9388 61.0788C74.4722 61.0788 66.7988 53.4055 66.7988 43.9388C66.7988 34.4722 74.4722 26.7988 83.9388 26.7988C93.4055 26.7988 101.079 34.4722 101.079 43.9388C101.079 53.4055 93.4055 61.0788 83.9388 61.0788ZM77.9688 47.3818L76.71 52.5088H90.5024L91.4376 48.6834H83.1654L84.0738 44.9522L85.6025 44.3405L86.3309 41.3946L84.8205 42.0063L86.4477 35.3688H80.9533L78.724 44.3984L77.1771 45.0197L76.4401 47.9753L77.9688 47.3818V47.3818Z" fill="#1E1E1E"/>
<path d="M140.811 44.8483C140.811 45.5861 140.715 46.2857 140.525 46.9471C140.346 47.6086 140.054 48.1937 139.647 48.7025C139.253 49.1986 138.731 49.5993 138.082 49.9046C137.434 50.1972 136.645 50.3434 135.716 50.3434C134.788 50.3434 133.999 50.1972 133.35 49.9046C132.702 49.5993 132.174 49.1986 131.767 48.7025C131.372 48.1937 131.08 47.6086 130.889 46.9471C130.711 46.2857 130.622 45.5861 130.622 44.8483V36.4911H132.225V44.6193C132.225 45.1663 132.282 45.6942 132.396 46.203C132.511 46.7118 132.702 47.1634 132.969 47.5577C133.236 47.952 133.592 48.27 134.037 48.5117C134.482 48.7407 135.042 48.8552 135.716 48.8552C136.39 48.8552 136.95 48.7407 137.395 48.5117C137.841 48.27 138.197 47.952 138.464 47.5577C138.731 47.1634 138.922 46.7118 139.036 46.203C139.151 45.6942 139.208 45.1663 139.208 44.6193V36.4911H140.811V44.8483ZM150.525 38.8761C150.258 38.4436 149.901 38.132 149.456 37.9412C149.011 37.7377 148.547 37.6359 148.063 37.6359C147.707 37.6359 147.357 37.6804 147.014 37.7695C146.67 37.8585 146.359 37.9921 146.079 38.1701C145.812 38.3482 145.596 38.5836 145.43 38.8761C145.265 39.1687 145.182 39.5121 145.182 39.9065C145.182 40.2117 145.227 40.4852 145.316 40.7269C145.417 40.9559 145.576 41.1658 145.793 41.3566C146.009 41.5474 146.302 41.7255 146.67 41.8908C147.039 42.0562 147.491 42.2216 148.025 42.3869C148.547 42.5523 149.049 42.7304 149.532 42.9212C150.029 43.112 150.461 43.3537 150.83 43.6462C151.212 43.9388 151.51 44.3077 151.727 44.7529C151.956 45.1854 152.07 45.7323 152.07 46.3938C152.07 47.068 151.937 47.6531 151.669 48.1492C151.402 48.6453 151.046 49.0587 150.601 49.3894C150.168 49.7074 149.666 49.9428 149.094 50.0954C148.521 50.2608 147.93 50.3434 147.319 50.3434C146.925 50.3434 146.53 50.3053 146.136 50.229C145.742 50.1654 145.36 50.0636 144.991 49.9237C144.635 49.771 144.298 49.5802 143.98 49.3513C143.662 49.1096 143.389 48.817 143.16 48.4736L144.533 47.3478C144.826 47.8439 145.233 48.2192 145.755 48.4736C146.276 48.728 146.829 48.8552 147.415 48.8552C147.758 48.8552 148.101 48.8043 148.445 48.7025C148.801 48.6008 149.119 48.4545 149.399 48.2637C149.679 48.0602 149.908 47.8121 150.086 47.5195C150.264 47.227 150.353 46.8899 150.353 46.5083C150.353 46.0885 150.283 45.7514 150.143 45.497C150.003 45.2299 149.787 45.0009 149.494 44.8101C149.202 44.6193 148.833 44.4476 148.388 44.295C147.942 44.1423 147.421 43.9642 146.823 43.7607C146.34 43.6081 145.894 43.4363 145.487 43.2455C145.08 43.042 144.724 42.8003 144.419 42.5205C144.126 42.2279 143.891 41.8845 143.713 41.4901C143.548 41.0831 143.465 40.5997 143.465 40.04C143.465 39.3913 143.592 38.8252 143.847 38.3419C144.101 37.8585 144.444 37.4578 144.877 37.1398C145.309 36.8091 145.799 36.561 146.346 36.3957C146.893 36.2303 147.465 36.1476 148.063 36.1476C148.826 36.1476 149.52 36.2685 150.143 36.5101C150.779 36.7391 151.345 37.1462 151.841 37.7313L150.525 38.8761ZM154.468 36.4911H159.658C160.103 36.4911 160.574 36.5419 161.07 36.6437C161.566 36.7455 162.056 36.9108 162.539 37.1398C163.035 37.356 163.506 37.6423 163.951 37.9984C164.409 38.3546 164.809 38.7871 165.153 39.2959C165.496 39.792 165.77 40.3707 165.973 41.0322C166.177 41.6809 166.279 42.4187 166.279 43.2455C166.279 44.0724 166.177 44.8165 165.973 45.4779C165.77 46.1267 165.496 46.7054 165.153 47.2143C164.809 47.7103 164.409 48.1365 163.951 48.4926C163.506 48.8488 163.035 49.1414 162.539 49.3703C162.056 49.5866 161.566 49.7456 161.07 49.8474C160.574 49.9491 160.103 50 159.658 50H154.468V36.4911ZM156.071 48.5117H159.124C159.899 48.5117 160.618 48.41 161.28 48.2064C161.941 48.0029 162.513 47.6913 162.997 47.2715C163.48 46.839 163.862 46.292 164.142 45.6306C164.422 44.9691 164.561 44.1741 164.561 43.2455C164.561 42.317 164.422 41.5219 164.142 40.8605C163.862 40.199 163.48 39.6584 162.997 39.2386C162.513 38.8062 161.941 38.4881 161.28 38.2846C160.618 38.0811 159.899 37.9793 159.124 37.9793H156.071V48.5117ZM172.49 44.7338H191.57V46.1076H172.49V44.7338ZM198.56 36.4911H200.163V48.5117H206.345V50H198.56V36.4911ZM215.412 37.9793H210.947V50H209.344V37.9793H204.879V36.4911H215.412V37.9793ZM226.769 39.2768C226.362 38.7298 225.859 38.3228 225.261 38.0557C224.664 37.7758 224.04 37.6359 223.392 37.6359C222.641 37.6359 221.948 37.7885 221.312 38.0938C220.689 38.3991 220.148 38.8125 219.69 39.334C219.232 39.8429 218.876 40.4407 218.621 41.1276C218.367 41.8018 218.24 42.5078 218.24 43.2455C218.24 44.0342 218.367 44.772 218.621 45.4589C218.876 46.133 219.226 46.7245 219.671 47.2333C220.129 47.7294 220.669 48.1238 221.293 48.4163C221.929 48.7089 222.628 48.8552 223.392 48.8552C224.218 48.8552 224.956 48.6962 225.605 48.3782C226.254 48.0474 226.82 47.5768 227.303 46.9662L228.505 47.9775C227.895 48.7916 227.157 49.3894 226.292 49.771C225.44 50.1526 224.473 50.3434 223.392 50.3434C222.425 50.3434 221.522 50.1654 220.682 49.8092C219.843 49.453 219.111 48.9633 218.488 48.34C217.877 47.704 217.394 46.9535 217.038 46.0885C216.694 45.2235 216.523 44.2759 216.523 43.2455C216.523 42.2534 216.688 41.3248 217.019 40.4598C217.362 39.5948 217.839 38.8443 218.45 38.2083C219.06 37.5723 219.785 37.0698 220.625 36.7009C221.464 36.3321 222.387 36.1476 223.392 36.1476C224.307 36.1476 225.185 36.313 226.025 36.6437C226.877 36.9744 227.589 37.515 228.162 38.2655L226.769 39.2768Z" fill="#ACA7A7"/>
<path d="M374.551 38.8683H375.681L379.989 49H378.586L377.556 46.51H372.49L371.445 49H370.086L374.551 38.8683ZM375.094 40.4138H375.066L372.962 45.3938H377.098L375.094 40.4138ZM381.335 38.8683H383.925C384.412 38.8683 384.894 38.8969 385.371 38.9542C385.857 39.0114 386.291 39.1354 386.673 39.3262C387.055 39.517 387.365 39.7985 387.603 40.1705C387.842 40.5331 387.961 41.0292 387.961 41.6588C387.961 42.4029 387.737 43.004 387.288 43.4619C386.84 43.9198 386.22 44.2108 385.428 44.3348L388.304 49H386.83L384.083 44.4493H382.537V49H381.335V38.8683ZM382.537 43.3331H383.611C383.944 43.3331 384.288 43.3236 384.641 43.3045C385.003 43.2854 385.333 43.2234 385.628 43.1185C385.934 43.0135 386.182 42.8513 386.372 42.6319C386.573 42.4029 386.673 42.0786 386.673 41.6588C386.673 41.2963 386.601 41.0053 386.458 40.7859C386.315 40.5665 386.124 40.3995 385.886 40.285C385.657 40.161 385.395 40.0799 385.099 40.0417C384.813 40.0036 384.522 39.9845 384.226 39.9845H382.537V43.3331ZM390.084 38.8683H393.089C393.556 38.8683 394 38.916 394.42 39.0114C394.849 39.0973 395.226 39.2499 395.55 39.4693C395.884 39.6792 396.146 39.9654 396.337 40.328C396.537 40.6809 396.638 41.1198 396.638 41.6445C396.638 42.1978 396.533 42.6558 396.323 43.0183C396.113 43.3808 395.841 43.667 395.507 43.8769C395.183 44.0868 394.825 44.2347 394.434 44.3205C394.043 44.4064 393.671 44.4493 393.318 44.4493H391.286V49H390.084V38.8683ZM391.286 43.3331H393.318C393.919 43.3331 394.405 43.1996 394.777 42.9324C395.159 42.6558 395.35 42.2312 395.35 41.6588C395.35 41.0864 395.159 40.6666 394.777 40.3995C394.405 40.1228 393.919 39.9845 393.318 39.9845H391.286V43.3331ZM399.296 42.1311C399.535 42.1311 399.735 42.2169 399.897 42.3886C400.069 42.5508 400.155 42.7512 400.155 42.9897C400.155 43.2282 400.064 43.4333 399.883 43.605C399.711 43.7672 399.516 43.8483 399.296 43.8483C399.077 43.8483 398.876 43.7672 398.695 43.605C398.523 43.4333 398.437 43.2282 398.437 42.9897C398.437 42.7512 398.519 42.5508 398.681 42.3886C398.852 42.2169 399.058 42.1311 399.296 42.1311ZM399.296 47.3686C399.535 47.3686 399.735 47.4545 399.897 47.6262C400.069 47.7884 400.155 47.9887 400.155 48.2272C400.155 48.4657 400.064 48.6709 399.883 48.8426C399.711 49.0048 399.516 49.0859 399.296 49.0859C399.077 49.0859 398.876 49.0048 398.695 48.8426C398.523 48.6709 398.437 48.4657 398.437 48.2272C398.437 47.9887 398.519 47.7884 398.681 47.6262C398.852 47.4545 399.058 47.3686 399.296 47.3686ZM410.424 49H409.222V40.4138H409.194L407.376 41.945L406.661 41.0721L409.38 38.8683H410.424V49ZM416.144 43.0898L416.172 43.1185C416.363 43.0135 416.583 42.9372 416.831 42.8895C417.088 42.8418 417.322 42.8179 417.532 42.8179C417.971 42.8179 418.376 42.8943 418.748 43.0469C419.13 43.1996 419.454 43.419 419.721 43.7052C419.998 43.9819 420.213 44.3158 420.365 44.7069C420.518 45.0981 420.594 45.5274 420.594 45.9948C420.594 46.4909 420.508 46.9345 420.337 47.3257C420.165 47.7168 419.926 48.0507 419.621 48.3274C419.316 48.5945 418.953 48.8044 418.534 48.9571C418.123 49.1002 417.68 49.1717 417.203 49.1717C416.726 49.1717 416.277 49.1002 415.858 48.9571C415.447 48.8044 415.09 48.5945 414.784 48.3274C414.479 48.0507 414.24 47.7168 414.069 47.3257C413.897 46.9345 413.811 46.4909 413.811 45.9948C413.811 45.4129 413.902 44.9025 414.083 44.4636C414.264 44.0248 414.493 43.5859 414.77 43.1471L417.46 38.8683H418.863L416.144 43.0898ZM417.203 43.8483C416.897 43.8483 416.611 43.9008 416.344 44.0057C416.077 44.1011 415.843 44.2442 415.643 44.435C415.452 44.6163 415.299 44.8405 415.185 45.1076C415.07 45.3747 415.013 45.6705 415.013 45.9948C415.013 46.3287 415.07 46.6293 415.185 46.8964C415.299 47.154 415.452 47.3782 415.643 47.569C415.843 47.7502 416.077 47.8933 416.344 47.9983C416.611 48.0937 416.897 48.1414 417.203 48.1414C417.508 48.1414 417.794 48.0937 418.061 47.9983C418.328 47.8933 418.557 47.7502 418.748 47.569C418.949 47.3782 419.106 47.154 419.22 46.8964C419.335 46.6293 419.392 46.3287 419.392 45.9948C419.392 45.6705 419.335 45.3747 419.22 45.1076C419.106 44.8405 418.949 44.6163 418.748 44.435C418.557 44.2442 418.328 44.1011 418.061 44.0057C417.794 43.9008 417.508 43.8483 417.203 43.8483ZM426.328 49H425.126V40.4138H425.097L423.28 41.945L422.564 41.0721L425.283 38.8683H426.328V49ZM431.117 47.3686C431.355 47.3686 431.556 47.4545 431.718 47.6262C431.89 47.7884 431.976 47.9887 431.976 48.2272C431.976 48.4657 431.885 48.6709 431.704 48.8426C431.532 49.0048 431.336 49.0859 431.117 49.0859C430.898 49.0859 430.697 49.0048 430.516 48.8426C430.344 48.6709 430.258 48.4657 430.258 48.2272C430.258 47.9887 430.339 47.7884 430.502 47.6262C430.673 47.4545 430.878 47.3686 431.117 47.3686ZM434.198 41.344C434.198 40.9433 434.27 40.5808 434.413 40.2564C434.566 39.932 434.771 39.6554 435.028 39.4264C435.286 39.1974 435.591 39.0209 435.944 38.8969C436.297 38.7634 436.679 38.6966 437.089 38.6966C437.499 38.6966 437.881 38.7634 438.234 38.8969C438.587 39.0209 438.892 39.1974 439.15 39.4264C439.407 39.6554 439.608 39.932 439.751 40.2564C439.903 40.5808 439.98 40.9433 439.98 41.344C439.98 41.5825 439.941 41.821 439.865 42.0595C439.789 42.298 439.679 42.5174 439.536 42.7178C439.393 42.9181 439.216 43.0946 439.007 43.2473C438.806 43.3999 438.577 43.5096 438.32 43.5764V43.605C438.625 43.6718 438.902 43.7863 439.15 43.9485C439.398 44.1011 439.608 44.2919 439.779 44.5209C439.951 44.7498 440.085 45.0122 440.18 45.3079C440.275 45.5941 440.323 45.8947 440.323 46.2095C440.323 46.6674 440.237 47.0824 440.066 47.4545C439.903 47.817 439.674 48.1271 439.379 48.3847C439.092 48.6422 438.749 48.8378 438.348 48.9714C437.957 49.1049 437.537 49.1717 437.089 49.1717C436.641 49.1717 436.216 49.1049 435.815 48.9714C435.424 48.8378 435.081 48.6422 434.785 48.3847C434.499 48.1271 434.27 47.817 434.098 47.4545C433.936 47.0824 433.855 46.6674 433.855 46.2095C433.855 45.8947 433.903 45.5941 433.998 45.3079C434.093 45.0122 434.227 44.7498 434.399 44.5209C434.57 44.2919 434.78 44.1011 435.028 43.9485C435.276 43.7863 435.553 43.6718 435.858 43.605V43.5764C435.601 43.5096 435.367 43.3999 435.157 43.2473C434.957 43.0946 434.785 42.9181 434.642 42.7178C434.499 42.5174 434.389 42.298 434.313 42.0595C434.236 41.821 434.198 41.5825 434.198 41.344ZM435.4 41.4012C435.4 41.8878 435.553 42.2885 435.858 42.6033C436.173 42.9181 436.583 43.0755 437.089 43.0755C437.595 43.0755 438 42.9181 438.305 42.6033C438.62 42.2885 438.778 41.8878 438.778 41.4012C438.778 40.9147 438.62 40.514 438.305 40.1992C438 39.8843 437.595 39.7269 437.089 39.7269C436.583 39.7269 436.173 39.8843 435.858 40.1992C435.553 40.514 435.4 40.9147 435.4 41.4012ZM435.057 46.1236C435.057 46.4194 435.109 46.6913 435.214 46.9393C435.319 47.1874 435.462 47.402 435.644 47.5833C435.834 47.755 436.049 47.8933 436.288 47.9983C436.536 48.0937 436.803 48.1414 437.089 48.1414C437.375 48.1414 437.638 48.0937 437.876 47.9983C438.124 47.8933 438.339 47.755 438.52 47.5833C438.711 47.402 438.859 47.1874 438.964 46.9393C439.069 46.6913 439.121 46.4194 439.121 46.1236C439.121 45.8279 439.069 45.556 438.964 45.3079C438.859 45.0599 438.711 44.85 438.52 44.6783C438.339 44.497 438.124 44.3587 437.876 44.2633C437.638 44.1583 437.375 44.1059 437.089 44.1059C436.803 44.1059 436.536 44.1583 436.288 44.2633C436.049 44.3587 435.834 44.497 435.644 44.6783C435.462 44.85 435.319 45.0599 435.214 45.3079C435.109 45.556 435.057 45.8279 435.057 46.1236ZM441.606 41.2009C441.606 40.8479 441.668 40.5188 441.792 40.2135C441.926 39.9082 442.102 39.6458 442.322 39.4264C442.551 39.1974 442.818 39.0209 443.123 38.8969C443.428 38.7634 443.758 38.6966 444.111 38.6966C444.464 38.6966 444.793 38.7634 445.098 38.8969C445.403 39.0209 445.666 39.1974 445.885 39.4264C446.114 39.6458 446.29 39.9082 446.414 40.2135C446.548 40.5188 446.615 40.8479 446.615 41.2009C446.615 41.5539 446.548 41.883 446.414 42.1883C446.29 42.4936 446.114 42.7607 445.885 42.9897C445.666 43.2091 445.403 43.3856 445.098 43.5192C444.793 43.6432 444.464 43.7052 444.111 43.7052C443.758 43.7052 443.428 43.6432 443.123 43.5192C442.818 43.3856 442.551 43.2091 442.322 42.9897C442.102 42.7607 441.926 42.4936 441.792 42.1883C441.668 41.883 441.606 41.5539 441.606 41.2009ZM442.637 41.2009C442.637 41.4012 442.675 41.592 442.751 41.7733C442.837 41.945 442.947 42.1024 443.08 42.2455C443.214 42.3791 443.366 42.484 443.538 42.5604C443.719 42.6367 443.91 42.6748 444.111 42.6748C444.311 42.6748 444.497 42.6367 444.669 42.5604C444.85 42.484 445.007 42.3791 445.141 42.2455C445.274 42.1024 445.379 41.945 445.456 41.7733C445.542 41.592 445.584 41.4012 445.584 41.2009C445.584 41.0005 445.542 40.8145 445.456 40.6428C445.379 40.4615 445.274 40.3041 445.141 40.1705C445.007 40.0274 444.85 39.9177 444.669 39.8414C444.497 39.7651 444.311 39.7269 444.111 39.7269C443.91 39.7269 443.719 39.7651 443.538 39.8414C443.366 39.9177 443.214 40.0274 443.08 40.1705C442.947 40.3041 442.837 40.4615 442.751 40.6428C442.675 40.8145 442.637 41.0005 442.637 41.2009ZM447.431 46.6674C447.431 46.3144 447.493 45.9853 447.617 45.68C447.75 45.3747 447.927 45.1124 448.146 44.8929C448.375 44.664 448.642 44.4875 448.947 44.3635C449.253 44.2299 449.582 44.1631 449.935 44.1631C450.288 44.1631 450.617 44.2299 450.922 44.3635C451.228 44.4875 451.49 44.664 451.709 44.8929C451.938 45.1124 452.115 45.3747 452.239 45.68C452.372 45.9853 452.439 46.3144 452.439 46.6674C452.439 47.0204 452.372 47.3495 452.239 47.6548C452.115 47.9601 451.938 48.2272 451.709 48.4562C451.49 48.6756 451.228 48.8521 450.922 48.9857C450.617 49.1097 450.288 49.1717 449.935 49.1717C449.582 49.1717 449.253 49.1097 448.947 48.9857C448.642 48.8521 448.375 48.6756 448.146 48.4562C447.927 48.2272 447.75 47.9601 447.617 47.6548C447.493 47.3495 447.431 47.0204 447.431 46.6674ZM448.461 46.6674C448.461 46.8678 448.499 47.0586 448.575 47.2398C448.661 47.4116 448.771 47.569 448.904 47.7121C449.038 47.8456 449.191 47.9506 449.362 48.0269C449.544 48.1032 449.734 48.1414 449.935 48.1414C450.135 48.1414 450.321 48.1032 450.493 48.0269C450.674 47.9506 450.832 47.8456 450.965 47.7121C451.099 47.569 451.204 47.4116 451.28 47.2398C451.366 47.0586 451.409 46.8678 451.409 46.6674C451.409 46.4671 451.366 46.281 451.28 46.1093C451.204 45.9281 451.099 45.7706 450.965 45.6371C450.832 45.494 450.674 45.3843 450.493 45.3079C450.321 45.2316 450.135 45.1935 449.935 45.1935C449.734 45.1935 449.544 45.2316 449.362 45.3079C449.191 45.3843 449.038 45.494 448.904 45.6371C448.771 45.7706 448.661 45.9281 448.575 46.1093C448.499 46.281 448.461 46.4671 448.461 46.6674ZM449.849 38.4104L450.636 38.8683L444.282 49.4579L443.495 49L449.849 38.4104Z" fill="#ACA7A7"/>
<rect x="618" y="30" width="28" height="28" rx="6" fill="#FAFAFA"/>
<circle cx="627" cy="44" r="1.5" fill="#929292"/>
<circle cx="632" cy="44" r="1.5" fill="#929292"/>
<circle cx="637" cy="44" r="1.5" fill="#929292"/>
</svg>
