<svg width="245" height="309" viewBox="0 0 245 309" fill="none" xmlns="http://www.w3.org/2000/svg">
<path opacity="0.7" d="M244.093 154.186C244.093 238.83 174.666 307.465 89 307.465C3.33446 307.465 -66.093 238.83 -66.093 154.186C-66.093 69.5423 3.33446 0.906977 89 0.906977C174.666 0.906977 244.093 69.5423 244.093 154.186Z" stroke="#FFFEDD" stroke-width="1.81395"/>
<path opacity="0.7" d="M198.478 154.185C198.478 213.933 149.47 262.382 89.0005 262.382C28.5307 262.382 -20.477 213.933 -20.477 154.185C-20.477 94.4364 28.5307 45.9879 89.0005 45.9879C149.47 45.9879 198.478 94.4364 198.478 154.185Z" stroke="#FFFBCA" stroke-width="1.28044"/>
<g filter="url(#filter0_f_3_1162)">
<path fill-rule="evenodd" clip-rule="evenodd" d="M104.419 239.442C68.8524 239.442 40.0234 211.019 40.0234 175.953C40.0234 140.888 68.8524 112.465 104.419 112.465C139.985 112.465 168.814 140.888 168.814 175.953C168.814 211.019 139.985 239.442 104.419 239.442ZM133.352 168.097C134.616 159.78 128.189 155.308 119.407 152.324L122.256 141.054L115.302 139.348L112.525 150.32C110.697 149.867 108.822 149.447 106.95 149.026L109.747 137.983L102.793 136.273L99.9433 147.538C98.43 147.197 96.9409 146.864 95.5 146.507L95.5081 146.471L85.9132 144.11L84.0618 151.435C84.0618 151.435 89.2255 152.601 89.1168 152.673C91.9341 153.367 92.4413 155.204 92.3567 156.665L89.1128 169.501C89.306 169.549 89.5555 169.62 89.8373 169.727L89.1007 169.549L84.5528 187.532C84.2067 188.373 83.3333 189.639 81.3612 189.159C81.4337 189.258 76.3062 187.917 76.3062 187.917L72.853 195.766L81.9086 197.992C83.5909 198.408 85.241 198.845 86.863 199.253L83.9853 210.65L90.936 212.356L93.7855 201.087C95.6852 201.591 97.5285 202.059 99.3316 202.503L96.4901 213.725L103.445 215.431L106.322 204.059C118.187 206.273 127.106 205.38 130.861 194.801C133.888 186.286 130.712 181.37 124.47 178.167C129.018 177.136 132.439 174.187 133.352 168.097V168.097ZM117.455 190.071C115.31 198.591 100.76 193.984 96.0434 192.829L99.8668 177.731C104.584 178.894 119.705 181.191 117.455 190.071ZM119.608 167.974C117.648 175.723 105.542 171.783 101.618 170.819L105.079 157.129C109.003 158.093 121.653 159.891 119.608 167.974Z" fill="#EDEBD0"/>
<path d="M111.866 149.226C110.607 148.923 109.331 148.632 108.058 148.346L110.627 138.206L110.851 137.321L109.964 137.102L103.009 135.392L102.134 135.177L101.914 136.051L99.2807 146.459C98.365 146.252 97.4642 146.047 96.5809 145.836L96.5884 145.803L95.7248 145.59L86.1299 143.229L85.2547 143.014L85.0338 143.888L83.1825 151.213L82.9545 152.114L83.8619 152.319L84.0618 151.435L83.862 152.319L83.8621 152.32L83.8628 152.32L83.8656 152.32L83.8765 152.323L83.9194 152.332L84.0825 152.369C84.223 152.401 84.4238 152.447 84.6645 152.502C85.1459 152.613 85.786 152.76 86.4223 152.91C86.5912 152.95 86.7595 152.989 86.9242 153.029L86.8823 153.056L88.8998 153.553C90.1309 153.857 90.7433 154.376 91.062 154.872C91.3777 155.363 91.4779 155.944 91.4552 156.53L88.2711 169.13L88.2335 169.279L88.2215 169.326L83.6905 187.242C83.5509 187.563 83.3386 187.89 83.0409 188.102C82.7635 188.299 82.3262 188.46 81.5758 188.278L79.1662 187.691L79.1893 187.723C79.1542 187.714 79.1191 187.705 79.0839 187.696C78.4495 187.535 77.8124 187.371 77.3336 187.247C77.0943 187.185 76.8947 187.133 76.755 187.097L76.5928 187.054L76.5502 187.043L76.5393 187.04L76.5366 187.04L76.5359 187.039L76.5358 187.039L76.3062 187.917L76.5357 187.039L75.7875 186.844L75.476 187.552L72.0228 195.4L71.588 196.389L72.6365 196.646L81.6906 198.872C82.6633 199.113 83.6144 199.358 84.5603 199.601C84.9613 199.704 85.3614 199.807 85.7619 199.91L83.106 210.428L82.8824 211.313L83.7691 211.53L90.7198 213.237L91.5945 213.451L91.8153 212.578L94.4402 202.197C95.7267 202.534 96.9878 202.855 98.2285 203.164L95.6109 213.502L95.3866 214.388L96.274 214.606L103.229 216.312L104.103 216.526L104.324 215.654L106.994 205.102C112.623 206.094 117.703 206.367 121.896 205.095C126.378 203.736 129.751 200.641 131.716 195.105C133.281 190.702 133.288 187.092 131.97 184.124C130.923 181.765 129.084 179.914 126.744 178.423C128.323 177.808 129.747 176.908 130.933 175.652C132.621 173.866 133.77 171.424 134.249 168.232C134.927 163.772 133.526 160.289 130.786 157.567C128.253 155.05 124.603 153.204 120.49 151.74L123.136 141.277L123.36 140.391L122.472 140.174L115.518 138.467L114.643 138.253L114.422 139.126L111.866 149.226ZM116.576 189.849L116.575 189.85C116.115 191.677 115.017 192.777 113.509 193.426C111.955 194.094 109.948 194.285 107.76 194.172C104.112 193.985 100.25 192.98 97.6587 192.306C97.4814 192.26 97.3101 192.215 97.1452 192.173L100.527 178.817C100.812 178.882 101.116 178.949 101.435 179.02C104.047 179.599 107.735 180.417 110.903 181.835C112.891 182.724 114.565 183.807 115.608 185.124C116.618 186.397 117.065 187.918 116.576 189.849ZM104.419 238.535C69.3412 238.535 40.9304 210.506 40.9304 175.953C40.9304 141.401 69.3412 113.372 104.419 113.372C139.496 113.372 167.907 141.401 167.907 175.953C167.907 210.506 139.496 238.535 104.419 238.535ZM118.729 167.751C118.308 169.417 117.37 170.411 116.13 171.005C114.847 171.62 113.196 171.823 111.382 171.757C108.362 171.647 105.182 170.812 103.024 170.245C102.92 170.217 102.818 170.19 102.719 170.164L105.74 158.213C105.943 158.257 106.155 158.304 106.377 158.352C108.554 158.828 111.594 159.492 114.199 160.704C115.834 161.464 117.188 162.396 118.019 163.538C118.819 164.639 119.174 165.99 118.729 167.751Z" stroke="white" stroke-opacity="0.29" stroke-width="1.81395"/>
</g>
<g filter="url(#filter1_bii_3_1162)">
<path fill-rule="evenodd" clip-rule="evenodd" d="M88.9995 225.114C48.9248 225.114 16.4414 192.995 16.4414 153.371C16.4414 113.746 48.9248 81.6279 88.9995 81.6279C129.074 81.6279 161.558 113.746 161.558 153.371C161.558 192.995 129.074 225.114 88.9995 225.114ZM121.601 144.493C123.025 135.094 115.783 130.041 105.887 126.669L109.098 113.935L101.262 112.007L98.1328 124.405C96.074 123.893 93.9607 123.418 91.852 122.943L95.0037 110.464L87.1674 108.532L83.9567 121.261C82.2516 120.876 80.5737 120.499 78.9502 120.096L78.9593 120.055L68.1481 117.387L66.0621 125.665C66.0621 125.665 71.8804 126.983 71.7579 127.064C74.9323 127.848 75.5037 129.924 75.4085 131.574L71.7534 146.08C71.9711 146.134 72.2522 146.214 72.5697 146.336L71.7398 146.134L66.6154 166.455C66.2254 167.406 65.2413 168.836 63.0192 168.293C63.1008 168.405 57.3234 166.89 57.3234 166.89L53.4324 175.759L63.6359 178.275C65.5315 178.745 67.3908 179.239 69.2184 179.7L65.9759 192.578L73.8077 194.506L77.0184 181.772C79.1588 182.341 81.2358 182.871 83.2674 183.373L80.0658 196.053L87.9021 197.981L91.1445 185.13C104.513 187.633 114.563 186.624 118.794 174.669C122.204 165.047 118.626 159.491 111.592 155.873C116.717 154.707 120.571 151.375 121.601 144.493V144.493ZM103.688 169.325C101.271 178.952 84.8773 173.746 79.5624 172.441L83.8706 155.38C89.1855 156.693 106.223 159.29 103.688 169.325ZM106.114 144.354C103.906 153.111 90.2648 148.658 85.8433 147.569L89.7433 132.099C94.1648 133.189 108.418 135.22 106.114 144.354Z" fill="white"/>
</g>
<defs>
<filter id="filter0_f_3_1162" x="3.74437" y="76.1858" width="201.349" height="199.535" filterUnits="userSpaceOnUse" color-interpolation-filters="sRGB">
<feFlood flood-opacity="0" result="BackgroundImageFix"/>
<feBlend mode="normal" in="SourceGraphic" in2="BackgroundImageFix" result="shape"/>
<feGaussianBlur stdDeviation="18.1395" result="effect1_foregroundBlur_3_1162"/>
</filter>
<filter id="filter1_bii_3_1162" x="-10.7679" y="54.4186" width="199.535" height="197.904" filterUnits="userSpaceOnUse" color-interpolation-filters="sRGB">
<feFlood flood-opacity="0" result="BackgroundImageFix"/>
<feGaussianBlur in="BackgroundImage" stdDeviation="13.6047"/>
<feComposite in2="SourceAlpha" operator="in" result="effect1_backgroundBlur_3_1162"/>
<feBlend mode="normal" in="SourceGraphic" in2="effect1_backgroundBlur_3_1162" result="shape"/>
<feColorMatrix in="SourceAlpha" type="matrix" values="0 0 0 0 0 0 0 0 0 0 0 0 0 0 0 0 0 0 127 0" result="hardAlpha"/>
<feOffset dx="-1.81395" dy="-1.81395"/>
<feGaussianBlur stdDeviation="3.62791"/>
<feComposite in2="hardAlpha" operator="arithmetic" k2="-1" k3="1"/>
<feColorMatrix type="matrix" values="0 0 0 0 0.930905 0 0 0 0 0.753333 0 0 0 0 0.941667 0 0 0 0.2 0"/>
<feBlend mode="normal" in2="shape" result="effect2_innerShadow_3_1162"/>
<feColorMatrix in="SourceAlpha" type="matrix" values="0 0 0 0 0 0 0 0 0 0 0 0 0 0 0 0 0 0 127 0" result="hardAlpha"/>
<feOffset dx="1.81395" dy="1.81395"/>
<feGaussianBlur stdDeviation="3.62791"/>
<feComposite in2="hardAlpha" operator="arithmetic" k2="-1" k3="1"/>
<feColorMatrix type="matrix" values="0 0 0 0 1 0 0 0 0 1 0 0 0 0 1 0 0 0 0.25 0"/>
<feBlend mode="normal" in2="effect2_innerShadow_3_1162" result="effect3_innerShadow_3_1162"/>
</filter>
</defs>
</svg>
