<svg width="86" height="696" viewBox="0 0 86 696" fill="none" xmlns="http://www.w3.org/2000/svg">
<line x1="45.5" y1="2.5" x2="45.5" y2="693.5" stroke="white" stroke-opacity="0.6" stroke-width="5" stroke-linecap="round"/>
<line x1="45.5" y1="268.5" x2="45.5" y2="693.5" stroke="#1E1E1E" stroke-width="5" stroke-linecap="round"/>
<circle cx="43" cy="264" r="43" fill="#1E1E1E"/>
<path d="M24.275 255.3H35.4V257.55H26.675V263.1H34.8V265.35H26.675V273H24.275V255.3ZM39.7555 267.9C39.7555 268.417 39.8638 268.892 40.0805 269.325C40.3138 269.742 40.6138 270.1 40.9805 270.4C41.3471 270.7 41.7721 270.933 42.2555 271.1C42.7388 271.267 43.2388 271.35 43.7555 271.35C44.4555 271.35 45.0638 271.192 45.5805 270.875C46.0971 270.542 46.5721 270.108 47.0055 269.575L48.7055 270.875C47.4555 272.492 45.7055 273.3 43.4555 273.3C42.5221 273.3 41.6721 273.142 40.9055 272.825C40.1555 272.508 39.5138 272.075 38.9805 271.525C38.4638 270.958 38.0638 270.3 37.7805 269.55C37.4971 268.783 37.3555 267.958 37.3555 267.075C37.3555 266.192 37.5055 265.375 37.8055 264.625C38.1221 263.858 38.5471 263.2 39.0805 262.65C39.6305 262.083 40.2805 261.642 41.0305 261.325C41.7805 261.008 42.5971 260.85 43.4805 260.85C44.5305 260.85 45.4138 261.033 46.1305 261.4C46.8638 261.767 47.4638 262.25 47.9305 262.85C48.3971 263.433 48.7305 264.1 48.9305 264.85C49.1471 265.583 49.2555 266.333 49.2555 267.1V267.9H39.7555ZM46.8555 266.1C46.8388 265.6 46.7555 265.142 46.6055 264.725C46.4721 264.308 46.2638 263.95 45.9805 263.65C45.6971 263.333 45.3388 263.092 44.9055 262.925C44.4888 262.742 43.9971 262.65 43.4305 262.65C42.8805 262.65 42.3721 262.758 41.9055 262.975C41.4555 263.175 41.0721 263.442 40.7555 263.775C40.4388 264.108 40.1888 264.483 40.0055 264.9C39.8388 265.3 39.7555 265.7 39.7555 266.1H46.8555ZM53.6471 267.9C53.6471 268.417 53.7554 268.892 53.9721 269.325C54.2054 269.742 54.5054 270.1 54.8721 270.4C55.2387 270.7 55.6637 270.933 56.1471 271.1C56.6304 271.267 57.1304 271.35 57.6471 271.35C58.3471 271.35 58.9554 271.192 59.4721 270.875C59.9887 270.542 60.4637 270.108 60.8971 269.575L62.5971 270.875C61.3471 272.492 59.5971 273.3 57.3471 273.3C56.4137 273.3 55.5637 273.142 54.7971 272.825C54.0471 272.508 53.4054 272.075 52.8721 271.525C52.3554 270.958 51.9554 270.3 51.6721 269.55C51.3887 268.783 51.2471 267.958 51.2471 267.075C51.2471 266.192 51.3971 265.375 51.6971 264.625C52.0137 263.858 52.4387 263.2 52.9721 262.65C53.5221 262.083 54.1721 261.642 54.9221 261.325C55.6721 261.008 56.4887 260.85 57.3721 260.85C58.4221 260.85 59.3054 261.033 60.0221 261.4C60.7554 261.767 61.3554 262.25 61.8221 262.85C62.2887 263.433 62.6221 264.1 62.8221 264.85C63.0387 265.583 63.1471 266.333 63.1471 267.1V267.9H53.6471ZM60.7471 266.1C60.7304 265.6 60.6471 265.142 60.4971 264.725C60.3637 264.308 60.1554 263.95 59.8721 263.65C59.5887 263.333 59.2304 263.092 58.7971 262.925C58.3804 262.742 57.8887 262.65 57.3221 262.65C56.7721 262.65 56.2637 262.758 55.7971 262.975C55.3471 263.175 54.9637 263.442 54.6471 263.775C54.3304 264.108 54.0804 264.483 53.8971 264.9C53.7304 265.3 53.6471 265.7 53.6471 266.1H60.7471Z" fill="white"/>
</svg>
