<svg width="59" height="59" viewBox="0 0 59 59" fill="none" xmlns="http://www.w3.org/2000/svg">
<path fill-rule="evenodd" clip-rule="evenodd" d="M12.25 0.75C5.89873 0.75 0.75 5.89872 0.75 12.25V46.75C0.75 53.1013 5.89872 58.25 12.25 58.25H46.75C53.1013 58.25 58.25 53.1013 58.25 46.75V12.25C58.25 5.89873 53.1013 0.75 46.75 0.75H12.25ZM20.1562 20.875C20.1562 18.8902 21.7652 17.2812 23.75 17.2812C25.7348 17.2812 27.3438 18.8902 27.3438 20.875V38.125C27.3438 42.4915 30.8835 46.0312 35.25 46.0312C39.6165 46.0312 43.1562 42.4915 43.1562 38.125V35.25C43.1562 33.2652 44.7652 31.6562 46.75 31.6562H49.625C50.8159 31.6562 51.7812 30.6909 51.7812 29.5C51.7812 28.3091 50.8159 27.3438 49.625 27.3438H46.75C42.3835 27.3438 38.8438 30.8835 38.8438 35.25V38.125C38.8438 40.1098 37.2348 41.7188 35.25 41.7188C33.2652 41.7188 31.6562 40.1098 31.6562 38.125V20.875C31.6562 16.5085 28.1165 12.9688 23.75 12.9688C19.3835 12.9688 15.8438 16.5085 15.8438 20.875V23.75C15.8438 25.7348 14.2348 27.3438 12.25 27.3438H9.375C8.18414 27.3438 7.21875 28.3091 7.21875 29.5C7.21875 30.6909 8.18414 31.6562 9.375 31.6562H12.25C16.6165 31.6562 20.1562 28.1165 20.1562 23.75V20.875Z" fill="#FAEA61"/>
<path fill-rule="evenodd" clip-rule="evenodd" d="M23.75 17.2812C21.7652 17.2812 20.1562 18.8902 20.1562 20.875V23.75C20.1562 28.1165 16.6165 31.6562 12.25 31.6562H9.375C8.18414 31.6562 7.21875 30.6909 7.21875 29.5C7.21875 28.3091 8.18414 27.3438 9.375 27.3438H12.25C14.2348 27.3438 15.8438 25.7348 15.8438 23.75V20.875C15.8438 16.5085 19.3835 12.9688 23.75 12.9688C28.1165 12.9688 31.6562 16.5085 31.6562 20.875V38.125C31.6562 40.1098 33.2652 41.7188 35.25 41.7188C37.2348 41.7188 38.8438 40.1098 38.8438 38.125V35.25C38.8438 30.8835 42.3835 27.3438 46.75 27.3438H49.625C50.8159 27.3438 51.7812 28.3091 51.7812 29.5C51.7812 30.6909 50.8159 31.6562 49.625 31.6562H46.75C44.7652 31.6562 43.1562 33.2652 43.1562 35.25V38.125C43.1562 42.4915 39.6165 46.0312 35.25 46.0312C30.8835 46.0312 27.3438 42.4915 27.3438 38.125V20.875C27.3438 18.8902 25.7348 17.2812 23.75 17.2812Z" fill="#1E1E1E"/>
</svg>
