<svg width="52" height="52" viewBox="0 0 52 52" fill="none" xmlns="http://www.w3.org/2000/svg">
<rect x="0.166016" y="0.300293" width="51.6667" height="51.6667" rx="10.3333" fill="#BDEEFF"/>
<path fill-rule="evenodd" clip-rule="evenodd" d="M24.5151 11.9995H27.4849C29.125 11.9995 30.4546 13.2531 30.4546 14.7995C30.4546 16.5691 32.348 17.6942 33.9022 16.8481L34.0601 16.7622C35.4805 15.989 37.2967 16.4479 38.1168 17.7871L39.6016 20.212C40.4217 21.5512 39.935 23.2636 38.5146 24.0368C36.9597 24.8833 36.9597 27.1157 38.5146 27.9622C39.935 28.7354 40.4217 30.4478 39.6016 31.7871L38.1168 34.2119C37.2967 35.5512 35.4805 36.01 34.0601 35.2368L33.9022 35.1509C32.348 34.3048 30.4546 35.4299 30.4546 37.1995C30.4546 38.7459 29.125 39.9995 27.4849 39.9995H24.5151C22.875 39.9995 21.5454 38.7459 21.5454 37.1995C21.5454 35.4299 19.652 34.3048 18.0978 35.1509L17.9399 35.2368C16.5195 36.01 14.7033 35.5512 13.8832 34.212L12.3984 31.7871C11.5783 30.4479 12.065 28.7354 13.4853 27.9622C15.0403 27.1157 15.0404 24.8833 13.4854 24.0368C12.065 23.2636 11.5783 21.5512 12.3984 20.2119L13.8832 17.7871C14.7033 16.4478 16.5195 15.989 17.9399 16.7622L18.0978 16.8481C19.652 17.6942 21.5454 16.5691 21.5454 14.7995C21.5454 13.2531 22.875 11.9995 24.5151 11.9995ZM26 30.6662C28.5773 30.6662 30.6667 28.5768 30.6667 25.9995C30.6667 23.4222 28.5773 21.3328 26 21.3328C23.4227 21.3328 21.3333 23.4222 21.3333 25.9995C21.3333 28.5768 23.4227 30.6662 26 30.6662Z" fill="#1E1E1E"/>
</svg>
