<svg width="57" height="57" viewBox="0 0 57 57" fill="none" xmlns="http://www.w3.org/2000/svg">
<path d="M45.251 0.584106H11.751C5.58378 0.584106 0.58429 5.58359 0.58429 11.7508V45.2508C0.58429 51.4179 5.58377 56.4174 11.7509 56.4174H45.251C51.4181 56.4174 56.4176 51.418 56.4176 45.2508V11.7508C56.4176 5.58359 51.4181 0.584106 45.251 0.584106Z" fill="#DBC5FF"/>
<path fill-rule="evenodd" clip-rule="evenodd" d="M32.7141 9.80568C33.7888 9.37896 35.006 9.90428 35.4327 10.979L37.6519 16.5683C37.9794 17.393 37.7514 18.3345 37.0831 18.9181C36.4147 19.5017 35.4511 19.6007 34.6781 19.1651C32.8857 18.155 30.774 17.5676 28.5016 17.5676C21.8106 17.5676 16.637 22.5967 16.637 28.5017C16.637 29.4636 16.7714 30.3939 17.023 31.2791C17.3392 32.3914 16.6939 33.5494 15.5816 33.8656C14.4693 34.1818 13.3113 33.5365 12.9951 32.4242C12.639 31.1716 12.4495 29.8561 12.4495 28.5017C12.4495 20.0166 19.7747 13.3801 28.5016 13.3801C29.7106 13.3801 30.8902 13.5063 32.0258 13.746L31.5408 12.5243C31.114 11.4496 31.6394 10.2324 32.7141 9.80568ZM41.4216 23.1377C42.5339 22.8215 43.6919 23.4669 44.0081 24.5791C44.3642 25.8317 44.5537 27.1472 44.5537 28.5017C44.5537 36.9868 37.2285 43.6232 28.5016 43.6232C27.2926 43.6232 26.113 43.497 24.9774 43.2574L25.4625 44.479C25.8892 45.5537 25.3639 46.7709 24.2891 47.1976C23.2144 47.6243 21.9972 47.099 21.5705 46.0243L19.3512 40.4349C19.0238 39.6103 19.2517 38.6688 19.9201 38.0852C20.5884 37.5016 21.5521 37.4026 22.3251 37.8382C24.1175 38.8483 26.2291 39.4357 28.5016 39.4357C35.1926 39.4357 40.3662 34.4066 40.3662 28.5017C40.3662 27.5397 40.2318 26.6095 39.9802 25.7242C39.664 24.6119 40.3093 23.4539 41.4216 23.1377Z" fill="#1E1E1E"/>
</svg>
