<svg width="84" height="76" viewBox="0 0 84 76" fill="none" xmlns="http://www.w3.org/2000/svg">
<rect x="84" y="0.399902" width="75.6" height="84" rx="16.8" transform="rotate(90 84 0.399902)" fill="#FDFF95"/>
<path fill-rule="evenodd" clip-rule="evenodd" d="M33.6016 28.7502C28.3825 28.7502 24.1516 32.9811 24.1516 38.2002C24.1516 43.4193 28.3825 47.6502 33.6016 47.6502C34.9066 47.6502 36.148 47.3868 37.2773 46.9096C35.6197 44.4157 34.6516 41.42 34.6516 38.2002C34.6516 34.9804 35.6197 31.9847 37.2773 29.4908C36.148 29.0136 34.9066 28.7502 33.6016 28.7502ZM42.0016 24.8754C39.5703 23.3402 36.6877 22.4502 33.6016 22.4502C24.9031 22.4502 17.8516 29.5017 17.8516 38.2002C17.8516 46.8987 24.9031 53.9502 33.6016 53.9502C36.6877 53.9502 39.5703 53.0602 42.0016 51.525C44.4328 53.0602 47.3154 53.9502 50.4016 53.9502C59.1 53.9502 66.1516 46.8987 66.1516 38.2002C66.1516 29.5017 59.1 22.4502 50.4016 22.4502C47.3154 22.4502 44.4328 23.3402 42.0016 24.8754ZM50.4016 28.7502C47.9792 28.7502 45.7763 29.6575 44.1023 31.1557C42.164 32.8906 40.9516 35.4017 40.9516 38.2002C40.9516 40.9987 42.164 43.5098 44.1023 45.2447C45.7763 46.7429 47.9792 47.6502 50.4016 47.6502C55.6207 47.6502 59.8516 43.4193 59.8516 38.2002C59.8516 32.9811 55.6207 28.7502 50.4016 28.7502Z" fill="#1E1E1E"/>
</svg>
