<svg width="49" height="48" viewBox="0 0 49 48" fill="none" xmlns="http://www.w3.org/2000/svg">
<g filter="url(#filter0_bii_8_15896)">
<path d="M30.2042 12.5971C28.7291 12.5291 28.2853 12.5171 24.5493 12.5171C20.8134 12.5171 20.3716 12.5311 18.8964 12.5971C15.1005 12.771 13.3335 14.568 13.1596 18.3339C13.0936 19.8091 13.0776 20.2509 13.0776 23.9868C13.0776 27.7228 13.0936 28.1646 13.1596 29.6417C13.3335 33.3977 15.0925 35.2047 18.8964 35.3786C20.3696 35.4446 20.8134 35.4605 24.5493 35.4605C28.2873 35.4605 28.7291 35.4466 30.2042 35.3786C34.0002 35.2067 35.7652 33.4037 35.9411 29.6417C36.0071 28.1666 36.0211 27.7228 36.0211 23.9868C36.0211 20.2509 36.0071 19.8091 35.9411 18.3339C35.7652 14.57 33.9962 12.771 30.2042 12.5971V12.5971ZM24.5493 31.1729C20.5815 31.1729 17.3633 27.9567 17.3633 23.9868C17.3633 20.019 20.5815 16.8028 24.5493 16.8028C28.5172 16.8028 31.7354 20.019 31.7354 23.9868C31.7354 27.9547 28.5172 31.1729 24.5493 31.1729ZM32.0192 18.198C31.0918 18.198 30.3402 17.4464 30.3402 16.5189C30.3402 15.5914 31.0918 14.8399 32.0192 14.8399C32.9467 14.8399 33.6983 15.5914 33.6983 16.5189C33.6983 17.4444 32.9467 18.198 32.0192 18.198V18.198ZM29.2128 23.9868C29.2128 26.5634 27.1239 28.6503 24.5493 28.6503C21.9748 28.6503 19.8859 26.5634 19.8859 23.9868C19.8859 21.4103 21.9748 19.3234 24.5493 19.3234C27.1239 19.3234 29.2128 21.4103 29.2128 23.9868ZM24.5493 0C11.3026 0 0.5625 10.7401 0.5625 23.9868C0.5625 37.2336 11.3026 47.9737 24.5493 47.9737C37.7961 47.9737 48.5362 37.2336 48.5362 23.9868C48.5362 10.7401 37.7961 0 24.5493 0ZM38.4577 29.7557C38.2278 34.8429 35.3954 37.6613 30.3202 37.8952C28.827 37.9632 28.3493 37.9792 24.5493 37.9792C20.7494 37.9792 20.2737 37.9632 18.7805 37.8952C13.6953 37.6613 10.8748 34.8389 10.641 29.7557C10.573 28.2645 10.557 27.7868 10.557 23.9868C10.557 20.1869 10.573 19.7112 10.641 18.218C10.8748 13.1328 13.6973 10.3123 18.7805 10.0805C20.2737 10.0105 20.7494 9.99452 24.5493 9.99452C28.3493 9.99452 28.827 10.0105 30.3202 10.0805C35.4074 10.3143 38.2298 13.1428 38.4577 18.218C38.5257 19.7112 38.5417 20.1869 38.5417 23.9868C38.5417 27.7868 38.5257 28.2645 38.4577 29.7557Z" fill="#FFB5FC"/>
</g>
<defs>
<filter id="filter0_bii_8_15896" x="-9.6437" y="-10.2062" width="68.3861" height="68.386" filterUnits="userSpaceOnUse" color-interpolation-filters="sRGB">
<feFlood flood-opacity="0" result="BackgroundImageFix"/>
<feGaussianBlur in="BackgroundImage" stdDeviation="5.1031"/>
<feComposite in2="SourceAlpha" operator="in" result="effect1_backgroundBlur_8_15896"/>
<feBlend mode="normal" in="SourceGraphic" in2="effect1_backgroundBlur_8_15896" result="shape"/>
<feColorMatrix in="SourceAlpha" type="matrix" values="0 0 0 0 0 0 0 0 0 0 0 0 0 0 0 0 0 0 127 0" result="hardAlpha"/>
<feOffset dx="0.680413" dy="0.680413"/>
<feGaussianBlur stdDeviation="1.36083"/>
<feComposite in2="hardAlpha" operator="arithmetic" k2="-1" k3="1"/>
<feColorMatrix type="matrix" values="0 0 0 0 1 0 0 0 0 1 0 0 0 0 1 0 0 0 0.51 0"/>
<feBlend mode="normal" in2="shape" result="effect2_innerShadow_8_15896"/>
<feColorMatrix in="SourceAlpha" type="matrix" values="0 0 0 0 0 0 0 0 0 0 0 0 0 0 0 0 0 0 127 0" result="hardAlpha"/>
<feOffset dx="-0.680413" dy="-0.680413"/>
<feGaussianBlur stdDeviation="1.36083"/>
<feComposite in2="hardAlpha" operator="arithmetic" k2="-1" k3="1"/>
<feColorMatrix type="matrix" values="0 0 0 0 0.875 0 0 0 0 0.464479 0 0 0 0 0.608716 0 0 0 0.28 0"/>
<feBlend mode="normal" in2="effect2_innerShadow_8_15896" result="effect3_innerShadow_8_15896"/>
</filter>
</defs>
</svg>
