<svg width="1440" height="1540" viewBox="0 0 1440 1540" fill="none" xmlns="http://www.w3.org/2000/svg">
<g clip-path="url(#clip0_46_17706)">
<rect width="1440" height="1540" fill="white"/>
<g opacity="0.19" filter="url(#filter0_f_46_17706)">
<circle cx="1224.5" cy="477.5" r="352.5" fill="#FFA5BB"/>
</g>
<path opacity="0.7" d="M1301.5 219C1301.5 265.663 1263.23 303.5 1216 303.5C1168.77 303.5 1130.5 265.663 1130.5 219C1130.5 172.337 1168.77 134.5 1216 134.5C1263.23 134.5 1301.5 172.337 1301.5 219Z" stroke="#FFDCE7" stroke-opacity="0.68"/>
<path opacity="0.7" d="M1276.36 219C1276.36 251.938 1249.34 278.647 1216 278.647C1182.67 278.647 1155.65 251.938 1155.65 219C1155.65 186.062 1182.67 159.353 1216 159.353C1249.34 159.353 1276.36 186.062 1276.36 219Z" stroke="#FEBED2" stroke-opacity="0.68" stroke-width="0.705882"/>
<path d="M1344.46 645.539L1352.31 641.885L1345.22 636.912L1344.46 645.539ZM1355.75 630.072C1358.01 626.466 1360.14 622.898 1362.13 619.367L1360.82 618.63C1358.84 622.14 1356.73 625.688 1354.48 629.275L1355.75 630.072ZM1368.07 608.18C1369.97 604.352 1371.72 600.569 1373.31 596.828L1371.93 596.239C1370.35 599.952 1368.61 603.71 1366.72 607.512L1368.07 608.18ZM1377.89 585.099C1379.32 581.035 1380.57 577.022 1381.66 573.059L1380.21 572.663C1379.14 576.591 1377.89 580.569 1376.47 584.6L1377.89 585.099ZM1384.49 560.95C1385.31 556.699 1385.93 552.506 1386.38 548.367L1384.89 548.207C1384.45 552.303 1383.83 556.455 1383.01 560.666L1384.49 560.95ZM1387.18 535.829C1387.27 531.593 1387.16 527.416 1386.88 523.293L1385.39 523.395C1385.66 527.473 1385.76 531.607 1385.68 535.798L1387.18 535.829ZM1385.48 510.725C1384.83 506.555 1384 502.442 1383.01 498.383L1381.56 498.737C1382.53 502.757 1383.35 506.829 1383.99 510.957L1385.48 510.725ZM1379.57 486.28C1378.26 482.288 1376.81 478.348 1375.23 474.455L1373.84 475.02C1375.41 478.882 1376.85 482.79 1378.14 486.745L1379.57 486.28ZM1370.12 462.961C1368.31 459.191 1366.38 455.464 1364.35 451.776L1363.04 452.499C1365.05 456.164 1366.97 459.867 1368.77 463.611L1370.12 462.961ZM1358.03 440.888C1355.85 437.327 1353.59 433.802 1351.27 430.307L1350.02 431.138C1352.33 434.618 1354.58 438.128 1356.75 441.671L1358.03 440.888ZM1344.13 419.958C1341.7 416.549 1339.22 413.169 1336.71 409.812L1335.51 410.712C1338.02 414.06 1340.49 417.431 1342.91 420.828L1344.13 419.958ZM1329.08 399.84C1326.5 396.534 1323.9 393.249 1321.29 389.981L1320.12 390.917C1322.73 394.181 1325.32 397.462 1327.89 400.762L1329.08 399.84ZM1313.42 380.204C1310.78 376.938 1308.15 373.695 1305.53 370.456L1304.37 371.399C1306.98 374.634 1309.62 377.888 1312.26 381.148L1313.42 380.204ZM1297.66 360.664C1295.04 357.374 1292.45 354.092 1289.91 350.815L1288.72 351.734C1291.27 355.018 1293.86 358.305 1296.49 361.599L1297.66 360.664ZM1282.36 340.868C1279.84 337.468 1277.39 334.07 1275.03 330.67L1273.79 331.526C1276.17 334.941 1278.63 338.351 1281.15 341.761L1282.36 340.868ZM1268.08 320.239C1265.81 316.677 1263.66 313.108 1261.65 309.528L1260.34 310.264C1262.37 313.87 1264.53 317.462 1266.81 321.044L1268.08 320.239ZM1255.89 298.481C1254.07 294.677 1252.43 290.856 1250.98 287.013L1249.57 287.543C1251.04 291.429 1252.7 295.289 1254.54 299.127L1255.89 298.481ZM1247.15 275.137C1246.08 271.109 1245.25 267.05 1244.66 262.956L1243.18 263.167C1243.77 267.323 1244.62 271.44 1245.7 275.522L1247.15 275.137ZM1243.71 250.589C1243.66 246.504 1243.89 242.376 1244.4 238.201L1242.91 238.017C1242.39 242.26 1242.16 246.454 1242.21 250.606L1243.71 250.589ZM1246.74 225.945C1247.74 222.051 1249.01 218.111 1250.56 214.121L1249.16 213.579C1247.59 217.622 1246.3 221.617 1245.28 225.57L1246.74 225.945ZM1255.61 202.876C1257.43 199.292 1259.49 195.667 1261.79 191.997L1260.52 191.201C1258.2 194.906 1256.12 198.57 1254.27 202.194L1255.61 202.876ZM1268.84 181.642C1271.19 178.445 1273.72 175.213 1276.45 171.946L1275.3 170.985C1272.55 174.275 1270 177.531 1267.63 180.754L1268.84 181.642ZM1284.9 162.36C1287.58 159.476 1290.41 156.565 1293.39 153.625L1292.33 152.557C1289.34 155.512 1286.49 158.439 1283.8 161.339L1284.9 162.36ZM1302.68 144.82C1305.6 142.15 1308.66 139.456 1311.84 136.737L1310.86 135.597C1307.67 138.325 1304.61 141.03 1301.67 143.712L1302.68 144.82ZM1321.56 128.676C1323.25 127.32 1324.96 125.958 1326.71 124.591L1325.78 123.409C1324.03 124.781 1322.31 126.147 1320.62 127.507L1321.56 128.676Z" fill="#1E1E1E"/>
<g filter="url(#filter1_f_46_17706)">
<path fill-rule="evenodd" clip-rule="evenodd" d="M1224.5 266C1204.89 266 1189 250.331 1189 231C1189 211.669 1204.89 196 1224.5 196C1244.11 196 1260 211.669 1260 231C1260 250.331 1244.11 266 1224.5 266ZM1240.45 226.669C1241.15 222.084 1237.6 219.618 1232.76 217.973L1234.33 211.761L1230.5 210.82L1228.97 216.869C1227.96 216.619 1226.93 216.387 1225.9 216.156L1227.44 210.068L1223.6 209.125L1222.03 215.335C1221.2 215.147 1220.38 214.963 1219.58 214.767L1219.59 214.747L1214.3 213.445L1213.28 217.483C1213.28 217.483 1216.12 218.127 1216.06 218.166C1217.62 218.549 1217.9 219.562 1217.85 220.367L1216.06 227.443C1216.17 227.469 1216.31 227.509 1216.46 227.568L1216.06 227.469L1213.55 237.383C1213.36 237.847 1212.88 238.545 1211.79 238.28C1211.83 238.335 1209 237.595 1209 237.595L1207.1 241.922L1212.09 243.149C1213.02 243.379 1213.93 243.62 1214.82 243.845L1213.24 250.127L1217.07 251.068L1218.64 244.856C1219.69 245.133 1220.7 245.392 1221.7 245.637L1220.13 251.823L1223.96 252.763L1225.55 246.494C1232.09 247.715 1237.01 247.222 1239.08 241.391C1240.75 236.696 1239 233.986 1235.55 232.221C1238.06 231.652 1239.95 230.027 1240.45 226.669V226.669ZM1231.69 238.783C1230.5 243.48 1222.48 240.94 1219.88 240.303L1221.99 231.98C1224.59 232.621 1232.93 233.888 1231.69 238.783ZM1232.87 226.601C1231.79 230.873 1225.12 228.701 1222.96 228.169L1224.86 220.622C1227.03 221.154 1234 222.145 1232.87 226.601Z" fill="#F49BAB" fill-opacity="0.3"/>
<path d="M1228.61 216.265C1227.91 216.098 1227.21 215.939 1226.51 215.78L1227.92 210.191L1228.05 209.703L1227.56 209.582L1223.72 208.639L1223.24 208.521L1223.12 209.002L1221.67 214.74C1221.16 214.626 1220.67 214.513 1220.18 214.397L1220.18 214.379L1219.71 214.261L1214.42 212.96L1213.94 212.841L1213.81 213.323L1212.79 217.361L1212.67 217.858L1213.17 217.971L1213.28 217.483L1213.17 217.971L1213.17 217.971L1213.17 217.971L1213.17 217.972L1213.18 217.973L1213.2 217.978L1213.29 217.999C1213.37 218.016 1213.48 218.042 1213.61 218.072C1213.88 218.133 1214.23 218.214 1214.58 218.297C1214.67 218.319 1214.76 218.34 1214.86 218.362L1214.83 218.377L1215.94 218.651C1216.62 218.819 1216.96 219.105 1217.14 219.378C1217.31 219.649 1217.37 219.969 1217.35 220.292L1215.6 227.243L1215.58 227.321L1215.57 227.347L1213.07 237.224C1213 237.4 1212.88 237.581 1212.71 237.697C1212.56 237.806 1212.32 237.895 1211.91 237.794L1210.58 237.471L1210.59 237.488C1210.57 237.483 1210.55 237.478 1210.53 237.474C1210.18 237.385 1209.83 237.294 1209.57 237.226L1209.25 237.143L1209.16 237.12L1209.14 237.114L1209.13 237.112L1209.13 237.112L1209.13 237.112L1209.13 237.112L1209 237.595L1209.13 237.112L1208.72 237.004L1208.54 237.394L1206.64 241.721L1206.4 242.266L1206.98 242.408L1211.97 243.635C1212.51 243.768 1213.03 243.902 1213.55 244.037C1213.77 244.094 1213.99 244.15 1214.21 244.207L1212.75 250.005L1212.63 250.493L1213.12 250.613L1216.95 251.554L1217.43 251.672L1217.55 251.191L1219 245.468C1219.71 245.654 1220.4 245.831 1221.09 246.001L1219.64 251.7L1219.52 252.188L1220.01 252.308L1223.84 253.249L1224.33 253.367L1224.45 252.886L1225.92 247.069C1229.02 247.616 1231.82 247.767 1234.14 247.065C1236.61 246.316 1238.47 244.61 1239.55 241.558C1240.41 239.131 1240.42 237.141 1239.69 235.504C1239.11 234.204 1238.1 233.184 1236.81 232.361C1237.68 232.023 1238.46 231.526 1239.12 230.834C1240.05 229.849 1240.68 228.503 1240.94 226.744C1241.32 224.285 1240.55 222.365 1239.04 220.864C1237.64 219.477 1235.63 218.459 1233.36 217.652L1234.82 211.884L1234.94 211.395L1234.45 211.275L1230.62 210.335L1230.14 210.216L1230.01 210.698L1228.61 216.265ZM1231.2 238.66L1231.2 238.661C1230.95 239.668 1230.34 240.275 1229.51 240.632C1228.65 241.001 1227.55 241.106 1226.34 241.044C1224.33 240.94 1222.2 240.387 1220.77 240.015C1220.68 239.99 1220.58 239.965 1220.49 239.942L1222.35 232.579C1222.51 232.614 1222.68 232.652 1222.86 232.691C1224.29 233.01 1226.33 233.461 1228.07 234.242C1229.17 234.733 1230.09 235.33 1230.67 236.056C1231.23 236.758 1231.47 237.596 1231.2 238.66ZM1224.5 265.5C1205.16 265.5 1189.5 250.048 1189.5 231C1189.5 211.952 1205.16 196.5 1224.5 196.5C1243.84 196.5 1259.5 211.952 1259.5 231C1259.5 250.048 1243.84 265.5 1224.5 265.5ZM1232.39 226.478C1232.16 227.396 1231.64 227.945 1230.96 228.272C1230.25 228.611 1229.34 228.723 1228.34 228.687C1226.67 228.626 1224.92 228.166 1223.73 227.853C1223.67 227.838 1223.62 227.823 1223.56 227.809L1225.23 221.22C1225.34 221.245 1225.46 221.27 1225.58 221.297C1226.78 221.559 1228.46 221.925 1229.89 222.593C1230.79 223.013 1231.54 223.526 1232 224.156C1232.44 224.763 1232.63 225.507 1232.39 226.478Z" stroke="white" stroke-opacity="0.29"/>
</g>
<g filter="url(#filter2_bii_46_17706)">
<path fill-rule="evenodd" clip-rule="evenodd" d="M1216 258.101C1193.91 258.101 1176 240.395 1176 218.551C1176 196.706 1193.91 179 1216 179C1238.09 179 1256 196.706 1256 218.551C1256 240.395 1238.09 258.101 1216 258.101ZM1233.97 213.656C1234.76 208.475 1230.77 205.689 1225.31 203.83L1227.08 196.81L1222.76 195.747L1221.03 202.582C1219.9 202.3 1218.73 202.038 1217.57 201.776L1219.31 194.897L1214.99 193.831L1213.22 200.849C1212.28 200.637 1211.36 200.429 1210.46 200.207L1210.47 200.184L1204.51 198.713L1203.36 203.277C1203.36 203.277 1206.56 204.003 1206.49 204.048C1208.24 204.48 1208.56 205.625 1208.51 206.535L1206.49 214.531C1206.61 214.561 1206.77 214.605 1206.94 214.672L1206.49 214.561L1203.66 225.764C1203.45 226.288 1202.9 227.076 1201.68 226.777C1201.72 226.839 1198.54 226.003 1198.54 226.003L1196.39 230.893L1202.02 232.28C1203.06 232.539 1204.09 232.811 1205.09 233.066L1203.31 240.165L1207.62 241.228L1209.39 234.208C1210.57 234.522 1211.72 234.813 1212.84 235.09L1211.07 242.081L1215.4 243.144L1217.18 236.059C1224.55 237.438 1230.09 236.882 1232.42 230.292C1234.3 224.987 1232.33 221.925 1228.46 219.93C1231.28 219.287 1233.4 217.451 1233.97 213.656V213.656ZM1224.1 227.346C1222.77 232.653 1213.73 229.783 1210.8 229.064L1213.17 219.658C1216.1 220.382 1225.5 221.813 1224.1 227.346ZM1225.44 213.58C1224.22 218.407 1216.7 215.953 1214.26 215.352L1216.41 206.824C1218.85 207.424 1226.71 208.544 1225.44 213.58Z" fill="white" fill-opacity="0.7"/>
</g>
<g filter="url(#filter3_f_46_17706)">
<path fill-rule="evenodd" clip-rule="evenodd" d="M1189 454C1176.3 454 1166 443.703 1166 431C1166 418.297 1176.3 408 1189 408C1201.7 408 1212 418.297 1212 431C1212 443.703 1201.7 454 1189 454ZM1182.72 437.233C1182.5 437.003 1182.23 436.819 1181.93 436.694C1181.64 436.569 1181.32 436.504 1181 436.504C1180.68 436.503 1180.36 436.567 1180.06 436.692C1179.77 436.816 1179.5 436.999 1179.27 437.229C1178.81 437.694 1178.55 438.328 1178.55 438.99C1178.55 439.651 1178.81 440.283 1179.27 440.751C1180.23 441.719 1181.77 441.718 1182.72 440.746C1183.67 439.775 1183.67 438.202 1182.72 437.233V437.233ZM1198.63 420.544C1198.18 420.356 1197.69 420.307 1197.21 420.404C1196.74 420.5 1196.3 420.737 1195.97 421.084C1195.51 421.554 1195.25 422.185 1195.25 422.842C1195.25 423.502 1195.51 424.135 1195.97 424.6C1196.66 425.31 1197.71 425.523 1198.63 425.139C1199.54 424.756 1200.13 423.847 1200.13 422.842C1200.13 421.836 1199.54 420.93 1198.63 420.545V420.544ZM1182.4 435.317L1184.98 437.94L1187.34 435.537C1186.75 435.295 1186.22 434.938 1185.78 434.486C1185.33 434.034 1184.99 433.497 1184.76 432.908L1182.4 435.317ZM1196.34 426.495L1193.77 423.871L1191.41 426.275C1191.99 426.512 1192.52 426.869 1192.96 427.32C1193.4 427.768 1193.75 428.306 1193.98 428.898L1196.34 426.495ZM1195.35 437.912C1195.17 438.366 1195.12 438.864 1195.21 439.345C1195.31 439.827 1195.54 440.27 1195.88 440.621C1196.34 441.088 1196.96 441.351 1197.61 441.351C1198.26 441.351 1198.88 441.088 1199.33 440.621C1199.68 440.27 1199.91 439.827 1200 439.345C1200.1 438.864 1200.05 438.366 1199.86 437.912C1199.68 437.46 1199.37 437.073 1198.97 436.8C1198.57 436.527 1198.1 436.38 1197.61 436.378C1196.62 436.378 1195.73 436.983 1195.35 437.912ZM1178.99 421.671C1178.8 422.125 1178.75 422.623 1178.85 423.104C1178.94 423.586 1179.17 424.029 1179.52 424.38C1179.98 424.846 1180.59 425.109 1181.24 425.109C1181.89 425.109 1182.51 424.846 1182.97 424.38C1183.31 424.029 1183.54 423.586 1183.64 423.104C1183.73 422.623 1183.68 422.125 1183.5 421.671C1183.32 421.219 1183.01 420.832 1182.61 420.558C1182.2 420.285 1181.73 420.138 1181.24 420.135C1180.26 420.135 1179.37 420.741 1178.99 421.671ZM1193.57 437.834L1196.15 435.21L1193.79 432.807C1193.56 433.397 1193.21 433.934 1192.77 434.386C1192.32 434.839 1191.79 435.196 1191.21 435.438L1193.57 437.834ZM1185.17 423.732L1182.6 426.357L1184.96 428.76C1185.19 428.167 1185.54 427.628 1185.98 427.176C1186.43 426.725 1186.95 426.371 1187.53 426.137L1185.17 423.732ZM1189.4 421.603C1190.75 421.603 1191.85 420.489 1191.85 419.113C1191.85 418.453 1191.59 417.82 1191.13 417.354C1190.91 417.123 1190.64 416.94 1190.34 416.815C1190.04 416.69 1189.72 416.625 1189.4 416.625C1188.05 416.625 1186.96 417.739 1186.96 419.113C1186.96 420.488 1188.05 421.603 1189.4 421.603H1189.4ZM1191.85 442.887C1191.85 442.225 1191.59 441.593 1191.13 441.126C1190.91 440.895 1190.64 440.712 1190.34 440.587C1190.04 440.462 1189.73 440.397 1189.4 440.397C1188.05 440.397 1186.96 441.511 1186.96 442.887C1186.96 444.262 1188.05 445.375 1189.4 445.375C1190.75 445.375 1191.85 444.261 1191.85 442.887ZM1190.29 422.905H1188.75V425.987C1189.26 425.898 1189.78 425.898 1190.29 425.987V422.905ZM1190.29 436.148C1189.78 436.238 1189.26 436.238 1188.75 436.148V439.231H1190.29V436.148ZM1197.96 431.272C1198.1 431.648 1198.34 431.982 1198.65 432.242C1198.96 432.502 1199.33 432.681 1199.73 432.761C1200.12 432.842 1200.53 432.821 1200.92 432.702C1201.31 432.583 1201.66 432.369 1201.94 432.08C1202.4 431.612 1202.66 430.978 1202.66 430.319C1202.66 429.312 1202.06 428.404 1201.15 428.019C1200.7 427.831 1200.21 427.782 1199.73 427.879C1199.26 427.975 1198.82 428.212 1198.49 428.559C1198.14 428.911 1197.91 429.354 1197.82 429.836C1197.72 430.318 1197.77 430.817 1197.96 431.272V431.272ZM1175.34 430.741C1175.34 432.115 1176.44 433.23 1177.79 433.23C1178.43 433.23 1179.06 432.968 1179.52 432.501C1179.97 432.035 1180.23 431.401 1180.23 430.741C1180.23 429.366 1179.14 428.251 1177.79 428.253C1176.44 428.253 1175.34 429.367 1175.34 430.741ZM1197.03 431.525V429.956H1194C1194.09 430.474 1194.09 431.004 1194 431.522L1197.03 431.525ZM1184.6 431.525C1184.51 431.006 1184.51 430.476 1184.6 429.958H1181.58V431.525H1184.6ZM1189.33 434.453C1191.24 434.453 1192.79 432.873 1192.79 430.925C1192.79 428.976 1191.24 427.398 1189.33 427.396C1187.42 427.396 1185.87 428.976 1185.87 430.925C1185.87 432.874 1187.42 434.453 1189.33 434.453Z" fill="#FF8CAE" fill-opacity="0.31"/>
</g>
<g filter="url(#filter4_bii_46_17706)">
<path fill-rule="evenodd" clip-rule="evenodd" d="M1177.5 445C1163.42 445 1152 433.584 1152 419.5C1152 405.416 1163.42 394 1177.5 394C1191.58 394 1203 405.416 1203 419.5C1203 433.584 1191.58 445 1177.5 445ZM1170.54 426.411C1170.29 426.155 1169.99 425.952 1169.67 425.813C1169.34 425.674 1168.99 425.602 1168.63 425.602C1168.27 425.601 1167.92 425.672 1167.59 425.81C1167.26 425.948 1166.96 426.151 1166.72 426.406C1166.21 426.922 1165.92 427.625 1165.92 428.358C1165.92 429.091 1166.21 429.792 1166.72 430.31C1167.77 431.385 1169.49 431.383 1170.54 430.306C1171.6 429.228 1171.6 427.485 1170.54 426.411V426.411ZM1188.17 407.907C1187.68 407.699 1187.13 407.645 1186.61 407.752C1186.08 407.859 1185.6 408.122 1185.22 408.506C1184.71 409.027 1184.43 409.727 1184.43 410.455C1184.43 411.187 1184.71 411.888 1185.22 412.405C1186 413.192 1187.16 413.428 1188.17 413.002C1189.18 412.577 1189.84 411.569 1189.84 410.455C1189.84 409.34 1189.18 408.336 1188.17 407.909V407.907ZM1170.18 424.286L1173.04 427.195L1175.65 424.53C1175.01 424.262 1174.42 423.866 1173.93 423.365C1173.43 422.864 1173.05 422.269 1172.79 421.615L1170.18 424.286ZM1185.64 414.505L1182.78 411.597L1180.17 414.261C1180.81 414.524 1181.4 414.92 1181.89 415.42C1182.38 415.917 1182.77 416.513 1183.02 417.17L1185.64 414.505ZM1184.54 427.163C1184.34 427.666 1184.29 428.219 1184.39 428.752C1184.49 429.286 1184.75 429.778 1185.13 430.167C1185.64 430.685 1186.33 430.977 1187.04 430.977C1187.76 430.977 1188.45 430.685 1188.96 430.167C1189.34 429.778 1189.59 429.286 1189.7 428.753C1189.8 428.219 1189.75 427.666 1189.55 427.163C1189.35 426.663 1189 426.234 1188.55 425.931C1188.11 425.628 1187.58 425.465 1187.04 425.462C1185.95 425.462 1184.96 426.133 1184.54 427.163ZM1166.4 409.157C1166.19 409.66 1166.14 410.213 1166.24 410.746C1166.35 411.28 1166.61 411.771 1166.99 412.161C1167.49 412.677 1168.18 412.969 1168.9 412.969C1169.62 412.969 1170.31 412.677 1170.81 412.161C1171.19 411.771 1171.45 411.28 1171.55 410.746C1171.66 410.213 1171.61 409.66 1171.4 409.157C1171.2 408.656 1170.86 408.227 1170.41 407.923C1169.96 407.62 1169.44 407.457 1168.9 407.454C1167.81 407.454 1166.82 408.125 1166.4 409.157ZM1182.57 427.077L1185.42 424.168L1182.81 421.503C1182.55 422.158 1182.17 422.753 1181.68 423.255C1181.18 423.756 1180.6 424.152 1179.95 424.42L1182.57 427.077ZM1173.26 411.442L1170.4 414.352L1173.02 417.017C1173.28 416.359 1173.67 415.761 1174.16 415.261C1174.65 414.76 1175.23 414.368 1175.87 414.108L1173.26 411.442ZM1177.95 409.082C1179.44 409.082 1180.66 407.846 1180.66 406.321C1180.66 405.59 1180.37 404.887 1179.86 404.371C1179.61 404.115 1179.32 403.912 1178.99 403.773C1178.66 403.634 1178.3 403.563 1177.95 403.562C1176.45 403.562 1175.24 404.798 1175.24 406.321C1175.24 407.845 1176.45 409.082 1177.95 409.082H1177.95ZM1180.66 432.679C1180.66 431.946 1180.37 431.244 1179.86 430.726C1179.61 430.471 1179.32 430.268 1178.99 430.129C1178.66 429.99 1178.3 429.919 1177.95 429.918C1176.45 429.918 1175.24 431.153 1175.24 432.679C1175.24 434.204 1176.45 435.438 1177.95 435.438C1179.44 435.438 1180.66 434.202 1180.66 432.679ZM1178.93 410.526H1177.23V413.943C1177.79 413.843 1178.37 413.843 1178.93 413.943V410.526ZM1178.93 425.207C1178.37 425.307 1177.79 425.307 1177.23 425.207V428.626H1178.93V425.207ZM1187.43 419.801C1187.59 420.219 1187.86 420.589 1188.2 420.877C1188.54 421.166 1188.95 421.364 1189.39 421.453C1189.83 421.542 1190.29 421.519 1190.72 421.387C1191.15 421.255 1191.53 421.018 1191.85 420.697C1192.36 420.179 1192.64 419.476 1192.64 418.745C1192.64 417.629 1191.98 416.622 1190.97 416.195C1190.47 415.987 1189.93 415.932 1189.4 416.039C1188.87 416.146 1188.39 416.409 1188.02 416.794C1187.64 417.184 1187.38 417.676 1187.27 418.21C1187.17 418.744 1187.22 419.297 1187.43 419.801V419.801ZM1162.36 419.213C1162.36 420.737 1163.57 421.972 1165.07 421.972C1165.79 421.972 1166.48 421.682 1166.98 421.164C1167.49 420.648 1167.78 419.945 1167.78 419.213C1167.78 417.688 1166.56 416.453 1165.07 416.454C1163.57 416.454 1162.36 417.689 1162.36 419.213ZM1186.4 420.082V418.343H1183.05C1183.14 418.917 1183.14 419.505 1183.05 420.079L1186.4 420.082ZM1172.62 420.082C1172.53 419.507 1172.53 418.919 1172.62 418.345H1169.27V420.082H1172.62ZM1177.87 423.328C1179.99 423.328 1181.71 421.577 1181.71 419.417C1181.71 417.256 1179.99 415.506 1177.87 415.504C1175.75 415.504 1174.03 417.256 1174.03 419.417C1174.03 421.578 1175.75 423.328 1177.87 423.328Z" fill="white" fill-opacity="0.7"/>
</g>
<circle cx="1178" cy="420" r="45.5" stroke="#FFC8E6" stroke-opacity="0.73"/>
<circle cx="1177.5" cy="419.5" r="68" stroke="#FFDBEF" stroke-opacity="0.73"/>
<g filter="url(#filter5_f_46_17706)">
<path fill-rule="evenodd" clip-rule="evenodd" d="M1397.46 900.865C1381.19 898.004 1370.35 882.324 1373.25 865.842C1376.15 849.36 1391.69 838.32 1407.95 841.182C1424.22 844.043 1435.06 859.722 1432.16 876.204C1429.26 892.686 1413.72 903.727 1397.46 900.865ZM1406.97 867.529L1407.74 863.117L1417.71 864.87L1418.89 858.14L1391.76 853.367L1390.57 860.096L1400.54 861.85L1399.76 866.261C1391.6 865.212 1385.22 865.767 1384.88 867.715C1384.54 869.662 1390.34 872.358 1398.38 874.161L1395.89 888.302L1403.09 889.57L1405.58 875.425C1413.73 876.47 1420.09 875.915 1420.44 873.969C1420.78 872.024 1414.99 869.331 1406.97 867.529ZM1405.79 874.225L1405.79 874.222C1405.59 874.201 1404.53 874.081 1402.2 873.671C1400.34 873.344 1399.04 873.058 1398.59 872.954L1398.59 872.96C1391.49 871.382 1386.36 869.18 1386.63 867.669C1386.9 866.16 1392.46 865.837 1399.67 866.772L1398.81 871.703C1399.27 871.819 1400.6 872.135 1402.45 872.46C1404.67 872.851 1405.8 872.954 1406.01 872.972L1406.88 868.042C1413.96 869.621 1419.07 871.822 1418.81 873.329C1418.54 874.839 1412.99 875.161 1405.79 874.225V874.225Z" fill="#F4D9FF" fill-opacity="0.63"/>
</g>
<g filter="url(#filter6_bii_46_17706)">
<path fill-rule="evenodd" clip-rule="evenodd" d="M1392.46 893.865C1376.19 891.004 1365.35 875.324 1368.25 858.842C1371.15 842.36 1386.69 831.32 1402.95 834.182C1419.22 837.043 1430.06 852.722 1427.16 869.204C1424.26 885.686 1408.72 896.727 1392.46 893.865ZM1401.97 860.529L1402.74 856.117L1412.71 857.87L1413.89 851.14L1386.76 846.367L1385.57 853.096L1395.54 854.85L1394.76 859.261C1386.6 858.212 1380.22 858.767 1379.88 860.715C1379.54 862.662 1385.34 865.358 1393.38 867.161L1390.89 881.302L1398.09 882.57L1400.58 868.425C1408.73 869.47 1415.09 868.915 1415.44 866.969C1415.78 865.024 1409.99 862.331 1401.97 860.529ZM1400.79 867.225L1400.79 867.222C1400.59 867.201 1399.53 867.081 1397.2 866.671C1395.34 866.344 1394.04 866.058 1393.59 865.954L1393.59 865.96C1386.49 864.382 1381.36 862.18 1381.63 860.669C1381.9 859.16 1387.46 858.837 1394.67 859.772L1393.81 864.703C1394.27 864.819 1395.6 865.135 1397.45 865.46C1399.67 865.851 1400.8 865.954 1401.01 865.972L1401.88 861.042C1408.96 862.621 1414.07 864.822 1413.81 866.329C1413.54 867.839 1407.99 868.161 1400.79 867.225V867.225Z" fill="white" fill-opacity="0.7"/>
</g>
<circle cx="407.582" cy="427.582" r="62" transform="rotate(159.262 407.582 427.582)" stroke="#D0DAFF" stroke-opacity="0.23"/>
<g filter="url(#filter7_f_46_17706)">
<path d="M416.141 461.069C430.17 459.161 439.994 446.244 438.086 432.216C436.178 418.187 423.26 408.363 409.231 410.271C395.203 412.179 385.38 425.098 387.288 439.126C389.196 453.154 402.113 462.978 416.141 461.069ZM400.78 420.43C401.829 419.741 402.99 419.307 404.25 419.136C405.173 419.01 406.778 419.151 409.05 419.566C411.325 419.976 413.095 420.098 414.359 419.926C415.53 419.767 416.612 419.416 417.605 418.872C418.186 418.541 418.923 418.021 419.813 417.3L422.544 420.272C420.97 421.727 419.751 423.261 418.888 424.871C418.027 426.485 417.714 428.154 417.948 429.881C418.015 430.373 418.193 430.937 418.484 431.572C418.662 431.971 418.946 432.512 419.341 433.197L424.446 432.503L424.772 434.904L421.145 435.398C421.134 435.321 421.457 435.766 422.115 436.737C422.775 437.705 423.219 438.417 423.454 438.872C423.668 439.299 423.871 439.801 424.059 440.378C424.247 440.958 424.387 441.584 424.479 442.262C424.806 444.665 424.122 446.949 422.425 449.117C420.731 451.286 418.053 452.617 414.406 453.113C410.971 453.581 408.246 452.994 406.228 451.356C404.21 449.717 402.945 447.183 402.426 443.757L406.701 443.175C407.017 445.499 407.799 447.193 409.052 448.255C410.302 449.316 412.032 449.695 414.254 449.393C416.411 449.1 417.964 448.311 418.92 447.029C419.873 445.746 420.243 444.297 420.023 442.681C419.915 441.88 419.63 441.079 419.165 440.28C418.703 439.48 417.765 438.071 416.345 436.053L408.767 437.084L408.441 434.682L414.978 433.793C414.728 433.108 414.54 432.566 414.416 432.172C414.293 431.784 414.203 431.373 414.144 430.942C413.934 429.399 414.19 427.818 414.908 426.189C415.628 424.564 416.873 422.875 418.643 421.13C417.656 421.813 416.666 422.382 415.676 422.837C414.685 423.299 413.697 423.594 412.713 423.728C411.605 423.879 410.098 423.804 408.202 423.506C406.3 423.208 405.065 423.098 404.497 423.175C403.774 423.273 403.131 423.501 402.569 423.861C402.224 424.081 401.703 424.511 401.027 425.153L398.685 422.295C399.446 421.484 400.147 420.864 400.78 420.43Z" fill="#2F59EE" fill-opacity="0.15"/>
</g>
<g filter="url(#filter8_bii_46_17706)">
<path d="M393.405 398.324C378.074 405.578 371.526 423.885 378.78 439.216C386.034 454.547 404.341 461.094 419.672 453.84C435.003 446.586 441.549 428.278 434.296 412.948C427.042 397.617 408.735 391.071 393.405 398.324ZM425.649 439.181C424.701 440.347 423.532 441.262 422.155 441.914C421.146 442.391 419.262 442.811 416.517 443.159C413.771 443.514 411.705 444.014 410.324 444.668C409.044 445.274 407.935 446.066 406.998 447.046C406.454 447.635 405.8 448.495 405.045 449.64L400.85 447.234C402.122 445.003 402.959 442.81 403.362 440.659C403.761 438.504 403.516 436.484 402.623 434.598C402.369 434.059 401.961 433.48 401.399 432.86C401.052 432.468 400.532 431.953 399.833 431.314L394.254 433.954L393.013 431.329L396.977 429.453C397.017 429.537 396.487 429.145 395.385 428.275C394.281 427.408 393.515 426.755 393.083 426.321C392.684 425.91 392.271 425.411 391.847 424.819C391.423 424.226 391.037 423.561 390.686 422.82C389.443 420.194 389.398 417.337 390.552 414.247C391.703 411.158 394.279 408.669 398.265 406.783C402.018 405.007 405.343 404.691 408.24 405.831C411.137 406.974 413.499 409.41 415.332 413.135L410.659 415.346C409.457 412.806 407.952 411.154 406.137 410.395C404.326 409.635 402.212 409.828 399.784 410.977C397.426 412.092 395.939 413.555 395.311 415.364C394.686 417.175 394.787 418.964 395.623 420.73C396.037 421.605 396.652 422.417 397.472 423.161C398.289 423.908 399.87 425.178 402.221 426.969L410.503 423.05L411.745 425.675L404.6 429.055C405.133 429.747 405.545 430.298 405.829 430.704C406.109 431.102 406.362 431.539 406.584 432.01C407.382 433.695 407.661 435.594 407.431 437.714C407.197 439.831 406.386 442.209 404.995 444.843C405.876 443.706 406.801 442.698 407.767 441.82C408.732 440.934 409.752 440.24 410.828 439.731C412.038 439.158 413.788 438.698 416.061 438.352C418.34 438.005 419.79 437.684 420.412 437.39C421.202 437.016 421.854 436.524 422.365 435.91C422.679 435.534 423.119 434.854 423.659 433.875L427.367 436.293C426.791 437.495 426.216 438.456 425.649 439.181Z" fill="white" fill-opacity="0.7"/>
</g>
<circle cx="110" cy="694" r="67.5" stroke="#C0CEFF" stroke-opacity="0.23"/>
<circle cx="110.5" cy="693.5" r="102" stroke="#DEE6FF" stroke-opacity="0.23"/>
<g filter="url(#filter9_f_46_17706)">
<circle cx="122.528" cy="725.528" r="29.3506" transform="rotate(-23.1553 122.528 725.528)" fill="#3CABE2" fill-opacity="0.15"/>
</g>
<g filter="url(#filter10_bii_46_17706)">
<path fill-rule="evenodd" clip-rule="evenodd" d="M126.425 731.486C145.781 723.207 154.761 700.806 146.483 681.45C138.205 662.094 115.803 653.113 96.4474 661.392C77.0915 669.67 68.1111 692.071 76.3892 711.427C84.6673 730.783 107.069 739.764 126.425 731.486ZM90.5556 696.084L91.8828 699.187L126.017 684.589L124.69 681.486C123.957 679.773 121.973 678.977 120.26 679.71L92.3316 691.654C90.6187 692.386 89.8231 694.371 90.5556 696.084ZM130.101 704.866C133.957 703.217 135.746 698.754 134.097 694.898C132.448 691.043 127.985 689.253 124.129 690.902C120.273 692.551 118.484 697.015 120.133 700.87C121.782 704.726 126.245 706.515 130.101 704.866ZM128.625 694.342L130.167 694.96L127.708 701.274L124.002 699.854L124.62 698.311L126.781 699.112L128.625 694.342ZM122.84 707.972C120.32 706.904 118.189 704.908 117.03 702.198C115.871 699.487 115.899 696.567 116.868 694.008L93.8735 703.842L98.5185 714.703C99.251 716.416 101.236 717.211 102.949 716.479L122.84 707.972ZM101.846 709.609L109.604 706.291L110.267 707.843L102.51 711.161L101.846 709.609ZM100.519 706.506L112.931 701.197L113.595 702.749L101.182 708.057L100.519 706.506Z" fill="#F8FCFF"/>
</g>
<circle cx="1397.5" cy="863.5" r="55" stroke="#ECBCFF" stroke-opacity="0.33"/>
<circle cx="1397.5" cy="863.5" r="86" stroke="#F4D9FF" stroke-opacity="0.33"/>
<g filter="url(#filter11_f_46_17706)">
<path fill-rule="evenodd" clip-rule="evenodd" d="M1385.89 365.955C1397.9 370.609 1411.49 364.442 1416.25 352.182C1421 339.921 1415.12 326.21 1403.11 321.556C1391.09 316.903 1377.5 323.069 1372.75 335.33C1367.99 347.59 1373.87 361.302 1385.89 365.955ZM1407.13 341.376C1407.26 341.52 1407.36 341.691 1407.42 341.878C1407.48 342.066 1407.49 342.264 1407.47 342.46C1407.44 342.655 1407.37 342.842 1407.26 343.008L1402.84 349.864C1402.67 350.123 1402.42 350.316 1402.13 350.411C1401.84 350.506 1401.53 350.497 1401.25 350.385L1389.03 345.511L1388.65 347.278L1400.92 352.17C1401.14 352.256 1401.31 352.425 1401.4 352.64C1401.49 352.856 1401.49 353.1 1401.4 353.319C1401.32 353.538 1401.15 353.714 1400.93 353.809C1400.72 353.903 1400.48 353.908 1400.27 353.823L1387.31 348.66C1387.12 348.584 1386.97 348.442 1386.87 348.259C1386.78 348.076 1386.75 347.864 1386.79 347.659L1389.81 333.374L1387.25 332.354C1387.03 332.268 1386.86 332.099 1386.77 331.884C1386.68 331.668 1386.68 331.424 1386.77 331.205C1386.86 330.986 1387.02 330.81 1387.24 330.715C1387.45 330.621 1387.69 330.616 1387.91 330.701L1391.14 331.992C1391.34 332.068 1391.49 332.21 1391.59 332.393C1391.68 332.576 1391.71 332.788 1391.67 332.993L1391.26 334.913L1406.66 341.051C1406.84 341.122 1407 341.233 1407.13 341.376ZM1386.48 353.114C1387.37 353.47 1388.39 353.019 1388.75 352.107C1389.12 351.194 1388.69 350.165 1387.79 349.809C1386.9 349.452 1385.88 349.903 1385.52 350.816C1385.15 351.729 1385.58 352.757 1386.48 353.114ZM1397.81 357.631C1398.7 357.987 1399.72 357.537 1400.09 356.624C1400.45 355.711 1400.02 354.682 1399.13 354.326C1398.23 353.969 1397.21 354.42 1396.85 355.333C1396.48 356.246 1396.91 357.275 1397.81 357.631Z" fill="#FD9AB6" fill-opacity="0.53"/>
</g>
<g filter="url(#filter12_bii_46_17706)">
<path fill-rule="evenodd" clip-rule="evenodd" d="M1372.08 352.383C1385.85 357.722 1401.35 350.884 1406.69 337.108C1412.03 323.333 1405.19 307.837 1391.42 302.497C1377.64 297.157 1362.14 303.996 1356.8 317.771C1351.46 331.547 1358.3 347.043 1372.08 352.383ZM1396.19 324.861C1396.34 325.023 1396.45 325.217 1396.52 325.429C1396.58 325.64 1396.6 325.864 1396.57 326.084C1396.55 326.304 1396.47 326.514 1396.35 326.701L1391.34 334.389C1391.16 334.679 1390.87 334.895 1390.54 335C1390.21 335.104 1389.85 335.091 1389.53 334.964L1375.51 329.374L1375.1 331.361L1389.17 336.972C1389.42 337.07 1389.62 337.262 1389.72 337.506C1389.82 337.749 1389.83 338.024 1389.73 338.27C1389.63 338.517 1389.44 338.714 1389.2 338.818C1388.95 338.923 1388.68 338.927 1388.43 338.829L1373.58 332.907C1373.36 332.82 1373.18 332.659 1373.07 332.452C1372.96 332.245 1372.92 332.006 1372.97 331.776L1376.31 315.705L1373.37 314.535C1373.13 314.437 1372.93 314.245 1372.82 314.002C1372.72 313.758 1372.72 313.483 1372.81 313.237C1372.91 312.991 1373.1 312.793 1373.35 312.689C1373.59 312.584 1373.87 312.58 1374.11 312.679L1377.83 314.159C1378.04 314.246 1378.22 314.407 1378.34 314.614C1378.45 314.821 1378.48 315.06 1378.43 315.29L1377.99 317.45L1395.64 324.49C1395.85 324.572 1396.04 324.698 1396.19 324.861ZM1372.66 337.919C1373.68 338.328 1374.85 337.828 1375.25 336.802C1375.66 335.777 1375.16 334.614 1374.14 334.206C1373.11 333.797 1371.95 334.297 1371.54 335.322C1371.13 336.347 1371.63 337.51 1372.66 337.919ZM1385.65 343.1C1386.68 343.508 1387.84 343.009 1388.25 341.983C1388.66 340.958 1388.16 339.795 1387.13 339.386C1386.11 338.978 1384.95 339.477 1384.54 340.503C1384.13 341.528 1384.63 342.691 1385.65 343.1Z" fill="white" fill-opacity="0.85"/>
</g>
<path opacity="0.5" d="M1443.5 327.5C1443.5 361.186 1415.97 388.5 1382 388.5C1348.03 388.5 1320.5 361.186 1320.5 327.5C1320.5 293.814 1348.03 266.5 1382 266.5C1415.97 266.5 1443.5 293.814 1443.5 327.5Z" stroke="#FFDEE9"/>
<path opacity="0.5" d="M1424.65 327.5C1424.65 350.862 1405.56 369.806 1382 369.806C1358.44 369.806 1339.35 350.862 1339.35 327.5C1339.35 304.137 1358.44 285.193 1382 285.193C1405.56 285.193 1424.65 304.137 1424.65 327.5Z" stroke="#FFC5D7" stroke-width="0.693548"/>
</g>
<defs>
<filter id="filter0_f_46_17706" x="488" y="-259" width="1473" height="1473" filterUnits="userSpaceOnUse" color-interpolation-filters="sRGB">
<feFlood flood-opacity="0" result="BackgroundImageFix"/>
<feBlend mode="normal" in="SourceGraphic" in2="BackgroundImageFix" result="shape"/>
<feGaussianBlur stdDeviation="192" result="effect1_foregroundBlur_46_17706"/>
</filter>
<filter id="filter1_f_46_17706" x="1169" y="176" width="111" height="110" filterUnits="userSpaceOnUse" color-interpolation-filters="sRGB">
<feFlood flood-opacity="0" result="BackgroundImageFix"/>
<feBlend mode="normal" in="SourceGraphic" in2="BackgroundImageFix" result="shape"/>
<feGaussianBlur stdDeviation="10" result="effect1_foregroundBlur_46_17706"/>
</filter>
<filter id="filter2_bii_46_17706" x="1161" y="164" width="110" height="109.101" filterUnits="userSpaceOnUse" color-interpolation-filters="sRGB">
<feFlood flood-opacity="0" result="BackgroundImageFix"/>
<feGaussianBlur in="BackgroundImage" stdDeviation="7.5"/>
<feComposite in2="SourceAlpha" operator="in" result="effect1_backgroundBlur_46_17706"/>
<feBlend mode="normal" in="SourceGraphic" in2="effect1_backgroundBlur_46_17706" result="shape"/>
<feColorMatrix in="SourceAlpha" type="matrix" values="0 0 0 0 0 0 0 0 0 0 0 0 0 0 0 0 0 0 127 0" result="hardAlpha"/>
<feOffset dx="-1" dy="-1"/>
<feGaussianBlur stdDeviation="2"/>
<feComposite in2="hardAlpha" operator="arithmetic" k2="-1" k3="1"/>
<feColorMatrix type="matrix" values="0 0 0 0 0.930905 0 0 0 0 0.753333 0 0 0 0 0.941667 0 0 0 0.2 0"/>
<feBlend mode="normal" in2="shape" result="effect2_innerShadow_46_17706"/>
<feColorMatrix in="SourceAlpha" type="matrix" values="0 0 0 0 0 0 0 0 0 0 0 0 0 0 0 0 0 0 127 0" result="hardAlpha"/>
<feOffset dx="1" dy="1"/>
<feGaussianBlur stdDeviation="2"/>
<feComposite in2="hardAlpha" operator="arithmetic" k2="-1" k3="1"/>
<feColorMatrix type="matrix" values="0 0 0 0 1 0 0 0 0 1 0 0 0 0 1 0 0 0 0.25 0"/>
<feBlend mode="normal" in2="effect2_innerShadow_46_17706" result="effect3_innerShadow_46_17706"/>
</filter>
<filter id="filter3_f_46_17706" x="1146" y="388" width="86" height="86" filterUnits="userSpaceOnUse" color-interpolation-filters="sRGB">
<feFlood flood-opacity="0" result="BackgroundImageFix"/>
<feBlend mode="normal" in="SourceGraphic" in2="BackgroundImageFix" result="shape"/>
<feGaussianBlur stdDeviation="10" result="effect1_foregroundBlur_46_17706"/>
</filter>
<filter id="filter4_bii_46_17706" x="1128" y="370" width="99" height="99" filterUnits="userSpaceOnUse" color-interpolation-filters="sRGB">
<feFlood flood-opacity="0" result="BackgroundImageFix"/>
<feGaussianBlur in="BackgroundImage" stdDeviation="12"/>
<feComposite in2="SourceAlpha" operator="in" result="effect1_backgroundBlur_46_17706"/>
<feBlend mode="normal" in="SourceGraphic" in2="effect1_backgroundBlur_46_17706" result="shape"/>
<feColorMatrix in="SourceAlpha" type="matrix" values="0 0 0 0 0 0 0 0 0 0 0 0 0 0 0 0 0 0 127 0" result="hardAlpha"/>
<feOffset dx="1" dy="1"/>
<feGaussianBlur stdDeviation="2"/>
<feComposite in2="hardAlpha" operator="arithmetic" k2="-1" k3="1"/>
<feColorMatrix type="matrix" values="0 0 0 0 1 0 0 0 0 1 0 0 0 0 1 0 0 0 0.25 0"/>
<feBlend mode="normal" in2="shape" result="effect2_innerShadow_46_17706"/>
<feColorMatrix in="SourceAlpha" type="matrix" values="0 0 0 0 0 0 0 0 0 0 0 0 0 0 0 0 0 0 127 0" result="hardAlpha"/>
<feOffset dx="-1" dy="-1"/>
<feGaussianBlur stdDeviation="2"/>
<feComposite in2="hardAlpha" operator="arithmetic" k2="-1" k3="1"/>
<feColorMatrix type="matrix" values="0 0 0 0 0.908957 0 0 0 0 0.668313 0 0 0 0 0.925 0 0 0 0.25 0"/>
<feBlend mode="normal" in2="effect2_innerShadow_46_17706" result="effect3_innerShadow_46_17706"/>
</filter>
<filter id="filter5_f_46_17706" x="1362.78" y="830.73" width="79.8472" height="80.5869" filterUnits="userSpaceOnUse" color-interpolation-filters="sRGB">
<feFlood flood-opacity="0" result="BackgroundImageFix"/>
<feBlend mode="normal" in="SourceGraphic" in2="BackgroundImageFix" result="shape"/>
<feGaussianBlur stdDeviation="5" result="effect1_foregroundBlur_46_17706"/>
</filter>
<filter id="filter6_bii_46_17706" x="1343.78" y="809.73" width="107.847" height="108.587" filterUnits="userSpaceOnUse" color-interpolation-filters="sRGB">
<feFlood flood-opacity="0" result="BackgroundImageFix"/>
<feGaussianBlur in="BackgroundImage" stdDeviation="12"/>
<feComposite in2="SourceAlpha" operator="in" result="effect1_backgroundBlur_46_17706"/>
<feBlend mode="normal" in="SourceGraphic" in2="effect1_backgroundBlur_46_17706" result="shape"/>
<feColorMatrix in="SourceAlpha" type="matrix" values="0 0 0 0 0 0 0 0 0 0 0 0 0 0 0 0 0 0 127 0" result="hardAlpha"/>
<feOffset dx="1" dy="1"/>
<feGaussianBlur stdDeviation="2"/>
<feComposite in2="hardAlpha" operator="arithmetic" k2="-1" k3="1"/>
<feColorMatrix type="matrix" values="0 0 0 0 1 0 0 0 0 1 0 0 0 0 1 0 0 0 0.25 0"/>
<feBlend mode="normal" in2="shape" result="effect2_innerShadow_46_17706"/>
<feColorMatrix in="SourceAlpha" type="matrix" values="0 0 0 0 0 0 0 0 0 0 0 0 0 0 0 0 0 0 127 0" result="hardAlpha"/>
<feOffset dx="-1" dy="-1"/>
<feGaussianBlur stdDeviation="2"/>
<feComposite in2="hardAlpha" operator="arithmetic" k2="-1" k3="1"/>
<feColorMatrix type="matrix" values="0 0 0 0 0.739514 0 0 0 0 0.332222 0 0 0 0 0.766667 0 0 0 0.25 0"/>
<feBlend mode="normal" in2="effect2_innerShadow_46_17706" result="effect3_innerShadow_46_17706"/>
</filter>
<filter id="filter7_f_46_17706" x="348.051" y="371.034" width="129.272" height="129.272" filterUnits="userSpaceOnUse" color-interpolation-filters="sRGB">
<feFlood flood-opacity="0" result="BackgroundImageFix"/>
<feBlend mode="normal" in="SourceGraphic" in2="BackgroundImageFix" result="shape"/>
<feGaussianBlur stdDeviation="19.5" result="effect1_foregroundBlur_46_17706"/>
</filter>
<filter id="filter8_bii_46_17706" x="351.823" y="371.367" width="109.431" height="109.431" filterUnits="userSpaceOnUse" color-interpolation-filters="sRGB">
<feFlood flood-opacity="0" result="BackgroundImageFix"/>
<feGaussianBlur in="BackgroundImage" stdDeviation="12"/>
<feComposite in2="SourceAlpha" operator="in" result="effect1_backgroundBlur_46_17706"/>
<feBlend mode="normal" in="SourceGraphic" in2="effect1_backgroundBlur_46_17706" result="shape"/>
<feColorMatrix in="SourceAlpha" type="matrix" values="0 0 0 0 0 0 0 0 0 0 0 0 0 0 0 0 0 0 127 0" result="hardAlpha"/>
<feOffset dx="1" dy="1"/>
<feGaussianBlur stdDeviation="2"/>
<feComposite in2="hardAlpha" operator="arithmetic" k2="-1" k3="1"/>
<feColorMatrix type="matrix" values="0 0 0 0 1 0 0 0 0 1 0 0 0 0 1 0 0 0 0.28 0"/>
<feBlend mode="normal" in2="shape" result="effect2_innerShadow_46_17706"/>
<feColorMatrix in="SourceAlpha" type="matrix" values="0 0 0 0 0 0 0 0 0 0 0 0 0 0 0 0 0 0 127 0" result="hardAlpha"/>
<feOffset dx="-1" dy="-1"/>
<feGaussianBlur stdDeviation="2"/>
<feComposite in2="hardAlpha" operator="arithmetic" k2="-1" k3="1"/>
<feColorMatrix type="matrix" values="0 0 0 0 0.315611 0 0 0 0 0.436843 0 0 0 0 0.866667 0 0 0 0.25 0"/>
<feBlend mode="normal" in2="effect2_innerShadow_46_17706" result="effect3_innerShadow_46_17706"/>
</filter>
<filter id="filter9_f_46_17706" x="8.16943" y="611.169" width="228.716" height="228.716" filterUnits="userSpaceOnUse" color-interpolation-filters="sRGB">
<feFlood flood-opacity="0" result="BackgroundImageFix"/>
<feBlend mode="normal" in="SourceGraphic" in2="BackgroundImageFix" result="shape"/>
<feGaussianBlur stdDeviation="42.5" result="effect1_foregroundBlur_46_17706"/>
</filter>
<filter id="filter10_bii_46_17706" x="58.3086" y="643.311" width="106.255" height="106.255" filterUnits="userSpaceOnUse" color-interpolation-filters="sRGB">
<feFlood flood-opacity="0" result="BackgroundImageFix"/>
<feGaussianBlur in="BackgroundImage" stdDeviation="7.5"/>
<feComposite in2="SourceAlpha" operator="in" result="effect1_backgroundBlur_46_17706"/>
<feBlend mode="normal" in="SourceGraphic" in2="effect1_backgroundBlur_46_17706" result="shape"/>
<feColorMatrix in="SourceAlpha" type="matrix" values="0 0 0 0 0 0 0 0 0 0 0 0 0 0 0 0 0 0 127 0" result="hardAlpha"/>
<feOffset dx="-1" dy="-1"/>
<feGaussianBlur stdDeviation="1"/>
<feComposite in2="hardAlpha" operator="arithmetic" k2="-1" k3="1"/>
<feColorMatrix type="matrix" values="0 0 0 0 0.182854 0 0 0 0 0.350444 0 0 0 0 0.8375 0 0 0 0.24 0"/>
<feBlend mode="normal" in2="shape" result="effect2_innerShadow_46_17706"/>
<feColorMatrix in="SourceAlpha" type="matrix" values="0 0 0 0 0 0 0 0 0 0 0 0 0 0 0 0 0 0 127 0" result="hardAlpha"/>
<feOffset dx="1" dy="1"/>
<feGaussianBlur stdDeviation="2"/>
<feComposite in2="hardAlpha" operator="arithmetic" k2="-1" k3="1"/>
<feColorMatrix type="matrix" values="0 0 0 0 0.824792 0 0 0 0 0.827712 0 0 0 0 0.925 0 0 0 0.2 0"/>
<feBlend mode="normal" in2="effect2_innerShadow_46_17706" result="effect3_innerShadow_46_17706"/>
</filter>
<filter id="filter11_f_46_17706" x="1320.79" y="269.694" width="147.417" height="148.122" filterUnits="userSpaceOnUse" color-interpolation-filters="sRGB">
<feFlood flood-opacity="0" result="BackgroundImageFix"/>
<feBlend mode="normal" in="SourceGraphic" in2="BackgroundImageFix" result="shape"/>
<feGaussianBlur stdDeviation="25.155" result="effect1_foregroundBlur_46_17706"/>
</filter>
<filter id="filter12_bii_46_17706" x="1314.68" y="260.37" width="134.14" height="134.14" filterUnits="userSpaceOnUse" color-interpolation-filters="sRGB">
<feFlood flood-opacity="0" result="BackgroundImageFix"/>
<feGaussianBlur in="BackgroundImage" stdDeviation="20.1558"/>
<feComposite in2="SourceAlpha" operator="in" result="effect1_backgroundBlur_46_17706"/>
<feBlend mode="normal" in="SourceGraphic" in2="effect1_backgroundBlur_46_17706" result="shape"/>
<feColorMatrix in="SourceAlpha" type="matrix" values="0 0 0 0 0 0 0 0 0 0 0 0 0 0 0 0 0 0 127 0" result="hardAlpha"/>
<feOffset dx="2.68745" dy="2.68745"/>
<feGaussianBlur stdDeviation="2"/>
<feComposite in2="hardAlpha" operator="arithmetic" k2="-1" k3="1"/>
<feColorMatrix type="matrix" values="0 0 0 0 1 0 0 0 0 1 0 0 0 0 1 0 0 0 0.25 0"/>
<feBlend mode="normal" in2="shape" result="effect2_innerShadow_46_17706"/>
<feColorMatrix in="SourceAlpha" type="matrix" values="0 0 0 0 0 0 0 0 0 0 0 0 0 0 0 0 0 0 127 0" result="hardAlpha"/>
<feOffset dx="-1" dy="-1"/>
<feGaussianBlur stdDeviation="2"/>
<feComposite in2="hardAlpha" operator="arithmetic" k2="-1" k3="1"/>
<feColorMatrix type="matrix" values="0 0 0 0 1 0 0 0 0 0.295833 0 0 0 0 0.507083 0 0 0 0.18 0"/>
<feBlend mode="normal" in2="effect2_innerShadow_46_17706" result="effect3_innerShadow_46_17706"/>
</filter>
<clipPath id="clip0_46_17706">
<rect width="1440" height="1540" fill="white"/>
</clipPath>
</defs>
</svg>
