<svg width="1301" height="593" viewBox="0 0 1301 593" fill="none" xmlns="http://www.w3.org/2000/svg">
<g clip-path="url(#clip0_121_5836)">
<path d="M1301.81 116.018C1181.94 116.018 1149.79 320.297 1054.31 298.517C894.314 262.017 904.127 469.633 807.127 482.429C726.622 493.049 683.814 137.499 554.814 154.517C416.314 172.788 315.814 584.517 432.314 542.017C554.814 497.328 226.814 321.517 147.814 381.517C68.8143 441.517 103.314 528.517 171.313 593.018" stroke="#EBED7B" stroke-width="1.5" stroke-linecap="round"/>
<path d="M212.314 442.018L216.56 462.853L233.205 449.621L223.065 468.311L244.321 468.874L224.54 476.673L240.46 490.768L220.294 484.027L223.43 505.058L212.314 486.932L201.199 505.058L204.335 484.027L184.169 490.768L200.089 476.673L180.308 468.874L201.564 468.311L191.424 449.621L208.069 462.853L212.314 442.018Z" fill="#EBED7B"/>
<path d="M323.814 275.018L325.513 283.352L332.171 278.059L328.115 285.535L336.617 285.76L328.705 288.88L335.073 294.518L327.006 291.822L328.261 300.234L323.814 292.983L319.368 300.234L320.623 291.822L312.556 294.518L318.924 288.88L311.012 285.76L319.514 285.535L315.458 278.059L322.116 283.352L323.814 275.018Z" fill="#EBED7B"/>
</g>
<defs>
<clipPath id="clip0_121_5836">
<rect width="1301" height="593" fill="white"/>
</clipPath>
</defs>
</svg>
