<svg width="381" height="616" viewBox="0 0 381 616" fill="none" xmlns="http://www.w3.org/2000/svg">
<path d="M5.05122 0C2.38151 0 0.217773 2.46124 0.217773 5.497V595.54H380.103V5.497C380.103 2.46124 377.939 0 375.27 0H5.05122Z" fill="url(#paint0_linear_55_18508)"/>
<path d="M356.879 273.273C356.879 275.961 354.715 278.14 352.046 278.14H23.8514C21.1823 278.14 19.0186 275.961 19.0186 273.273V23.115C19.0186 20.427 21.1823 18.2478 23.8514 18.2478H352.046C354.715 18.2478 356.879 20.427 356.879 23.115V273.273Z" fill="#FEFEFE"/>
<path d="M36.1602 166.995H339.183V138.241H36.1602V166.995Z" fill="url(#paint1_linear_55_18508)"/>
<path d="M36.1602 236.115H339.183V207.361H36.1602V236.115Z" fill="url(#paint2_linear_55_18508)"/>
<path d="M36.1602 86.8152H339.183V19.3538H36.1602V86.8152Z" fill="url(#paint3_linear_55_18508)"/>
<path d="M57.1729 612.682C57.1729 614.209 55.9348 615.447 54.408 615.447H26.7599C25.2332 615.447 23.9951 614.209 23.9951 612.682V606.047C23.9951 604.519 25.2332 603.282 26.7599 603.282H54.408C55.9348 603.282 57.1729 604.519 57.1729 606.047V612.682Z" fill="#222222"/>
<path d="M360.749 613.235C360.749 614.762 359.511 616 357.984 616H330.336C328.809 616 327.571 614.762 327.571 613.235V606.6C327.571 605.072 328.809 603.835 330.336 603.835H357.984C359.511 603.835 360.749 605.072 360.749 606.6V613.235Z" fill="#222222"/>
<path d="M5.05066 608.259H375.27C377.939 608.259 380.103 605.797 380.103 602.762V595.541H0.217773V602.762C0.217773 605.797 2.38151 608.259 5.05066 608.259Z" fill="#238FBD"/>
<path d="M343.608 131.455C343.608 134.287 341.312 136.582 338.481 136.582H37.9693C35.1381 136.582 32.8428 134.287 32.8428 131.455V123.461C32.8428 120.63 35.1381 118.334 37.9693 118.334H338.481C341.312 118.334 343.608 120.63 343.608 123.461V131.455Z" fill="#F1F1F1"/>
<path d="M345.819 201.128C345.819 203.96 343.524 206.254 340.693 206.254H40.1807C37.3495 206.254 35.0542 203.96 35.0542 201.128V193.134C35.0542 190.302 37.3495 188.007 40.1807 188.007H340.693C343.524 188.007 345.819 190.302 345.819 193.134V201.128Z" fill="#F1F1F1"/>
<path d="M346.925 269.696C346.925 272.527 344.63 274.822 341.798 274.822H41.2867C38.4549 274.822 36.1602 272.527 36.1602 269.696V261.701C36.1602 258.87 38.4549 256.574 41.2867 256.574H341.798C344.63 256.574 346.925 258.87 346.925 261.701V269.696Z" fill="#F1F1F1"/>
<path d="M78.7386 131.807C78.7386 133.222 77.5907 134.37 76.1751 134.37H50.8892C49.4736 134.37 48.3257 133.222 48.3257 131.807V123.109C48.3257 121.693 49.4736 120.546 50.8892 120.546H76.1751C77.5907 120.546 78.7386 121.693 78.7386 123.109V131.807Z" fill="#3DA2D2"/>
<path d="M72.6557 129.669C72.6557 131.349 71.2943 132.711 69.6144 132.711H58.0022C56.3223 132.711 54.9609 131.349 54.9609 129.669C54.9609 127.99 56.3223 126.628 58.0022 126.628H69.6144C71.2943 126.628 72.6557 127.99 72.6557 129.669Z" fill="#6A6B6B"/>
<path d="M72.6557 128.011C72.6557 129.691 71.2943 131.052 69.6144 131.052H58.0022C56.3223 131.052 54.9609 129.691 54.9609 128.011C54.9609 126.331 56.3223 124.97 58.0022 124.97H69.6144C71.2943 124.97 72.6557 126.331 72.6557 128.011Z" fill="#CCCCCC"/>
<path d="M78.7386 201.48C78.7386 202.895 77.5907 204.043 76.1751 204.043H50.8892C49.4736 204.043 48.3257 202.895 48.3257 201.48V192.782C48.3257 191.366 49.4736 190.219 50.8892 190.219H76.1751C77.5907 190.219 78.7386 191.366 78.7386 192.782V201.48Z" fill="#3DA2D2"/>
<path d="M72.6557 199.343C72.6557 201.023 71.2943 202.384 69.6144 202.384H58.0022C56.3223 202.384 54.9609 201.023 54.9609 199.343C54.9609 197.663 56.3223 196.302 58.0022 196.302H69.6144C71.2943 196.302 72.6557 197.663 72.6557 199.343Z" fill="#6A6B6B"/>
<path d="M72.6557 197.684C72.6557 199.364 71.2943 200.725 69.6144 200.725H58.0022C56.3223 200.725 54.9609 199.364 54.9609 197.684C54.9609 196.004 56.3223 194.643 58.0022 194.643H69.6144C71.2943 194.643 72.6557 196.004 72.6557 197.684Z" fill="#CCCCCC"/>
<path d="M51.2676 181.923L75.8401 181.936L75.8606 143.712L51.288 143.699L51.2676 181.923Z" fill="url(#paint4_linear_55_18508)"/>
<path d="M76.5268 144.33C76.5268 144.631 76.2824 144.876 75.9805 144.876H51.0839C50.782 144.876 50.5376 144.631 50.5376 144.33V143.764C50.5376 143.462 50.782 143.217 51.0839 143.217H75.9805C76.2824 143.217 76.5268 143.462 76.5268 143.764V144.33Z" fill="#CCCCCC"/>
<path d="M76.5268 182.485C76.5268 182.786 76.2824 183.031 75.9805 183.031H51.0839C50.782 183.031 50.5376 182.786 50.5376 182.485V181.918C50.5376 181.616 50.782 181.372 51.0839 181.372H75.9805C76.2824 181.372 76.5268 181.616 76.5268 181.918V182.485Z" fill="#CCCCCC"/>
<path d="M78.7386 270.047C78.7386 271.462 77.5907 272.61 76.1751 272.61H50.8892C49.4736 272.61 48.3257 271.462 48.3257 270.047V261.349C48.3257 259.934 49.4736 258.786 50.8892 258.786H76.1751C77.5907 258.786 78.7386 259.934 78.7386 261.349V270.047Z" fill="#3DA2D2"/>
<path d="M72.6562 267.91C72.6562 269.59 71.2948 270.951 69.6149 270.951H58.0027C56.3228 270.951 54.9614 269.59 54.9614 267.91C54.9614 266.23 56.3228 264.869 58.0027 264.869H69.6149C71.2948 264.869 72.6562 266.23 72.6562 267.91Z" fill="#6A6B6B"/>
<path d="M72.6562 266.804C72.6562 268.484 71.2948 269.846 69.6149 269.846H58.0027C56.3228 269.846 54.9614 268.484 54.9614 266.804C54.9614 265.125 56.3228 263.763 58.0027 263.763H69.6149C71.2948 263.763 72.6562 265.125 72.6562 266.804Z" fill="#CCCCCC"/>
<path d="M51.0854 249.815L75.6585 249.828L75.679 211.604L51.1059 211.591L51.0854 249.815Z" fill="url(#paint5_linear_55_18508)"/>
<path d="M76.5268 211.791C76.5268 212.093 76.2824 212.338 75.9805 212.338H51.0839C50.782 212.338 50.5376 212.093 50.5376 211.791V211.225C50.5376 210.923 50.782 210.679 51.0839 210.679H75.9805C76.2824 210.679 76.5268 210.923 76.5268 211.225V211.791Z" fill="#CCCCCC"/>
<path d="M76.5268 250.499C76.5268 250.8 76.2824 251.045 75.9805 251.045H51.0839C50.782 251.045 50.5376 250.8 50.5376 250.499V249.932C50.5376 249.63 50.782 249.386 51.0839 249.386H75.9805C76.2824 249.386 76.5268 249.63 76.5268 249.932V250.499Z" fill="#CCCCCC"/>
<path d="M69.8911 36.4042C70.444 36.2737 71.2165 35.807 71.2165 35.6383C71.2165 35.4691 70.444 35.3126 69.8911 35.1821V30.4991C69.8911 29.9047 69.5283 29.8599 68.9339 29.8599H57.9515C57.3571 29.8599 56.62 29.9047 56.62 30.4991V35.1937C55.5141 35.3215 55.3647 35.4741 55.3647 35.6383C55.3647 35.802 55.5141 36.2648 56.62 36.3926V38.1543H69.8911V36.4042Z" fill="#F1F1F1"/>
<path d="M48.2217 54.0517C48.2217 55.5032 48.3345 56.9121 48.6336 58.2586C48.4727 58.4566 48.3256 58.7059 48.3256 58.978V61.1052V85.1082V112.927C48.3256 113.574 48.9748 114.099 49.6229 114.099C49.6229 114.099 55.7906 115.507 62.8276 115.507C69.8646 115.507 77.0791 114.099 77.0791 114.099C77.7261 114.099 78.1856 113.574 78.1856 112.927V85.1121V61.1102V58.978C78.1856 58.7275 78.1828 58.4958 78.0557 58.305C78.3626 56.9453 78.5152 55.5203 78.5152 54.0517C78.5152 47.243 74.8678 41.3628 69.8912 38.603V38.1545H56.6201V38.6417C51.6434 41.4176 48.2217 47.2745 48.2217 54.0517Z" fill="#E4E792"/>
<path d="M69.891 33.6881C69.891 34.3223 69.3767 34.8366 68.7424 34.8366H57.2154C56.5812 34.8366 56.0669 34.3223 56.0669 33.6881V24.9253C56.0669 24.291 56.5812 23.7773 57.2154 23.7773H68.7424C69.3767 23.7773 69.891 24.291 69.891 24.9253V33.6881Z" fill="#8ABE4B"/>
<path d="M58.832 34.2836H57.7261V24.3303H58.832V34.2836Z" fill="#47AD52"/>
<path d="M59.9377 34.2836H59.3848V24.3303H59.9377V34.2836Z" fill="#47AD52"/>
<path d="M61.0437 34.2836H60.4907V24.3303H61.0437V34.2836Z" fill="#47AD52"/>
<path d="M62.7029 34.2836H62.1499V24.3303H62.7029V34.2836Z" fill="#47AD52"/>
<path d="M64.9143 34.2836H64.3613V24.3303H64.9143V34.2836Z" fill="#47AD52"/>
<path d="M66.0202 34.2836H65.4673V24.3303H66.0202V34.2836Z" fill="#47AD52"/>
<path d="M67.6794 34.2836H67.1265V24.3303H67.6794V34.2836Z" fill="#47AD52"/>
<path d="M69.3381 34.2836H68.7852V24.3303H69.3381V34.2836Z" fill="#47AD52"/>
<g opacity="0.31">
<path d="M75.525 112.38C75.4901 112.38 75.4542 112.375 75.4188 112.365C69.6154 110.676 63.2503 110.655 58.9322 110.934C54.242 111.238 50.8855 111.952 50.8518 111.959C50.6472 112.003 50.4442 111.873 50.4 111.667C50.3563 111.462 50.4874 111.26 50.692 111.215C50.7257 111.208 54.1264 110.484 58.8697 110.176C63.2531 109.892 69.7178 109.914 75.6311 111.635C75.833 111.693 75.9496 111.904 75.8905 112.106C75.8418 112.272 75.6903 112.38 75.525 112.38Z" fill="#B4B4B4"/>
</g>
<g opacity="0.47">
<path d="M50.5657 89.3091C50.5657 89.3091 50.3594 108.493 50.3594 109.937C50.3594 111.381 50.3594 113.237 57.1669 113.856C57.1669 113.856 51.5969 111.794 51.3907 106.43C51.1844 101.067 50.5657 89.3091 50.5657 89.3091Z" fill="#FEFEFE"/>
</g>
<g opacity="0.47">
<path d="M57.1668 40.2158C57.1668 40.2158 51.8031 42.8977 49.9468 50.7359C49.9468 50.7359 57.1668 40.8346 59.4356 40.6283L61.705 40.4226C61.705 40.4226 58.8168 39.3908 57.1668 40.2158Z" fill="#FEFEFE"/>
</g>
<path d="M78.1856 83.7718V59.7699C67.6794 60.6237 58.832 60.6226 48.3257 59.7644V83.7674C58.832 84.5205 67.6794 84.5216 78.1856 83.7718Z" fill="#8ABE4B"/>
<g opacity="0.43">
<path d="M69.1304 80.44C69.1304 80.44 66.0365 78.3774 65.624 77.1393C65.2115 75.9018 65.8303 71.3636 61.7046 68.6818C57.579 66.0004 55.5164 63.5254 55.5164 63.5254C55.5164 63.5254 54.4852 73.8387 58.5074 74.458C62.5297 75.0768 64.3865 77.5518 64.3865 77.5518C64.3865 77.5518 68.3054 81.8837 69.1304 80.44Z" fill="#D0D73C"/>
</g>
<g opacity="0.43">
<path d="M62.8237 75.9046C62.8237 75.9046 64.805 74.5835 65.0693 73.7906C65.3336 72.9982 64.9371 70.0918 67.5792 68.3743C70.2212 66.6574 71.5423 65.072 71.5423 65.072C71.5423 65.072 72.2031 71.6772 69.6268 72.0736C67.0511 72.4701 65.8623 74.0549 65.8623 74.0549C65.8623 74.0549 63.3518 76.8291 62.8237 75.9046Z" fill="#D0D73C"/>
</g>
<path d="M162.789 131.807C162.789 133.222 161.641 134.37 160.225 134.37H134.94C133.524 134.37 132.376 133.222 132.376 131.807V123.109C132.376 121.693 133.524 120.546 134.94 120.546H160.225C161.641 120.546 162.789 121.693 162.789 123.109V131.807Z" fill="#3DA2D2"/>
<path d="M156.707 129.669C156.707 131.349 155.345 132.711 153.665 132.711H142.053C140.373 132.711 139.012 131.349 139.012 129.669C139.012 127.99 140.373 126.628 142.053 126.628H153.665C155.345 126.628 156.707 127.99 156.707 129.669Z" fill="#6A6B6B"/>
<path d="M156.707 128.011C156.707 129.691 155.345 131.052 153.665 131.052H142.053C140.373 131.052 139.012 129.691 139.012 128.011C139.012 126.331 140.373 124.97 142.053 124.97H153.665C155.345 124.97 156.707 126.331 156.707 128.011Z" fill="#CCCCCC"/>
<path d="M162.789 201.48C162.789 202.895 161.641 204.043 160.225 204.043H134.94C133.524 204.043 132.376 202.895 132.376 201.48V192.782C132.376 191.366 133.524 190.219 134.94 190.219H160.225C161.641 190.219 162.789 191.366 162.789 192.782V201.48Z" fill="#3DA2D2"/>
<path d="M156.707 199.343C156.707 201.023 155.345 202.384 153.665 202.384H142.053C140.373 202.384 139.012 201.023 139.012 199.343C139.012 197.663 140.373 196.302 142.053 196.302H153.665C155.345 196.302 156.707 197.663 156.707 199.343Z" fill="#6A6B6B"/>
<path d="M156.707 197.684C156.707 199.364 155.345 200.725 153.665 200.725H142.053C140.373 200.725 139.012 199.364 139.012 197.684C139.012 196.004 140.373 194.643 142.053 194.643H153.665C155.345 194.643 156.707 196.004 156.707 197.684Z" fill="#CCCCCC"/>
<path d="M162.789 270.047C162.789 271.462 161.641 272.61 160.225 272.61H134.94C133.524 272.61 132.376 271.462 132.376 270.047V261.349C132.376 259.934 133.524 258.786 134.94 258.786H160.225C161.641 258.786 162.789 259.934 162.789 261.349V270.047Z" fill="#3DA2D2"/>
<path d="M156.707 267.91C156.707 269.59 155.345 270.951 153.665 270.951H142.053C140.373 270.951 139.012 269.59 139.012 267.91C139.012 266.23 140.373 264.869 142.053 264.869H153.665C155.345 264.869 156.707 266.23 156.707 267.91Z" fill="#6A6B6B"/>
<path d="M156.707 266.804C156.707 268.484 155.345 269.846 153.665 269.846H142.053C140.373 269.846 139.012 268.484 139.012 266.804C139.012 265.125 140.373 263.763 142.053 263.763H153.665C155.345 263.763 156.707 265.125 156.707 266.804Z" fill="#CCCCCC"/>
<path d="M135.583 181.923L160.156 181.936L160.176 143.712L135.603 143.699L135.583 181.923Z" fill="url(#paint6_linear_55_18508)"/>
<path d="M160.577 144.33C160.577 144.631 160.332 144.876 160.03 144.876H135.134C134.832 144.876 134.587 144.631 134.587 144.33V143.764C134.587 143.462 134.832 143.217 135.134 143.217H160.03C160.332 143.217 160.577 143.462 160.577 143.764V144.33Z" fill="#CCCCCC"/>
<path d="M160.577 182.485C160.577 182.786 160.332 183.031 160.03 183.031H135.134C134.832 183.031 134.587 182.786 134.587 182.485V181.918C134.587 181.616 134.832 181.372 135.134 181.372H160.03C160.332 181.372 160.577 181.616 160.577 181.918V182.485Z" fill="#CCCCCC"/>
<path d="M135.566 249.639L160.139 249.651L160.159 211.428L135.587 211.415L135.566 249.639Z" fill="url(#paint7_linear_55_18508)"/>
<path d="M160.577 211.791C160.577 212.093 160.332 212.338 160.03 212.338H135.134C134.832 212.338 134.587 212.093 134.587 211.791V211.225C134.587 210.923 134.832 210.679 135.134 210.679H160.03C160.332 210.679 160.577 210.923 160.577 211.225V211.791Z" fill="#CCCCCC"/>
<path d="M160.577 251.052C160.577 251.353 160.332 251.598 160.03 251.598H135.134C134.832 251.598 134.587 251.353 134.587 251.052V250.485C134.587 250.183 134.832 249.939 135.134 249.939H160.03C160.332 249.939 160.577 250.183 160.577 250.485V251.052Z" fill="#CCCCCC"/>
<path d="M154.495 36.4042C155.047 36.2737 155.82 35.807 155.82 35.6383C155.82 35.4691 155.047 35.3126 154.495 35.1821V30.4991C154.495 29.9047 153.898 29.8599 153.303 29.8599H142.321C141.727 29.8599 141.223 29.9047 141.223 30.4991V35.1937C140.117 35.3215 139.969 35.4741 139.969 35.6383C139.969 35.802 140.117 36.2648 141.223 36.3926V38.1543H154.495V36.4042Z" fill="#F1F1F1"/>
<path d="M132.708 54.0517C132.708 55.5032 132.878 56.9121 133.179 58.2586C133.017 58.4566 132.929 58.7059 132.929 58.978V61.1052V85.1082V112.927C132.929 113.574 133.461 114.099 134.109 114.099C134.109 114.099 140.218 115.507 147.255 115.507C154.292 115.507 161.594 114.099 161.594 114.099C162.242 114.099 162.789 113.574 162.789 112.927V85.1121V61.1102V58.978C162.789 58.7275 162.669 58.4958 162.541 58.305C162.849 56.9453 163.059 55.5203 163.059 54.0517C163.059 47.243 159.471 41.3628 154.494 38.603V38.1545H141.223V38.6417C136.246 41.4176 132.708 47.2745 132.708 54.0517Z" fill="#EC9235"/>
<path d="M154.494 33.6881C154.494 34.3223 153.98 34.8366 153.346 34.8366H141.819C141.185 34.8366 140.67 34.3223 140.67 33.6881V24.9253C140.67 24.291 141.185 23.7773 141.819 23.7773H153.346C153.98 23.7773 154.494 24.291 154.494 24.9253V33.6881Z" fill="#F1F1F1"/>
<path d="M143.435 34.2836H142.329V24.3303H143.435V34.2836Z" fill="#E5E5E5"/>
<path d="M144.541 34.2836H143.988V24.3303H144.541V34.2836Z" fill="#E5E5E5"/>
<path d="M145.647 34.2836H145.094V24.3303H145.647V34.2836Z" fill="#E5E5E5"/>
<path d="M147.306 34.2836H146.753V24.3303H147.306V34.2836Z" fill="#E5E5E5"/>
<path d="M149.518 34.2836H148.965V24.3303H149.518V34.2836Z" fill="#E5E5E5"/>
<path d="M150.624 34.2836H150.071V24.3303H150.624V34.2836Z" fill="#E5E5E5"/>
<path d="M152.282 34.2836H151.729V24.3303H152.282V34.2836Z" fill="#E5E5E5"/>
<path d="M153.941 34.2836H153.388V24.3303H153.941V34.2836Z" fill="#E5E5E5"/>
<g opacity="0.31">
<path d="M159.894 112.38C159.859 112.38 159.824 112.375 159.788 112.365C153.985 110.676 147.619 110.655 143.302 110.934C138.611 111.238 135.255 111.952 135.221 111.959C135.016 112.003 134.814 111.873 134.769 111.667C134.726 111.462 134.855 111.26 135.061 111.215C135.095 111.208 138.496 110.484 143.238 110.176C147.622 109.892 154.087 109.914 160 111.635C160.203 111.693 160.318 111.904 160.26 112.106C160.211 112.272 160.059 112.38 159.894 112.38Z" fill="#B4B4B4"/>
</g>
<g opacity="0.47">
<path d="M134.934 89.3091C134.934 89.3091 134.728 108.493 134.728 109.937C134.728 111.381 134.728 113.237 141.536 113.856C141.536 113.856 135.966 111.794 135.76 106.43C135.553 101.067 134.934 89.3091 134.934 89.3091Z" fill="#FEFEFE"/>
</g>
<g opacity="0.47">
<path d="M141.536 40.2158C141.536 40.2158 136.172 42.8977 134.315 50.7359C134.315 50.7359 141.536 40.8346 143.804 40.6283L146.074 40.4226C146.074 40.4226 143.185 39.3908 141.536 40.2158Z" fill="#FEFEFE"/>
</g>
<path d="M163.342 83.7718V59.7699C152.835 60.6237 143.435 60.6226 132.929 59.7644V83.7674C143.435 84.5205 152.835 84.5216 163.342 83.7718Z" fill="#EFEA45"/>
<path d="M205.367 131.807C205.367 133.222 204.219 134.37 202.803 134.37H177.518C176.102 134.37 174.954 133.222 174.954 131.807V123.109C174.954 121.693 176.102 120.546 177.518 120.546H202.803C204.219 120.546 205.367 121.693 205.367 123.109V131.807Z" fill="#3DA2D2"/>
<path d="M199.284 129.669C199.284 131.349 197.923 132.711 196.243 132.711H184.631C182.951 132.711 181.589 131.349 181.589 129.669C181.589 127.99 182.951 126.628 184.631 126.628H196.243C197.923 126.628 199.284 127.99 199.284 129.669Z" fill="#6A6B6B"/>
<path d="M199.284 128.011C199.284 129.691 197.923 131.052 196.243 131.052H184.631C182.951 131.052 181.589 129.691 181.589 128.011C181.589 126.331 182.951 124.97 184.631 124.97H196.243C197.923 124.97 199.284 126.331 199.284 128.011Z" fill="#CCCCCC"/>
<path d="M205.367 201.48C205.367 202.895 204.219 204.043 202.803 204.043H177.518C176.102 204.043 174.954 202.895 174.954 201.48V192.782C174.954 191.366 176.102 190.219 177.518 190.219H202.803C204.219 190.219 205.367 191.366 205.367 192.782V201.48Z" fill="#3DA2D2"/>
<path d="M199.284 199.343C199.284 201.023 197.923 202.384 196.243 202.384H184.631C182.951 202.384 181.589 201.023 181.589 199.343C181.589 197.663 182.951 196.302 184.631 196.302H196.243C197.923 196.302 199.284 197.663 199.284 199.343Z" fill="#6A6B6B"/>
<path d="M199.284 197.684C199.284 199.364 197.923 200.725 196.243 200.725H184.631C182.951 200.725 181.589 199.364 181.589 197.684C181.589 196.004 182.951 194.643 184.631 194.643H196.243C197.923 194.643 199.284 196.004 199.284 197.684Z" fill="#CCCCCC"/>
<path d="M205.367 270.047C205.367 271.462 204.219 272.61 202.803 272.61H177.518C176.102 272.61 174.954 271.462 174.954 270.047V261.349C174.954 259.934 176.102 258.786 177.518 258.786H202.803C204.219 258.786 205.367 259.934 205.367 261.349V270.047Z" fill="#3DA2D2"/>
<path d="M199.284 267.91C199.284 269.59 197.923 270.951 196.243 270.951H184.631C182.951 270.951 181.589 269.59 181.589 267.91C181.589 266.23 182.951 264.869 184.631 264.869H196.243C197.923 264.869 199.284 266.23 199.284 267.91Z" fill="#6A6B6B"/>
<path d="M199.284 266.804C199.284 268.484 197.923 269.846 196.243 269.846H184.631C182.951 269.846 181.589 268.484 181.589 266.804C181.589 265.125 182.951 263.763 184.631 263.763H196.243C197.923 263.763 199.284 265.125 199.284 266.804Z" fill="#CCCCCC"/>
<path d="M178.173 182.003L202.745 182.016L202.766 143.792L178.193 143.78L178.173 182.003Z" fill="url(#paint8_linear_55_18508)"/>
<path d="M203.155 144.33C203.155 144.631 202.91 144.876 202.608 144.876H177.712C177.41 144.876 177.166 144.631 177.166 144.33V143.764C177.166 143.462 177.41 143.217 177.712 143.217H202.608C202.91 143.217 203.155 143.462 203.155 143.764V144.33Z" fill="#CCCCCC"/>
<path d="M203.155 183.038C203.155 183.339 202.91 183.584 202.608 183.584H177.712C177.41 183.584 177.166 183.339 177.166 183.038V182.471C177.166 182.169 177.41 181.925 177.712 181.925H202.608C202.91 181.925 203.155 182.169 203.155 182.471V183.038Z" fill="#CCCCCC"/>
<path d="M178.274 249.595L202.847 249.608L202.868 211.384L178.295 211.371L178.274 249.595Z" fill="url(#paint9_linear_55_18508)"/>
<path d="M203.155 211.791C203.155 212.093 202.91 212.338 202.608 212.338H177.712C177.41 212.338 177.166 212.093 177.166 211.791V211.225C177.166 210.923 177.41 210.679 177.712 210.679H202.608C202.91 210.679 203.155 210.923 203.155 211.225V211.791Z" fill="#CCCCCC"/>
<path d="M203.155 250.499C203.155 250.8 202.91 251.045 202.608 251.045H177.712C177.41 251.045 177.166 250.8 177.166 250.499V249.932C177.166 249.63 177.41 249.386 177.712 249.386H202.608C202.91 249.386 203.155 249.63 203.155 249.932V250.499Z" fill="#CCCCCC"/>
<path d="M196.519 36.4042C197.072 36.2737 197.845 35.807 197.845 35.6383C197.845 35.4691 197.072 35.3126 196.519 35.1821V30.4991C196.519 29.9047 196.461 29.8599 195.866 29.8599H184.885C184.29 29.8599 183.248 29.9047 183.248 30.4991V35.1937C182.142 35.3215 181.994 35.4741 181.994 35.6383C181.994 35.802 182.142 36.2648 183.248 36.3926V38.1543H196.519V36.4042Z" fill="#F1F1F1"/>
<path d="M175.001 54.0517C175.001 55.5032 175.038 56.9121 175.338 58.2586C175.176 58.4566 174.954 58.7059 174.954 58.978V61.1052V85.1082V112.927C174.954 113.574 175.755 114.099 176.403 114.099C176.403 114.099 182.646 115.507 189.684 115.507C196.72 115.507 203.821 114.099 203.821 114.099C204.469 114.099 204.814 113.574 204.814 112.927V85.1121V61.1102V58.978C204.814 58.7275 204.963 58.4958 204.835 58.305C205.143 56.9453 205.218 55.5203 205.218 54.0517C205.218 47.243 201.496 41.3628 196.519 38.603V38.1545H183.248V38.6417C178.271 41.4176 175.001 47.2745 175.001 54.0517Z" fill="#FCFAE1"/>
<path d="M196.519 33.6881C196.519 34.3223 196.005 34.8366 195.371 34.8366H183.844C183.21 34.8366 182.695 34.3223 182.695 33.6881V24.9253C182.695 24.291 183.21 23.7773 183.844 23.7773H195.371C196.005 23.7773 196.519 24.291 196.519 24.9253V33.6881Z" fill="#F1F1F1"/>
<path d="M185.46 34.2836H184.354V24.3303H185.46V34.2836Z" fill="#E5E5E5"/>
<path d="M186.566 34.2836H186.013V24.3303H186.566V34.2836Z" fill="#E5E5E5"/>
<path d="M187.672 34.2836H187.119V24.3303H187.672V34.2836Z" fill="#E5E5E5"/>
<path d="M189.331 34.2836H188.778V24.3303H189.331V34.2836Z" fill="#E5E5E5"/>
<path d="M191.543 34.2836H190.99V24.3303H191.543V34.2836Z" fill="#E5E5E5"/>
<path d="M192.649 34.2836H192.096V24.3303H192.649V34.2836Z" fill="#E5E5E5"/>
<path d="M194.307 34.2836H193.754V24.3303H194.307V34.2836Z" fill="#E5E5E5"/>
<path d="M195.966 34.2836H195.413V24.3303H195.966V34.2836Z" fill="#E5E5E5"/>
<g opacity="0.31">
<path d="M202.457 112.38C202.422 112.38 202.387 112.375 202.351 112.365C196.548 110.676 190.182 110.655 185.864 110.934C181.174 111.238 177.818 111.952 177.784 111.959C177.579 112.003 177.377 111.873 177.332 111.667C177.288 111.462 177.418 111.26 177.624 111.215C177.658 111.208 181.059 110.484 185.801 110.176C190.185 109.892 196.65 109.914 202.563 111.635C202.766 111.693 202.882 111.904 202.823 112.106C202.774 112.272 202.622 112.38 202.457 112.38Z" fill="#B4B4B4"/>
</g>
<g opacity="0.47">
<path d="M177.498 89.3091C177.498 89.3091 177.292 108.493 177.292 109.937C177.292 111.381 177.291 113.237 184.099 113.856C184.099 113.856 178.529 111.794 178.323 106.43C178.117 101.067 177.498 89.3091 177.498 89.3091Z" fill="#FEFEFE"/>
</g>
<g opacity="0.47">
<path d="M184.099 40.2158C184.099 40.2158 178.735 42.8977 176.878 50.7359C176.878 50.7359 184.099 40.8346 186.368 40.6283L188.637 40.4226C188.637 40.4226 185.748 39.3908 184.099 40.2158Z" fill="#FEFEFE"/>
</g>
<path d="M205.367 83.7718V59.7699C194.86 60.6237 185.46 60.6226 174.954 59.7644V83.7674C185.46 84.5205 194.86 84.5216 205.367 83.7718Z" fill="#F1F1F1"/>
<path d="M185.479 74.8487C185.479 72.8669 183.872 71.26 181.89 71.26C179.908 71.26 178.302 72.8669 178.302 74.8487C178.302 76.8306 179.908 78.4375 181.89 78.4375C183.872 78.4375 185.479 76.8306 185.479 74.8487Z" fill="#75C8D5"/>
<path d="M195.22 74.5929C195.22 71.0539 192.351 68.1846 188.812 68.1846C185.273 68.1846 182.403 71.0539 182.403 74.5929C182.403 78.1318 185.273 81.0011 188.812 81.0011C192.351 81.0011 195.22 78.1318 195.22 74.5929Z" fill="#75C8D5"/>
<path d="M199.834 67.6716C199.834 65.9729 198.457 64.5955 196.758 64.5955C195.059 64.5955 193.682 65.9729 193.682 67.6716C193.682 69.3703 195.059 70.7477 196.758 70.7477C198.457 70.7477 199.834 69.3703 199.834 67.6716Z" fill="#75C8D5"/>
<path d="M247.391 131.807C247.391 133.222 246.244 134.37 244.828 134.37H219.542C218.126 134.37 216.979 133.222 216.979 131.807V123.109C216.979 121.693 218.126 120.546 219.542 120.546H244.828C246.244 120.546 247.391 121.693 247.391 123.109V131.807Z" fill="#3DA2D2"/>
<path d="M241.309 129.669C241.309 131.349 239.947 132.711 238.268 132.711H226.656C224.976 132.711 223.614 131.349 223.614 129.669C223.614 127.99 224.976 126.628 226.656 126.628H238.268C239.947 126.628 241.309 127.99 241.309 129.669Z" fill="#6A6B6B"/>
<path d="M241.309 128.011C241.309 129.691 239.947 131.052 238.268 131.052H226.656C224.976 131.052 223.614 129.691 223.614 128.011C223.614 126.331 224.976 124.97 226.656 124.97H238.268C239.947 124.97 241.309 126.331 241.309 128.011Z" fill="#CCCCCC"/>
<path d="M247.391 201.48C247.391 202.895 246.244 204.043 244.828 204.043H219.542C218.126 204.043 216.979 202.895 216.979 201.48V192.782C216.979 191.366 218.126 190.219 219.542 190.219H244.828C246.244 190.219 247.391 191.366 247.391 192.782V201.48Z" fill="#3DA2D2"/>
<path d="M241.309 199.343C241.309 201.023 239.947 202.384 238.268 202.384H226.656C224.976 202.384 223.614 201.023 223.614 199.343C223.614 197.663 224.976 196.302 226.656 196.302H238.268C239.947 196.302 241.309 197.663 241.309 199.343Z" fill="#6A6B6B"/>
<path d="M241.309 197.684C241.309 199.364 239.947 200.725 238.268 200.725H226.656C224.976 200.725 223.614 199.364 223.614 197.684C223.614 196.004 224.976 194.643 226.656 194.643H238.268C239.947 194.643 241.309 196.004 241.309 197.684Z" fill="#CCCCCC"/>
<path d="M247.391 270.047C247.391 271.462 246.244 272.61 244.828 272.61H219.542C218.126 272.61 216.979 271.462 216.979 270.047V261.349C216.979 259.934 218.126 258.786 219.542 258.786H244.828C246.244 258.786 247.391 259.934 247.391 261.349V270.047Z" fill="#3DA2D2"/>
<path d="M241.309 267.91C241.309 269.59 239.947 270.951 238.268 270.951H226.656C224.976 270.951 223.614 269.59 223.614 267.91C223.614 266.23 224.976 264.869 226.656 264.869H238.268C239.947 264.869 241.309 266.23 241.309 267.91Z" fill="#6A6B6B"/>
<path d="M241.309 266.804C241.309 268.484 239.947 269.846 238.268 269.846H226.656C224.976 269.846 223.614 268.484 223.614 266.804C223.614 265.125 224.976 263.763 226.656 263.763H238.268C239.947 263.763 241.309 265.125 241.309 266.804Z" fill="#CCCCCC"/>
<path d="M220.105 181.997L244.677 182.009L244.698 143.786L220.125 143.772L220.105 181.997Z" fill="url(#paint10_linear_55_18508)"/>
<path d="M245.18 144.33C245.18 144.631 244.935 144.876 244.633 144.876H219.737C219.435 144.876 219.19 144.631 219.19 144.33V143.764C219.19 143.462 219.435 143.217 219.737 143.217H244.633C244.935 143.217 245.18 143.462 245.18 143.764V144.33Z" fill="#CCCCCC"/>
<path d="M245.18 182.485C245.18 182.786 244.935 183.031 244.633 183.031H219.737C219.435 183.031 219.19 182.786 219.19 182.485V181.918C219.19 181.616 219.435 181.372 219.737 181.372H244.633C244.935 181.372 245.18 181.616 245.18 181.918V182.485Z" fill="#CCCCCC"/>
<path d="M220.062 249.815L244.635 249.828L244.655 211.604L220.082 211.591L220.062 249.815Z" fill="url(#paint11_linear_55_18508)"/>
<path d="M245.18 211.791C245.18 212.093 244.935 212.338 244.633 212.338H219.737C219.435 212.338 219.19 212.093 219.19 211.791V211.225C219.19 210.923 219.435 210.679 219.737 210.679H244.633C244.935 210.679 245.18 210.923 245.18 211.225V211.791Z" fill="#CCCCCC"/>
<path d="M245.18 250.499C245.18 250.8 244.935 251.045 244.633 251.045H219.737C219.435 251.045 219.19 250.8 219.19 250.499V249.932C219.19 249.63 219.435 249.386 219.737 249.386H244.633C244.935 249.386 245.18 249.63 245.18 249.932V250.499Z" fill="#CCCCCC"/>
<path d="M244.074 78.9338V78.2298C244.074 78.017 244.38 77.8201 244.271 77.6586C244.533 76.5046 244.709 75.2953 244.709 74.0489C244.709 68.2704 241.862 63.28 237.438 60.9382V60.2729H226.379V60.9708C221.955 63.3264 219.256 68.297 219.256 74.0489C219.256 75.2809 219.274 76.4764 219.529 77.6194C219.391 77.7875 219.19 77.9993 219.19 78.2298V78.8973C228.038 79.6134 235.779 79.6222 244.074 78.9338Z" fill="#E4E792"/>
<path d="M219.19 83.6045V84.9023V111.827C219.19 112.454 219.821 112.962 220.37 112.962C220.37 112.962 225.644 114.324 231.616 114.324C237.588 114.324 243.423 112.962 243.423 112.962C243.973 112.962 244.074 112.454 244.074 111.827V84.9067V83.641C235.779 84.3305 228.038 84.3211 219.19 83.6045Z" fill="#E4E792"/>
<path d="M237.438 59.0723C237.438 58.9611 238.564 58.5652 238.564 58.4225C238.564 58.2788 237.438 58.1455 237.438 58.0349V54.0608C237.438 53.5559 237.342 53.0842 236.838 53.0842H227.518C227.013 53.0842 226.379 53.5559 226.379 54.0608V58.0449C225.273 58.1532 225.314 58.2832 225.314 58.4225C225.314 58.5613 225.273 58.9534 226.379 59.0623V60.2727H237.438V59.0723Z" fill="#F1F1F1"/>
<path d="M237.438 57.0869C237.438 57.6249 237.002 58.0612 236.464 58.0612H226.801C226.262 58.0612 225.826 57.6249 225.826 57.0869V49.0822C225.826 48.5442 226.262 48.1079 226.801 48.1079H236.464C237.002 48.1079 237.438 48.5442 237.438 49.0822V57.0869Z" fill="#8ABE4B"/>
<path d="M228.038 57.508H226.932V48.6606H228.038V57.508Z" fill="#47AD52"/>
<path d="M229.697 57.508H229.144V48.6606H229.697V57.508Z" fill="#47AD52"/>
<path d="M231.356 57.508H230.803V48.6606H231.356V57.508Z" fill="#47AD52"/>
<path d="M233.015 57.508H232.462V48.6606H233.015V57.508Z" fill="#47AD52"/>
<path d="M234.12 57.508H233.567V48.6606H234.12V57.508Z" fill="#47AD52"/>
<path d="M235.78 57.508H235.227V48.6606H235.78V57.508Z" fill="#47AD52"/>
<path d="M236.885 57.508H236.332V48.6606H236.885V57.508Z" fill="#47AD52"/>
<g opacity="0.31">
<path d="M242.432 109.193C242.402 109.193 242.372 109.189 242.341 109.181C237.417 107.747 232.014 107.73 228.35 107.966C224.369 108.224 221.521 108.83 221.492 108.836C221.318 108.873 221.146 108.763 221.109 108.588C221.072 108.414 221.182 108.243 221.356 108.205C221.385 108.199 224.271 107.584 228.296 107.323C232.016 107.082 237.504 107.101 242.522 108.561C242.694 108.611 242.791 108.79 242.742 108.961C242.7 109.102 242.572 109.193 242.432 109.193Z" fill="#B4B4B4"/>
</g>
<g opacity="0.47">
<path d="M221.249 103.972C221.249 103.972 221.074 109.712 221.074 110.144C221.074 110.576 221.074 111.132 226.852 111.317C226.852 111.317 222.124 110.7 221.95 109.095C221.774 107.49 221.249 103.972 221.249 103.972Z" fill="#FEFEFE"/>
</g>
<g opacity="0.47">
<path d="M226.852 62.3073C226.852 62.3073 222.3 64.5833 220.724 71.2354C220.724 71.2354 226.852 62.832 228.776 62.6573L230.703 62.4826C230.703 62.4826 228.252 61.6067 226.852 62.3073Z" fill="#FEFEFE"/>
</g>
<path d="M244.074 78.9337C235.779 79.6221 228.038 79.6133 219.19 78.8972V80.0352V99.2678C228.038 99.896 235.779 99.9048 244.074 99.2999V80.0396V78.9337Z" fill="#8ABE4B"/>
<g opacity="0.43">
<path d="M237.005 96.4443C237.005 96.4443 234.379 94.6936 234.029 93.6436C233.679 92.5929 234.205 88.7416 230.704 86.4656C227.202 84.1896 225.451 82.0889 225.451 82.0889C225.451 82.0889 224.575 90.8423 227.989 91.367C231.403 91.8923 232.979 93.993 232.979 93.993C232.979 93.993 236.305 97.6697 237.005 96.4443Z" fill="#D0D73C"/>
</g>
<g opacity="0.43">
<path d="M231.652 92.5958C231.652 92.5958 233.334 91.4744 233.558 90.8015C233.783 90.1291 233.446 87.6629 235.688 86.2047C237.931 84.7476 239.052 83.4028 239.052 83.4028C239.052 83.4028 239.613 89.0082 237.426 89.3444C235.239 89.6812 234.231 91.026 234.231 91.026C234.231 91.026 232.101 93.3805 231.652 92.5958Z" fill="#D0D73C"/>
</g>
<path d="M289.97 131.807C289.97 133.222 288.822 134.37 287.406 134.37H262.12C260.704 134.37 259.557 133.222 259.557 131.807V123.109C259.557 121.693 260.704 120.546 262.12 120.546H287.406C288.822 120.546 289.97 121.693 289.97 123.109V131.807Z" fill="#3DA2D2"/>
<path d="M283.887 129.669C283.887 131.349 282.525 132.711 280.846 132.711H269.234C267.554 132.711 266.192 131.349 266.192 129.669C266.192 127.99 267.554 126.628 269.234 126.628H280.846C282.525 126.628 283.887 127.99 283.887 129.669Z" fill="#6A6B6B"/>
<path d="M283.887 128.011C283.887 129.691 282.525 131.052 280.846 131.052H269.234C267.554 131.052 266.192 129.691 266.192 128.011C266.192 126.331 267.554 124.97 269.234 124.97H280.846C282.525 124.97 283.887 126.331 283.887 128.011Z" fill="#CCCCCC"/>
<path d="M289.97 201.48C289.97 202.895 288.822 204.043 287.406 204.043H262.12C260.704 204.043 259.557 202.895 259.557 201.48V192.782C259.557 191.366 260.704 190.219 262.12 190.219H287.406C288.822 190.219 289.97 191.366 289.97 192.782V201.48Z" fill="#3DA2D2"/>
<path d="M283.887 199.343C283.887 201.023 282.525 202.384 280.846 202.384H269.234C267.554 202.384 266.192 201.023 266.192 199.343C266.192 197.663 267.554 196.302 269.234 196.302H280.846C282.525 196.302 283.887 197.663 283.887 199.343Z" fill="#6A6B6B"/>
<path d="M283.887 197.684C283.887 199.364 282.525 200.725 280.846 200.725H269.234C267.554 200.725 266.192 199.364 266.192 197.684C266.192 196.004 267.554 194.643 269.234 194.643H280.846C282.525 194.643 283.887 196.004 283.887 197.684Z" fill="#CCCCCC"/>
<path d="M289.97 270.047C289.97 271.462 288.822 272.61 287.406 272.61H262.12C260.704 272.61 259.557 271.462 259.557 270.047V261.349C259.557 259.934 260.704 258.786 262.12 258.786H287.406C288.822 258.786 289.97 259.934 289.97 261.349V270.047Z" fill="#3DA2D2"/>
<path d="M283.887 267.91C283.887 269.59 282.525 270.951 280.846 270.951H269.234C267.554 270.951 266.192 269.59 266.192 267.91C266.192 266.23 267.554 264.869 269.234 264.869H280.846C282.525 264.869 283.887 266.23 283.887 267.91Z" fill="#6A6B6B"/>
<path d="M283.887 266.804C283.887 268.484 282.525 269.846 280.846 269.846H269.234C267.554 269.846 266.192 268.484 266.192 266.804C266.192 265.125 267.554 263.763 269.234 263.763H280.846C282.525 263.763 283.887 265.125 283.887 266.804Z" fill="#CCCCCC"/>
<path d="M262.503 182.003L287.075 182.016L287.096 143.792L262.523 143.78L262.503 182.003Z" fill="url(#paint12_linear_55_18508)"/>
<path d="M287.758 144.33C287.758 144.631 287.513 144.876 287.212 144.876H262.314C262.013 144.876 261.769 144.631 261.769 144.33V143.764C261.769 143.462 262.013 143.217 262.314 143.217H287.212C287.513 143.217 287.758 143.462 287.758 143.764V144.33Z" fill="#CCCCCC"/>
<path d="M287.758 183.038C287.758 183.339 287.513 183.584 287.212 183.584H262.314C262.013 183.584 261.769 183.339 261.769 183.038V182.471C261.769 182.169 262.013 181.925 262.314 181.925H287.212C287.513 181.925 287.758 182.169 287.758 182.471V183.038Z" fill="#CCCCCC"/>
<path d="M262.759 249.675L287.331 249.689L287.352 211.464L262.779 211.451L262.759 249.675Z" fill="url(#paint13_linear_55_18508)"/>
<path d="M287.758 211.791C287.758 212.093 287.513 212.338 287.212 212.338H262.314C262.013 212.338 261.769 212.093 261.769 211.791V211.225C261.769 210.923 262.013 210.679 262.314 210.679H287.212C287.513 210.679 287.758 210.923 287.758 211.225V211.791Z" fill="#CCCCCC"/>
<path d="M287.758 251.052C287.758 251.353 287.513 251.598 287.212 251.598H262.314C262.013 251.598 261.769 251.353 261.769 251.052V250.485C261.769 250.183 262.013 249.939 262.314 249.939H287.212C287.513 249.939 287.758 250.183 287.758 250.485V251.052Z" fill="#CCCCCC"/>
<path d="M287.205 78.9338V78.2298C287.205 78.017 287.367 77.8201 287.259 77.6586C287.52 76.5046 287.769 75.2953 287.769 74.0489C287.769 68.2704 284.993 63.28 280.569 60.9382V60.2729H269.51V60.9708C264.533 63.3264 262.242 68.297 262.242 74.0489C262.242 75.2809 262.333 76.4764 262.588 77.6194C262.45 77.7875 262.321 77.9993 262.321 78.2298V78.8973C271.169 79.6134 278.91 79.6222 287.205 78.9338Z" fill="#E8F4F7"/>
<path d="M262.321 83.6045V84.9023V111.827C262.321 112.454 262.808 112.962 263.358 112.962C263.358 112.962 268.559 114.324 274.531 114.324C280.503 114.324 286.445 112.962 286.445 112.962C286.995 112.962 287.205 112.454 287.205 111.827V84.9067V83.641C278.91 84.3305 271.169 84.3211 262.321 83.6045Z" fill="#E8F4F7"/>
<path d="M280.569 59.0723C280.569 58.9611 281.694 58.5652 281.694 58.4225C281.694 58.2788 280.569 58.1455 280.569 58.0349V54.0608C280.569 53.5559 280.186 53.0842 279.681 53.0842H270.361C269.856 53.0842 269.51 53.5559 269.51 54.0608V58.0449C268.404 58.1532 268.445 58.2832 268.445 58.4225C268.445 58.5613 268.404 58.9534 269.51 59.0623V60.2727H280.569V59.0723Z" fill="#F1F1F1"/>
<path d="M280.569 57.0869C280.569 57.6249 280.133 58.0612 279.595 58.0612H269.931C269.393 58.0612 268.957 57.6249 268.957 57.0869V49.0822C268.957 48.5442 269.393 48.1079 269.931 48.1079H279.595C280.133 48.1079 280.569 48.5442 280.569 49.0822V57.0869Z" fill="#F1F1F1"/>
<path d="M271.169 57.508H270.063V48.6606H271.169V57.508Z" fill="#CCCCCC"/>
<path d="M271.722 57.508H271.169V48.6606H271.722V57.508Z" fill="#CCCCCC"/>
<path d="M272.827 57.508H272.274V48.6606H272.827V57.508Z" fill="#CCCCCC"/>
<path d="M274.487 57.508H273.934V48.6606H274.487V57.508Z" fill="#CCCCCC"/>
<path d="M276.146 57.508H275.593V48.6606H276.146V57.508Z" fill="#CCCCCC"/>
<path d="M277.251 57.508H276.698V48.6606H277.251V57.508Z" fill="#CCCCCC"/>
<path d="M280.016 57.508H279.463V48.6606H280.016V57.508Z" fill="#CCCCCC"/>
<g opacity="0.31">
<path d="M285.275 109.193C285.246 109.193 285.216 109.189 285.185 109.181C280.261 107.747 274.858 107.73 271.194 107.966C267.212 108.224 264.365 108.83 264.336 108.836C264.162 108.873 263.99 108.763 263.953 108.588C263.915 108.414 264.025 108.243 264.2 108.205C264.229 108.199 267.115 107.584 271.14 107.323C274.86 107.082 280.347 107.101 285.366 108.561C285.538 108.611 285.635 108.79 285.586 108.961C285.544 109.102 285.416 109.193 285.275 109.193Z" fill="#B4B4B4"/>
</g>
<g opacity="0.47">
<path d="M264.093 103.972C264.093 103.972 263.918 109.712 263.918 110.144C263.918 110.576 263.918 111.132 269.696 111.317C269.696 111.317 264.968 110.7 264.793 109.095C264.618 107.49 264.093 103.972 264.093 103.972Z" fill="#FEFEFE"/>
</g>
<g opacity="0.47">
<path d="M269.696 62.3073C269.696 62.3073 265.144 64.5833 263.568 71.2354C263.568 71.2354 269.696 62.832 271.621 62.6573L273.547 62.4826C273.547 62.4826 271.096 61.6067 269.696 62.3073Z" fill="#FEFEFE"/>
</g>
<path d="M287.205 78.9337C278.91 79.6221 271.169 79.6133 262.321 78.8972V80.0352V99.2678C271.169 99.896 278.91 99.9048 287.205 99.2999V80.0396V78.9337Z" fill="#75C8D5"/>
<path d="M331.995 131.807C331.995 133.222 330.848 134.37 329.431 134.37H304.146C302.729 134.37 301.582 133.222 301.582 131.807V123.109C301.582 121.693 302.729 120.546 304.146 120.546H329.431C330.848 120.546 331.995 121.693 331.995 123.109V131.807Z" fill="#3DA2D2"/>
<path d="M325.913 129.669C325.913 131.349 324.551 132.711 322.871 132.711H311.259C309.58 132.711 308.218 131.349 308.218 129.669C308.218 127.99 309.58 126.628 311.259 126.628H322.871C324.551 126.628 325.913 127.99 325.913 129.669Z" fill="#6A6B6B"/>
<path d="M325.913 128.011C325.913 129.691 324.551 131.052 322.871 131.052H311.259C309.58 131.052 308.218 129.691 308.218 128.011C308.218 126.331 309.58 124.97 311.259 124.97H322.871C324.551 124.97 325.913 126.331 325.913 128.011Z" fill="#CCCCCC"/>
<path d="M331.995 201.48C331.995 202.895 330.848 204.043 329.431 204.043H304.146C302.729 204.043 301.582 202.895 301.582 201.48V192.782C301.582 191.366 302.729 190.219 304.146 190.219H329.431C330.848 190.219 331.995 191.366 331.995 192.782V201.48Z" fill="#3DA2D2"/>
<path d="M325.913 199.343C325.913 201.023 324.551 202.384 322.871 202.384H311.259C309.58 202.384 308.218 201.023 308.218 199.343C308.218 197.663 309.58 196.302 311.259 196.302H322.871C324.551 196.302 325.913 197.663 325.913 199.343Z" fill="#6A6B6B"/>
<path d="M325.913 197.684C325.913 199.364 324.551 200.725 322.871 200.725H311.259C309.58 200.725 308.218 199.364 308.218 197.684C308.218 196.004 309.58 194.643 311.259 194.643H322.871C324.551 194.643 325.913 196.004 325.913 197.684Z" fill="#CCCCCC"/>
<path d="M331.995 270.047C331.995 271.462 330.848 272.61 329.431 272.61H304.146C302.729 272.61 301.582 271.462 301.582 270.047V261.349C301.582 259.934 302.729 258.786 304.146 258.786H329.431C330.848 258.786 331.995 259.934 331.995 261.349V270.047Z" fill="#3DA2D2"/>
<path d="M325.913 267.91C325.913 269.59 324.551 270.951 322.871 270.951H311.259C309.58 270.951 308.218 269.59 308.218 267.91C308.218 266.23 309.58 264.869 311.259 264.869H322.871C324.551 264.869 325.913 266.23 325.913 267.91Z" fill="#6A6B6B"/>
<path d="M325.913 266.804C325.913 268.484 324.551 269.846 322.871 269.846H311.259C309.58 269.846 308.218 268.484 308.218 266.804C308.218 265.125 309.58 263.763 311.259 263.763H322.871C324.551 263.763 325.913 265.125 325.913 266.804Z" fill="#CCCCCC"/>
<path d="M304.68 181.82L329.252 181.833L329.272 143.609L304.7 143.596L304.68 181.82Z" fill="url(#paint14_linear_55_18508)"/>
<path d="M329.783 144.33C329.783 144.631 329.539 144.876 329.237 144.876H304.34C304.038 144.876 303.794 144.631 303.794 144.33V143.764C303.794 143.462 304.038 143.217 304.34 143.217H329.237C329.539 143.217 329.783 143.462 329.783 143.764V144.33Z" fill="#CCCCCC"/>
<path d="M329.783 183.038C329.783 183.339 329.539 183.584 329.237 183.584H304.34C304.038 183.584 303.794 183.339 303.794 183.038V182.471C303.794 182.169 304.038 181.925 304.34 181.925H329.237C329.539 181.925 329.783 182.169 329.783 182.471V183.038Z" fill="#CCCCCC"/>
<path d="M304.893 249.639L329.465 249.651L329.485 211.428L304.912 211.415L304.893 249.639Z" fill="url(#paint15_linear_55_18508)"/>
<path d="M329.783 211.791C329.783 212.093 329.539 212.338 329.237 212.338H304.34C304.038 212.338 303.794 212.093 303.794 211.791V211.225C303.794 210.923 304.038 210.679 304.34 210.679H329.237C329.539 210.679 329.783 210.923 329.783 211.225V211.791Z" fill="#CCCCCC"/>
<path d="M329.783 251.052C329.783 251.353 329.539 251.598 329.237 251.598H304.34C304.038 251.598 303.794 251.353 303.794 251.052V250.485C303.794 250.183 304.038 249.939 304.34 249.939H329.237C329.539 249.939 329.783 250.183 329.783 250.485V251.052Z" fill="#CCCCCC"/>
<path d="M329.231 78.9338V78.2298C329.231 78.017 329.381 77.8201 329.273 77.6586C329.534 76.5046 329.789 75.2953 329.789 74.0489C329.789 68.2704 327.019 63.28 322.595 60.9382V60.2729H311.536V60.9708C306.559 63.3264 304.258 68.297 304.258 74.0489C304.258 75.2809 304.353 76.4764 304.608 77.6194C304.471 77.7875 304.347 77.9993 304.347 78.2298V78.8973C313.195 79.6134 320.936 79.6222 329.231 78.9338Z" fill="#F1E540"/>
<path d="M304.347 83.6045V84.9023V111.827C304.347 112.454 304.822 112.962 305.372 112.962C305.372 112.962 310.567 114.324 316.539 114.324C322.512 114.324 328.463 112.962 328.463 112.962C329.013 112.962 329.23 112.454 329.23 111.827V84.9067V83.641C320.936 84.3305 313.194 84.3211 304.347 83.6045Z" fill="#F1E540"/>
<path d="M322.595 59.0723C322.595 58.9611 323.72 58.5652 323.72 58.4225C323.72 58.2788 322.595 58.1455 322.595 58.0349V54.0608C322.595 53.5559 322.19 53.0842 321.685 53.0842H312.365C311.86 53.0842 311.536 53.5559 311.536 54.0608V58.0449C310.43 58.1532 310.471 58.2832 310.471 58.4225C310.471 58.5613 310.43 58.9534 311.536 59.0623V60.2727H322.595V59.0723Z" fill="#F1F1F1"/>
<path d="M322.595 57.0869C322.595 57.6249 322.158 58.0612 321.62 58.0612H311.957C311.419 58.0612 310.982 57.6249 310.982 57.0869V49.0822C310.982 48.5442 311.419 48.1079 311.957 48.1079H321.62C322.158 48.1079 322.595 48.5442 322.595 49.0822V57.0869Z" fill="#F1F1F1"/>
<path d="M313.195 57.508H312.089V48.6606H313.195V57.508Z" fill="#CCCCCC"/>
<path d="M313.747 57.508H313.194V48.6606H313.747V57.508Z" fill="#CCCCCC"/>
<path d="M314.854 57.508H314.301V48.6606H314.854V57.508Z" fill="#CCCCCC"/>
<path d="M316.512 57.508H315.959V48.6606H316.512V57.508Z" fill="#CCCCCC"/>
<path d="M318.171 57.508H317.618V48.6606H318.171V57.508Z" fill="#CCCCCC"/>
<path d="M319.277 57.508H318.724V48.6606H319.277V57.508Z" fill="#CCCCCC"/>
<path d="M322.042 57.508H321.489V48.6606H322.042V57.508Z" fill="#CCCCCC"/>
<g opacity="0.31">
<path d="M327.278 109.193C327.249 109.193 327.219 109.189 327.188 109.181C322.264 107.747 316.861 107.73 313.197 107.966C309.215 108.224 306.368 108.83 306.339 108.836C306.165 108.873 305.993 108.763 305.956 108.588C305.918 108.414 306.028 108.243 306.203 108.205C306.232 108.199 309.117 107.584 313.143 107.323C316.863 107.082 322.35 107.101 327.369 108.561C327.541 108.611 327.638 108.79 327.589 108.961C327.547 109.102 327.419 109.193 327.278 109.193Z" fill="#B4B4B4"/>
</g>
<g opacity="0.47">
<path d="M306.096 103.972C306.096 103.972 305.921 109.712 305.921 110.144C305.921 110.576 305.921 111.132 311.699 111.317C311.699 111.317 306.971 110.7 306.797 109.095C306.621 107.49 306.096 103.972 306.096 103.972Z" fill="#FEFEFE"/>
</g>
<g opacity="0.47">
<path d="M311.698 62.3073C311.698 62.3073 307.146 64.5833 305.57 71.2354C305.57 71.2354 311.698 62.832 313.623 62.6573L315.549 62.4826C315.549 62.4826 313.098 61.6067 311.698 62.3073Z" fill="#FEFEFE"/>
</g>
<path d="M329.23 78.9337C320.936 79.6221 313.194 79.6133 304.347 78.8972V80.0352V99.2678C313.194 99.896 320.936 99.9048 329.23 99.2999V80.0396V78.9337Z" fill="#75C8D5"/>
<path d="M120.764 131.807C120.764 133.222 119.616 134.37 118.2 134.37H92.9141C91.4985 134.37 90.3506 133.222 90.3506 131.807V123.109C90.3506 121.693 91.4985 120.546 92.9141 120.546H118.2C119.616 120.546 120.764 121.693 120.764 123.109V131.807Z" fill="#3DA2D2"/>
<path d="M114.681 129.669C114.681 131.349 113.32 132.711 111.64 132.711H100.028C98.3477 132.711 96.9863 131.349 96.9863 129.669C96.9863 127.99 98.3477 126.628 100.028 126.628H111.64C113.32 126.628 114.681 127.99 114.681 129.669Z" fill="#6A6B6B"/>
<path d="M114.681 128.011C114.681 129.691 113.32 131.052 111.64 131.052H100.028C98.3477 131.052 96.9863 129.691 96.9863 128.011C96.9863 126.331 98.3477 124.97 100.028 124.97H111.64C113.32 124.97 114.681 126.331 114.681 128.011Z" fill="#CCCCCC"/>
<path d="M120.764 201.48C120.764 202.895 119.616 204.043 118.2 204.043H92.9141C91.4985 204.043 90.3506 202.895 90.3506 201.48V192.782C90.3506 191.366 91.4985 190.219 92.9141 190.219H118.2C119.616 190.219 120.764 191.366 120.764 192.782V201.48Z" fill="#3DA2D2"/>
<path d="M114.681 199.343C114.681 201.023 113.32 202.384 111.64 202.384H100.028C98.3477 202.384 96.9863 201.023 96.9863 199.343C96.9863 197.663 98.3477 196.302 100.028 196.302H111.64C113.32 196.302 114.681 197.663 114.681 199.343Z" fill="#6A6B6B"/>
<path d="M114.681 197.684C114.681 199.364 113.32 200.725 111.64 200.725H100.028C98.3477 200.725 96.9863 199.364 96.9863 197.684C96.9863 196.004 98.3477 194.643 100.028 194.643H111.64C113.32 194.643 114.681 196.004 114.681 197.684Z" fill="#CCCCCC"/>
<path d="M93.6313 181.82L118.204 181.833L118.224 143.609L93.6518 143.596L93.6313 181.82Z" fill="url(#paint16_linear_55_18508)"/>
<path d="M118.552 144.33C118.552 144.631 118.307 144.876 118.005 144.876H93.1088C92.8069 144.876 92.5625 144.631 92.5625 144.33V143.764C92.5625 143.462 92.8069 143.217 93.1088 143.217H118.005C118.307 143.217 118.552 143.462 118.552 143.764V144.33Z" fill="#CCCCCC"/>
<path d="M118.552 183.038C118.552 183.339 118.307 183.584 118.005 183.584H93.1088C92.8069 183.584 92.5625 183.339 92.5625 183.038V182.471C92.5625 182.169 92.8069 181.925 93.1088 181.925H118.005C118.307 181.925 118.552 182.169 118.552 182.471V183.038Z" fill="#CCCCCC"/>
<path d="M120.764 270.047C120.764 271.462 119.616 272.61 118.2 272.61H92.9141C91.4985 272.61 90.3506 271.462 90.3506 270.047V261.349C90.3506 259.934 91.4985 258.786 92.9141 258.786H118.2C119.616 258.786 120.764 259.934 120.764 261.349V270.047Z" fill="#3DA2D2"/>
<path d="M114.681 267.91C114.681 269.59 113.32 270.951 111.64 270.951H100.028C98.3477 270.951 96.9863 269.59 96.9863 267.91C96.9863 266.23 98.3477 264.869 100.028 264.869H111.64C113.32 264.869 114.681 266.23 114.681 267.91Z" fill="#6A6B6B"/>
<path d="M114.681 266.804C114.681 268.484 113.32 269.846 111.64 269.846H100.028C98.3477 269.846 96.9863 268.484 96.9863 266.804C96.9863 265.125 98.3477 263.763 100.028 263.763H111.64C113.32 263.763 114.681 265.125 114.681 266.804Z" fill="#CCCCCC"/>
<path d="M93.2007 249.639L117.773 249.651L117.793 211.428L93.2206 211.415L93.2007 249.639Z" fill="url(#paint17_linear_55_18508)"/>
<path d="M118.552 211.791C118.552 212.093 118.307 212.338 118.005 212.338H93.1088C92.8069 212.338 92.5625 212.093 92.5625 211.791V211.225C92.5625 210.923 92.8069 210.679 93.1088 210.679H118.005C118.307 210.679 118.552 210.923 118.552 211.225V211.791Z" fill="#CCCCCC"/>
<path d="M118.552 251.052C118.552 251.353 118.307 251.598 118.005 251.598H93.1088C92.8069 251.598 92.5625 251.353 92.5625 251.052V250.485C92.5625 250.183 92.8069 249.939 93.1088 249.939H118.005C118.307 249.939 118.552 250.183 118.552 250.485V251.052Z" fill="#CCCCCC"/>
<path d="M111.916 36.4042C112.469 36.2737 113.242 35.807 113.242 35.6383C113.242 35.4691 112.469 35.3126 111.916 35.1821V30.4991C111.916 29.9047 111.702 29.8599 111.108 29.8599H100.126C99.5311 29.8599 98.6453 29.9047 98.6453 30.4991V35.1937C97.5394 35.3215 97.3906 35.4741 97.3906 35.6383C97.3906 35.802 97.5394 36.2648 98.6453 36.3926V38.1543H111.916V36.4042Z" fill="#F1F1F1"/>
<path d="M90.3208 54.0517C90.3208 55.5032 90.396 56.9121 90.6963 58.2586C90.5343 58.4566 90.3507 58.7059 90.3507 58.978V61.1052V85.1082V112.927C90.3507 113.574 91.0751 114.099 91.7226 114.099C91.7226 114.099 97.9263 115.507 104.963 115.507C112 115.507 119.159 114.099 119.159 114.099C119.807 114.099 120.211 113.574 120.211 112.927V85.1121V61.1102V58.978C120.211 58.7275 120.282 58.4958 120.155 58.305C120.462 56.9453 120.577 55.5203 120.577 54.0517C120.577 47.243 116.893 41.3628 111.916 38.603V38.1545H98.6451V38.6417C93.6684 41.4176 90.3208 47.2745 90.3208 54.0517Z" fill="#E8F4F7"/>
<path d="M111.916 33.6881C111.916 34.3223 111.402 34.8366 110.768 34.8366H99.2408C98.6066 34.8366 98.0923 34.3223 98.0923 33.6881V24.9253C98.0923 24.291 98.6066 23.7773 99.2408 23.7773H110.768C111.402 23.7773 111.916 24.291 111.916 24.9253V33.6881Z" fill="#F1F1F1"/>
<path d="M100.857 34.2836H99.751V24.3303H100.857V34.2836Z" fill="#E5E5E5"/>
<path d="M101.963 34.2836H101.41V24.3303H101.963V34.2836Z" fill="#E5E5E5"/>
<path d="M103.069 34.2836H102.516V24.3303H103.069V34.2836Z" fill="#E5E5E5"/>
<path d="M104.728 34.2836H104.175V24.3303H104.728V34.2836Z" fill="#E5E5E5"/>
<path d="M106.94 34.2836H106.387V24.3303H106.94V34.2836Z" fill="#E5E5E5"/>
<path d="M108.046 34.2836H107.493V24.3303H108.046V34.2836Z" fill="#E5E5E5"/>
<path d="M109.704 34.2836H109.151V24.3303H109.704V34.2836Z" fill="#E5E5E5"/>
<path d="M111.364 34.2836H110.811V24.3303H111.364V34.2836Z" fill="#E5E5E5"/>
<g opacity="0.31">
<path d="M117.699 112.38C117.664 112.38 117.629 112.375 117.593 112.365C111.789 110.676 105.424 110.655 101.106 110.934C96.4159 111.238 93.0594 111.952 93.0256 111.959C92.821 112.003 92.6187 111.873 92.5739 111.667C92.5302 111.462 92.6601 111.26 92.8658 111.215C92.8995 111.208 96.3003 110.484 101.043 110.176C105.426 109.892 111.892 109.914 117.805 111.635C118.007 111.693 118.123 111.904 118.064 112.106C118.016 112.272 117.864 112.38 117.699 112.38Z" fill="#B4B4B4"/>
</g>
<g opacity="0.47">
<path d="M92.739 89.3091C92.739 89.3091 92.5327 108.493 92.5327 109.937C92.5327 111.381 92.5327 113.237 99.3403 113.856C99.3403 113.856 93.7703 111.794 93.5646 106.43C93.3577 101.067 92.739 89.3091 92.739 89.3091Z" fill="#FEFEFE"/>
</g>
<g opacity="0.47">
<path d="M99.3407 40.2158C99.3407 40.2158 93.977 42.8977 92.1201 50.7359C92.1201 50.7359 99.3407 40.8346 101.61 40.6283L103.879 40.4226C103.879 40.4226 100.99 39.3908 99.3407 40.2158Z" fill="#FEFEFE"/>
</g>
<path d="M120.764 83.7718V59.7699C110.257 60.6237 100.857 60.6226 90.3506 59.7644V83.7674C100.857 84.5205 110.257 84.5216 120.764 83.7718Z" fill="#75C8D5"/>
<path d="M101.963 63.5701C101.963 63.5701 109.151 81.5137 101.963 81.5137C95.3273 81.5137 101.963 63.5701 101.963 63.5701Z" fill="#CFE9EE"/>
<path d="M110.257 68.1846C110.257 68.1846 114.681 78.2778 110.257 78.2778C106.94 78.2778 110.257 68.1846 110.257 68.1846Z" fill="#CFE9EE"/>
<path d="M265.367 289.199C261.548 289.199 258.451 291.494 258.451 294.326V380.841C258.451 383.672 261.548 385.968 265.367 385.968H346.645C350.464 385.968 353.561 383.672 353.561 380.841V294.326C353.561 291.494 350.464 289.199 346.645 289.199H265.367Z" fill="url(#paint18_linear_55_18508)"/>
<g opacity="0.47">
<path d="M308.218 370.485H266.192V333.989H308.218V370.485Z" fill="url(#paint19_linear_55_18508)"/>
</g>
<path d="M297.914 311.188C297.914 303.26 291.488 296.833 283.56 296.833C275.632 296.833 269.205 303.26 269.205 311.188C269.205 319.116 275.632 325.543 283.56 325.543C291.488 325.543 297.914 319.116 297.914 311.188Z" fill="#9B9A9B"/>
<path d="M295.743 306.411C294.846 305.676 293.522 305.808 292.788 306.707C289.507 310.716 284.001 311.135 280.208 310.855C279.61 308.821 277.734 307.337 275.507 307.337C272.8 307.337 270.605 309.531 270.605 312.238C270.605 314.945 272.8 317.14 275.507 317.14C277.177 317.14 278.649 316.303 279.534 315.028C280.312 315.096 281.157 315.141 282.05 315.141C286.55 315.141 292.218 314.037 296.039 309.367C296.774 308.468 296.642 307.145 295.743 306.411Z" fill="#2D2D2E"/>
<path d="M344.311 311.188C344.311 303.261 337.884 296.833 329.956 296.833C322.028 296.833 315.602 303.261 315.602 311.188C315.602 319.116 322.028 325.543 329.956 325.543C337.884 325.543 344.311 319.116 344.311 311.188Z" fill="#9B9A9B"/>
<path d="M340.289 312.424H318.724V308H340.289V312.424Z" fill="#3E3F3F"/>
<path d="M354.113 424.939C354.113 426.014 353.09 426.887 351.828 426.887H314.373C313.111 426.887 312.088 426.014 312.088 424.939V393.998C312.088 392.923 313.111 392.05 314.373 392.05H351.828C353.09 392.05 354.113 392.923 354.113 393.998V424.939Z" fill="#3E3F3F"/>
<g opacity="0.47">
<path d="M353.56 424.387C353.56 425.463 352.537 426.334 351.276 426.334H313.819C312.558 426.334 311.535 425.463 311.535 424.387V393.445C311.535 392.369 312.558 391.498 313.819 391.498H351.276C352.537 391.498 353.56 392.369 353.56 393.445V424.387Z" fill="url(#paint20_linear_55_18508)"/>
<path d="M353.56 424.386C353.56 425.462 352.537 426.333 351.276 426.333H313.819C312.558 426.333 311.535 425.462 311.535 424.386V393.444C311.535 392.369 312.558 391.497 313.819 391.497H351.276C352.537 391.497 353.56 392.369 353.56 393.444V424.386Z" stroke="#B4B4B4" stroke-width="2.21185"/>
</g>
<path d="M48.7353 448.452C46.0656 448.452 43.9019 450.747 43.9019 453.579V512.446C43.9019 515.277 46.0656 517.572 48.7353 517.572H338.221C340.89 517.572 343.054 515.277 343.054 512.446V453.579C343.054 450.747 340.89 448.452 338.221 448.452H48.7353Z" fill="url(#paint21_linear_55_18508)"/>
<g opacity="0.47">
<path d="M343.054 512.446C343.054 515.278 340.89 517.573 338.221 517.573H48.7353C46.0662 517.573 43.9019 515.278 43.9019 512.446V453.579C43.9019 450.748 46.0662 448.453 48.7353 448.453H338.221C340.89 448.453 343.054 450.748 343.054 453.579V512.446Z" fill="url(#paint22_linear_55_18508)"/>
<path d="M343.054 512.446C343.054 515.277 340.89 517.572 338.221 517.572H48.7353C46.0662 517.572 43.9019 515.277 43.9019 512.446V453.579C43.9019 450.748 46.0662 448.452 48.7353 448.452H338.221C340.89 448.452 343.054 450.748 343.054 453.579V512.446Z" stroke="#B4B4B4" stroke-width="2.21185"/>
</g>
<g opacity="0.27">
<path d="M333.101 507.619C333.101 509.147 331.864 510.384 330.336 510.384H59.3849C57.8582 510.384 56.6201 509.147 56.6201 507.619V498.772C56.6201 497.245 57.8582 496.007 59.3849 496.007H330.336C331.864 496.007 333.101 497.245 333.101 498.772V507.619Z" fill="white"/>
</g>
<defs>
<linearGradient id="paint0_linear_55_18508" x1="191.72" y1="450.989" x2="193.932" y2="664.432" gradientUnits="userSpaceOnUse">
<stop stop-color="white"/>
<stop offset="1" stop-color="#74C1E2"/>
</linearGradient>
<linearGradient id="paint1_linear_55_18508" x1="187.672" y1="130.699" x2="187.672" y2="160.429" gradientUnits="userSpaceOnUse">
<stop stop-color="#CCCCCC"/>
<stop offset="1" stop-color="#FEFEFE"/>
</linearGradient>
<linearGradient id="paint2_linear_55_18508" x1="187.672" y1="199.819" x2="187.672" y2="229.55" gradientUnits="userSpaceOnUse">
<stop stop-color="#CCCCCC"/>
<stop offset="1" stop-color="#FEFEFE"/>
</linearGradient>
<linearGradient id="paint3_linear_55_18508" x1="187.672" y1="1.65897" x2="187.672" y2="71.4113" gradientUnits="userSpaceOnUse">
<stop stop-color="#CCCCCC"/>
<stop offset="1" stop-color="#FEFEFE"/>
</linearGradient>
<linearGradient id="paint4_linear_55_18508" x1="51.2676" y1="162.818" x2="75.8606" y2="162.818" gradientUnits="userSpaceOnUse">
<stop stop-color="#E6302D"/>
<stop offset="0.552" stop-color="#EA5F2B"/>
<stop offset="1" stop-color="#B8363A"/>
</linearGradient>
<linearGradient id="paint5_linear_55_18508" x1="51.086" y1="230.709" x2="75.679" y2="230.709" gradientUnits="userSpaceOnUse">
<stop stop-color="#2D2E2D"/>
<stop offset="0.552" stop-color="#545454"/>
<stop offset="1" stop-color="#2D2E2D"/>
</linearGradient>
<linearGradient id="paint6_linear_55_18508" x1="135.583" y1="162.818" x2="160.176" y2="162.818" gradientUnits="userSpaceOnUse">
<stop stop-color="#75C8D5"/>
<stop offset="0.552" stop-color="#75C8D5"/>
<stop offset="1" stop-color="#3DA2D2"/>
</linearGradient>
<linearGradient id="paint7_linear_55_18508" x1="135.566" y1="230.533" x2="160.159" y2="230.533" gradientUnits="userSpaceOnUse">
<stop stop-color="#FAC711"/>
<stop offset="0.552" stop-color="#FCCD0A"/>
<stop offset="1" stop-color="#F3A730"/>
</linearGradient>
<linearGradient id="paint8_linear_55_18508" x1="178.173" y1="162.898" x2="202.766" y2="162.898" gradientUnits="userSpaceOnUse">
<stop stop-color="#FAC711"/>
<stop offset="0.552" stop-color="#FCCD0A"/>
<stop offset="1" stop-color="#F3A730"/>
</linearGradient>
<linearGradient id="paint9_linear_55_18508" x1="178.275" y1="230.49" x2="202.867" y2="230.49" gradientUnits="userSpaceOnUse">
<stop stop-color="#75C8D5"/>
<stop offset="0.552" stop-color="#75C8D5"/>
<stop offset="1" stop-color="#3DA2D2"/>
</linearGradient>
<linearGradient id="paint10_linear_55_18508" x1="220.105" y1="162.891" x2="244.698" y2="162.891" gradientUnits="userSpaceOnUse">
<stop stop-color="#E6302D"/>
<stop offset="0.552" stop-color="#EA5F2B"/>
<stop offset="1" stop-color="#B8363A"/>
</linearGradient>
<linearGradient id="paint11_linear_55_18508" x1="220.062" y1="230.709" x2="244.655" y2="230.709" gradientUnits="userSpaceOnUse">
<stop stop-color="#298F4C"/>
<stop offset="0.552" stop-color="#47AD52"/>
<stop offset="1" stop-color="#246A41"/>
</linearGradient>
<linearGradient id="paint12_linear_55_18508" x1="262.503" y1="162.898" x2="287.096" y2="162.898" gradientUnits="userSpaceOnUse">
<stop stop-color="#FAC711"/>
<stop offset="0.552" stop-color="#FCCD0A"/>
<stop offset="1" stop-color="#F3A730"/>
</linearGradient>
<linearGradient id="paint13_linear_55_18508" x1="262.759" y1="230.57" x2="287.352" y2="230.57" gradientUnits="userSpaceOnUse">
<stop stop-color="#E6302D"/>
<stop offset="0.552" stop-color="#EA5F2B"/>
<stop offset="1" stop-color="#B8363A"/>
</linearGradient>
<linearGradient id="paint14_linear_55_18508" x1="304.68" y1="162.715" x2="329.272" y2="162.715" gradientUnits="userSpaceOnUse">
<stop stop-color="#F1E540"/>
<stop offset="0.552" stop-color="#EFEA45"/>
<stop offset="1" stop-color="#EDCF40"/>
</linearGradient>
<linearGradient id="paint15_linear_55_18508" x1="304.893" y1="230.533" x2="329.486" y2="230.533" gradientUnits="userSpaceOnUse">
<stop stop-color="#FAC711"/>
<stop offset="0.552" stop-color="#FCCD0A"/>
<stop offset="1" stop-color="#F3A730"/>
</linearGradient>
<linearGradient id="paint16_linear_55_18508" x1="93.6319" y1="162.715" x2="118.224" y2="162.715" gradientUnits="userSpaceOnUse">
<stop stop-color="#E6302D"/>
<stop offset="0.552" stop-color="#EA5F2B"/>
<stop offset="1" stop-color="#B8363A"/>
</linearGradient>
<linearGradient id="paint17_linear_55_18508" x1="93.2007" y1="230.533" x2="117.793" y2="230.533" gradientUnits="userSpaceOnUse">
<stop stop-color="#2D2E2D"/>
<stop offset="0.552" stop-color="#545454"/>
<stop offset="1" stop-color="#2D2E2D"/>
</linearGradient>
<linearGradient id="paint18_linear_55_18508" x1="306.006" y1="294.832" x2="306.006" y2="403.453" gradientUnits="userSpaceOnUse">
<stop stop-color="#6A6B6B"/>
<stop offset="1" stop-color="#222222"/>
</linearGradient>
<linearGradient id="paint19_linear_55_18508" x1="265.756" y1="333.469" x2="306.561" y2="369.173" gradientUnits="userSpaceOnUse">
<stop stop-color="#F1F1F1"/>
<stop offset="0.521" stop-color="#FEFEFE"/>
<stop offset="1" stop-color="#F1F1F1"/>
</linearGradient>
<linearGradient id="paint20_linear_55_18508" x1="316.116" y1="395.223" x2="334.563" y2="410.596" gradientUnits="userSpaceOnUse">
<stop stop-color="#B4B4B4"/>
<stop offset="0.012" stop-color="#B4B4B4"/>
<stop offset="0.521" stop-color="#FEFEFE"/>
<stop offset="1" stop-color="#B4B4B4"/>
</linearGradient>
<linearGradient id="paint21_linear_55_18508" x1="193.478" y1="455.641" x2="193.478" y2="523.328" gradientUnits="userSpaceOnUse">
<stop stop-color="#2D2E2D"/>
<stop offset="0.012" stop-color="#2D2E2D"/>
<stop offset="0.897" stop-color="#6A6B6B"/>
<stop offset="1" stop-color="#6A6B6B"/>
</linearGradient>
<linearGradient id="paint22_linear_55_18508" x1="43.9019" y1="483.013" x2="343.054" y2="483.013" gradientUnits="userSpaceOnUse">
<stop offset="0.012" stop-color="#B4B4B4"/>
<stop offset="0.0121"/>
<stop offset="0.521"/>
<stop offset="1" stop-color="#242424"/>
</linearGradient>
</defs>
</svg>
